<?xml version="1.0" encoding="UTF-8"?>
<svg xmlns="http://www.w3.org/2000/svg" version="1.1" viewBox="0 0 281.3 91.1">
  <defs>
    <style>
      .cls-1 {
        fill: #fff;
      }

      .cls-2 {
        fill: #f79422;
      }
    </style>
  </defs>
  <!-- Generator: Adobe Illustrator 28.7.1, SVG Export Plug-In . SVG Version: 1.2.0 Build 142)  -->
  <g>
    <g id="Layer_1">
      <g id="Layer_1-2" data-name="Layer_1">
        <path class="cls-2" d="M265.7,84l-8.7-11h-2.7v17.7h3.3v-12l9.3,12h2.1v-17.7h-3.3v11ZM233.3,75.7c4.2,0,5.8,3.3,5.8,6.3s-1.6,6-5.8,6-5.7-3.1-5.8-6,1.7-6.3,5.8-6.3ZM233.3,72.7c-6.1,0-9.1,4.7-9.1,9.3s2.9,9.1,9.1,9.1,9-4.6,9.1-9.2-3-9.3-9.1-9.3ZM212.1,90.7v-17.7h-3.3v17.7h3.3ZM188.5,90.7h3.3v-14.7h5.6v-3h-14.6v3h5.6v14.7ZM169.6,84.2h-6.6l3.3-7.6,3.3,7.6ZM172.4,90.7h3.6l-7.9-17.7h-3.6l-8,17.7h3.6l1.5-3.3h9.3l1.5,3.3ZM134.4,76.1h3.6c3.9,0,5.5,2.8,5.5,5.5,0,2.8-1.5,5.8-5.5,5.8h-3.6v-11.4ZM138.1,73h-6.9v17.7h6.9c6.2,0,8.9-4.5,8.9-9s-2.8-8.7-8.9-8.7h0ZM115.7,84l-8.7-11h-2.7v17.7h3.3v-12l9.3,12h2.1v-17.7h-3.3v11ZM88.2,73v10.2c0,3-1.6,4.9-4.3,4.9s-4.6-1.7-4.6-4.9v-10.1h-3.3v10.1c0,5.3,3.6,7.9,7.9,7.9s7.7-2.7,7.7-7.9v-10.1h-3.3ZM55.2,75.7c4.2,0,5.8,3.3,5.8,6.3,0,3-1.6,6-5.8,6s-5.7-3.1-5.8-6,1.7-6.3,5.8-6.3h0ZM55.2,72.7c-6.1,0-9.1,4.7-9.1,9.3s2.9,9.1,9.1,9.1,9-4.6,9.1-9.2-3-9.3-9.1-9.3h0ZM25.5,90.7v-6.5h8.9v-3.1h-8.9v-4.8h9.4v-3.2h-12.7v17.6h3.3Z"/>
        <path class="cls-1" d="M269.4,54.4h-22.2v-8.9h21.4v-6.9h-21.4v-9.1h22.2v-7.2h-29.6v39.5h29.6v-7.3ZM229.4,28.8c-3-6.1-9.4-7.8-15.5-7.8s-15.3,3.4-15.3,11.5,7.4,11,15.5,12c5.2.6,9.1,2.1,9.1,5.8s-4.4,5.9-9.1,5.9-9.4-1.9-11.1-6.3l-6.2,3.2c2.9,7.2,9.1,9.7,17.2,9.7s16.6-3.8,16.6-12.6-7.7-11.6-15.9-12.6c-4.7-.6-8.8-1.5-8.8-5s2.6-5.2,8.2-5.2,8,2.2,9.4,4.4l5.9-3ZM176,22.2c-6.2,0-12.4,0-18.6,0v39.5h7.4v-11.6h11.2c19.4,0,19.3-27.9,0-27.9h0ZM164.9,29.3h11.2c9.5,0,9.5,14,0,14h-11.2v-14ZM146.9,61.8V22.2h-7.4v39.5h7.4ZM102.9,22.2v39.5h27.8v-6.9h-20.3V22.2h-7.5ZM90.7,51.7c-2.7,2.5-6.2,4-9.9,4-9.8,0-13.5-6.8-13.6-13.4s4.1-13.7,13.6-13.7c3.5,0,7,1.3,9.5,3.7l5-4.8c-3.8-3.9-9.1-6-14.5-6-14.3,0-21,10.5-20.9,20.8s6.3,20.3,20.9,20.3c5.6.1,11-2,15-5.9l-5.1-5.1ZM51.7,54.4h-22.2v-8.9h21.4v-6.9h-21.4v-9.1h22.2v-7.2h-29.5v39.5h29.6v-7.3Z"/>
        <path class="cls-2" d="M9.8,18.2C18.8,4.1,37-.8,52.1,5.9l-1-.7C35.6-4.6,15.1-.2,5.3,15.3-4.6,30.7-.2,51.2,15.3,61.1l1.1.6C3.8,50.8.8,32.3,9.8,18.2Z"/>
        <path class="cls-1" d="M272.2,26.1h0c0-2.5,2.1-4.6,4.6-4.6s4.6,2.1,4.6,4.6h0c0,2.5-2.1,4.6-4.6,4.6s-4.6-2.1-4.6-4.6ZM280.8,26.1h0c0-2.2-1.8-4.1-4-4.1s-4.1,1.8-4.1,4.1h0c0,2.2,1.7,4,3.9,4.1,0,0,0,0,.1,0,2.2,0,4.1-1.8,4.1-4,0,0,0,0,0,0h0ZM274.8,23.6h2.3c1.1,0,1.9.5,1.9,1.6,0,.7-.4,1.3-1.1,1.5l1.2,1.7h-1.4l-1-1.5h-.7v1.5h-1.1v-4.7ZM277,25.9c.5,0,.8-.3.8-.7s-.3-.7-.8-.7h-1v1.3h1Z"/>
      </g>
    </g>
  </g>
</svg>