<?xml version="1.0" encoding="UTF-8"?>
<svg width="263px" height="70px" viewBox="0 0 263 70" version="1.1" xmlns="http://www.w3.org/2000/svg" xmlns:xlink="http://www.w3.org/1999/xlink">
    <title>drovio_logo_regular</title>
    <g id="drovio_logo_regular" stroke="none" stroke-width="1" fill="none" fill-rule="evenodd">
        <g id="logo-bleu" fill-rule="nonzero">
            <path d="M239.970176,17.1949596 C245.14577,17.1949596 249.56247,18.5729006 253.224638,21.3287824 C256.883899,24.0861669 259.471696,27.9224626 260.988029,32.8376696 C261.995525,36.1585523 262.5,39.6462305 262.5,43.2992014 C262.5,46.8860553 262.059493,50.2414992 261.177025,53.3625279 C259.787175,58.543706 257.21537,62.6129143 253.461611,65.5671475 C249.704944,68.5228834 245.177754,70 239.875678,70 C234.573602,70 230.030419,68.542418 226.243222,65.6167354 C222.457479,62.694058 219.868229,58.7089988 218.479832,53.6615576 C217.59591,50.5390263 217.155403,47.1520264 217.155403,43.4975528 C217.155403,39.5801133 217.59591,36.0593766 218.481286,32.9368453 C219.932197,28.023141 222.551977,24.1688133 226.339174,21.3783703 C230.124918,18.5894298 234.669554,17.1949596 239.970176,17.1949596 Z M26.2152537,2.40425897 C31.2192967,2.40425897 35.6040131,3.25476558 39.3723104,4.95277348 C43.1420616,6.65228405 46.0598752,9.04001374 48.1286588,12.1174652 C50.1959886,15.1949167 51.2311073,18.75322 51.2311073,22.7923751 L51.2311073,49.3353941 C51.2311073,53.3745492 50.1959886,56.9328525 48.1286588,60.010304 C46.0598752,63.0877555 43.1420616,65.4769878 39.3737643,67.1749957 C35.6040131,68.8730036 31.2178429,69.7235102 26.2167076,69.7235102 L1.20085401,69.7235102 C0.866475778,69.7235102 0.582981186,69.6123132 0.350370239,69.386914 C0.116305474,69.1630173 0,68.8910355 0,68.5694659 L0,3.55830328 C0,3.23973897 0.116305474,2.96625451 0.350370239,2.74085523 C0.582981186,2.51695861 0.866475778,2.40425897 1.20085401,2.40425897 L26.2167076,2.40425897 L26.2152537,2.40425897 Z M82.4809342,16.8298128 C84.7547062,16.8298128 86.5559872,17.3031513 87.8833235,18.2513309 C88.3877984,18.5218101 88.5782487,19.0297098 88.4517665,19.7735274 L86.461489,31.3485317 C86.3989749,32.1599691 85.9555602,32.3973897 85.1341528,32.0577881 C84.187717,31.7211918 83.0799074,31.5498884 81.817993,31.5498884 C81.3106104,31.5498884 80.6156852,31.6190108 79.7332174,31.7542504 C77.4579916,31.9571097 75.5287745,32.8541989 73.9513815,34.4440151 C72.3710809,36.035334 71.5816575,38.1495793 71.5816575,40.7897561 L71.5816575,68.5048515 C71.5816575,68.844453 71.4697135,69.1314614 71.2501869,69.3673794 C71.0277527,69.6078053 70.7587963,69.7235102 70.4447715,69.7235102 L59.3550446,69.7235102 C59.0381122,69.7235102 58.7691558,69.6063026 58.5481754,69.3673794 C58.327195,69.1314614 58.2167048,68.844453 58.2167048,68.5048515 L58.2167048,18.7592306 C58.2167048,18.4211317 58.327195,18.1341233 58.5481754,17.8952001 C58.7691558,17.6592822 59.0381122,17.5405719 59.3550446,17.5405719 L70.4447715,17.5405719 C70.7587963,17.5405719 71.0262989,17.6607848 71.2501869,17.8952001 C71.4697135,18.1341233 71.5816575,18.4211317 71.5816575,18.7592306 L71.5816575,22.6165636 C71.5816575,22.819423 71.6427179,22.9561652 71.7706539,23.0222823 C71.8971361,23.0914048 71.9916343,23.0583462 72.0541485,22.921604 C74.6448529,18.859909 78.1209328,16.8298128 82.4809342,16.8298128 L82.4809342,16.8298128 Z M113.07945,16.8298128 C118.128562,16.8298128 122.439133,18.2122617 126.011165,20.9711489 C129.581743,23.7330414 132.107026,27.5753478 133.585559,32.498068 C134.569794,35.826464 135.064093,39.3201528 135.064093,42.9776318 C135.064093,46.5689936 134.632309,49.9304482 133.770194,53.0574875 C132.415235,58.2476816 129.905945,62.3244032 126.242322,65.2831444 C122.5787,68.2433883 118.159092,69.7235102 112.98786,69.7235102 C107.815174,69.7235102 103.381028,68.2614202 99.6854214,65.3327323 C95.9912688,62.405547 93.4659862,58.4129744 92.1110274,53.3565173 C91.2489131,50.2309806 90.8185828,46.8364675 90.8185828,43.1774858 C90.8185828,39.2525331 91.2489131,35.7272883 92.1124812,32.5987464 C93.5285004,27.6760261 96.0843132,23.8156878 99.7784658,21.0207367 C103.474072,18.2257857 107.906765,16.8298128 113.080904,16.8298128 L113.07945,16.8298128 Z M239.779726,29.2508157 C237.635344,29.2508157 235.852962,29.8819337 234.432582,31.1441697 C233.012201,32.4064056 231.985805,34.1660227 231.354848,36.4245234 C230.850373,38.017345 230.598862,40.3765241 230.598862,43.4975528 C230.598862,46.4878499 230.819843,48.8124678 231.261804,50.4729092 C231.891307,52.797527 232.948233,54.6247639 234.432582,55.953117 C235.915476,57.2829727 237.729842,57.9456466 239.875678,57.9456466 C241.959,57.9456466 243.725389,57.2829727 245.177754,55.953117 C246.628664,54.6247639 247.669598,52.797527 248.302009,50.4729092 C248.806484,48.3481453 249.057995,46.0235274 249.057995,43.4975528 C249.057995,40.7086124 248.806484,38.3509359 248.302009,36.4245234 C247.60563,34.1660227 246.534166,32.4064056 245.083255,31.1441697 C243.629437,29.8819337 241.864501,29.2508157 239.78118,29.2508157 L239.779726,29.2508157 Z M26.629592,14.4255538 L14.4785776,14.4255538 C14.1398379,14.4255538 13.9726488,14.5833333 13.9726488,14.8973897 L13.9726488,57.2303795 C13.9726488,57.5459385 14.1398379,57.7022154 14.4785776,57.7022154 L26.7299055,57.7022154 C29.832354,57.7022154 32.3489137,56.7254851 34.2723154,54.7735274 C36.1957172,52.8215696 37.1915828,50.2054353 37.2584585,46.9296325 L37.2584585,25.1981367 C37.2584585,21.9238365 36.2974845,19.3092049 34.3726289,17.3572471 C32.4506809,15.4037867 29.8686994,14.4270565 26.6281382,14.4270565 L26.629592,14.4255538 Z M112.896269,28.9052035 C110.802771,28.9052035 109.06255,29.5393268 107.677061,30.8015628 C106.291572,32.0668041 105.289891,33.8309291 104.67638,36.0909325 C104.182082,37.6882621 103.936386,40.0504465 103.936386,43.1774858 C103.936386,46.1707883 104.151552,48.4999141 104.583336,50.1633608 C105.198301,52.4924867 106.230512,54.3212262 107.677061,55.6525846 C109.123611,56.983943 110.894361,57.6481195 112.989314,57.6481195 C115.020298,57.6481195 116.744527,56.983943 118.162,55.6525846 C119.576565,54.3212262 120.592784,52.4924867 121.209203,50.1633608 C121.702048,48.034089 121.949197,45.7064657 121.949197,43.1759832 C121.949197,40.3825348 121.702048,38.021853 121.209203,36.0909325 C120.531724,33.8309291 119.484974,32.0668041 118.068955,30.8015628 C116.651482,29.5393268 114.928708,28.9052035 112.896269,28.9052035 Z M196.540258,69.3884166 C196.332362,69.1675253 196.230595,68.8970462 196.230595,68.5769792 L196.230595,21.6804053 C196.230595,21.3633436 196.332362,21.0943672 196.540258,20.8689679 C196.745247,20.6465739 196.995303,20.535377 197.291882,20.535377 L207.637254,20.535377 C207.932379,20.535377 208.182436,20.6465739 208.388878,20.8689679 C208.595321,21.0943672 208.698542,21.3633436 208.698542,21.6804053 L208.698542,68.5769792 C208.698542,68.8970462 208.596774,69.1675253 208.388878,69.3884166 C208.182436,69.6138159 207.932379,69.7235102 207.637254,69.7235102 L197.291882,69.7235102 C196.995303,69.7235102 196.745247,69.6123132 196.540258,69.3884166 L196.540258,69.3884166 Z M197.601546,12.9424266 C196.275663,11.5088872 195.609815,9.71170359 195.609815,7.54486519 C195.609815,5.31641765 196.258218,3.50270479 197.557931,2.10072128 C198.85183,0.700240426 200.532444,0 202.596866,0 C204.661288,0 206.340448,0.700240426 207.637254,2.10072128 C208.93406,3.50270479 209.582463,5.31641765 209.582463,7.54486519 C209.582463,9.71020093 208.919522,11.5088872 207.59364,12.9424266 C206.266304,14.3744633 204.600228,15.091233 202.596866,15.091233 C200.59205,15.091233 198.927428,14.3744633 197.601546,12.9424266 L197.601546,12.9424266 Z" id="Shape" fill="#2E383D"></path>
            <path d="M165.884144,65.2547659 L187.471999,21.0382824 C188.942836,18.0244692 186.069811,14.7267124 182.855002,15.7436622 L163.978045,29.4377631 C163.238975,29.6723251 162.445862,29.6784978 161.703871,29.454738 L141.358998,16.0492101 C138.131044,15.0800986 135.303298,18.419521 136.816493,21.4117299 L159.000277,65.3072337 C160.427296,68.1312369 164.495102,68.1003735 165.884144,65.2563091" id="Shape" fill="#3E2588"></path>
        </g>
    </g>
</svg>