<svg xmlns="http://www.w3.org/2000/svg" width="89" height="60"><path fill="#191919" fill-rule="evenodd" d="M28.04 53.46l-.3 1.5h.98l-.1.5h-1l-.64 3.14c-.05.23-.07.3-.07.47.02.17.1.34.33.34.24 0 .47 0 .7-.05l-.1.53c-.2.02-.4.04-.6.04-.45 0-.9-.12-.92-.7 0-.1.03-.3.07-.5l.65-3.27h-.9l.12-.5h.9l.3-1.5h.6zM12.27 0h5.3c-2.7 2.73-5.07 5.63-7.08 8.65L12.26 0zm2.52 18.1c2.16-4.83 5.34-9.36 9.45-13.45A46.76 46.76 0 0 1 29.7 0h8.38c-.27.12-.54.25-.8.39-3.64 1.75-6.98 4.14-9.93 7.07-3.1 3.08-5.57 6.46-7.36 10.04-1.75 3.48-2.8 7.04-3.14 10.6-.68 7.2 1.65 13.86 6.56 18.75a19.82 19.82 0 0 0 3.36 2.7h-8.7a25.14 25.14 0 0 1-4.55-7.4c-1.26-3.14-1.9-6.53-1.9-10.1 0-4.62 1.07-9.32 3.16-13.95zm11.1-6.6a40.45 40.45 0 0 1 2.62-2.87C32.7 4.46 37.6 1.56 42.57 0h4.63l-.53 2.6c-5.75.84-11.35 3.73-15.85 8.2-.23.25-.46.48-.68.7H25.9zm26.45 20.66c-1.66 1.65-3.56 2.84-5.5 3.57l.52-2.6a12.36 12.36 0 0 0 3.82-2.57c1.83-1.83 2.93-4.1 3.12-6.4.18-2.3-.57-4.43-2.12-5.98a6.65 6.65 0 0 0-1.52-1.13l.57-2.77a8.3 8.3 0 0 1 2.97 1.9c1.77 1.76 2.7 4 2.7 6.46 0 3.2-1.62 6.58-4.57 9.52zm6.22-9.52c0-2.9-1.1-5.54-3.2-7.62a9.95 9.95 0 0 0-3.8-2.35l.66-3.15c2.1.53 3.95 1.56 5.44 3.05 5.73 5.7 4.65 15.4-2.52 22.53-2.76 2.75-6.02 4.66-9.32 5.53l.62-3.04c2.57-.78 5-2.25 7.06-4.3 3.27-3.23 5.07-7.03 5.07-10.66zm-5.9 1.4c-.15 1.9-1.1 3.8-2.64 5.36a10.7 10.7 0 0 1-2.24 1.7l2.53-12.34c.25.17.5.37.7.58 1.2 1.2 1.8 2.87 1.65 4.7zM4.96 45.9a32 32 0 0 0 1.73 3.64h-4.6l1.56-7.6c.35 1.34.8 2.67 1.3 3.96zM10 32.06c0 3.77.66 7.37 2 10.7a26.77 26.77 0 0 0 3.94 6.78H8.58a30.32 30.32 0 0 1-2.1-4.25 31.37 31.37 0 0 1-1.98-7.54l5-24.27c2.43-4.52 5.65-8.77 9.57-12.67.28-.28.56-.56.85-.83H27a48.84 48.84 0 0 0-3.92 3.5c-4.24 4.23-7.54 8.9-9.8 13.92-2.18 4.85-3.3 9.78-3.3 14.64zm4.54 25.4l.52-2.5h.6l-1 4.9h-.56l.16-.9h-.02c-.37.58-1 1.04-1.75 1.04-.87 0-1.5-.38-1.5-1.32 0-.16.02-.36.06-.58l.65-3.15h.6l-.65 3.17c-.03.15-.06.33-.06.5 0 .64.5.87 1.03.87.87 0 1.66-.8 1.9-2.04zM1.94 53.6l-.5 2.47h3.65l-.13.55H1.32l-.55 2.7h4l-.1.54H0l1.4-6.8h4.57l-.12.55H1.93zm5.56 5.9c-.9 0-1.33-.63-1.34-1.47 0-1.2.7-2.72 2.07-2.72.88 0 1.4.57 1.4 1.42 0 1.22-.74 2.77-2.13 2.77zm2.92-6.44h.6l-1.4 6.8h-.57l.2-.9C8.8 59.63 8.3 60 7.44 60c-1.27 0-1.88-.8-1.9-2 0-1.5 1.02-3.2 2.67-3.2.78 0 1.4.3 1.62 1.07h.02l.56-2.8zm13.44-23.5c0-3.7 1.05-7.44 3.04-10.97h3.52c-1.88 3.13-2.9 6.58-2.9 9.96 0 .58.02 1.15.08 1.7h-3.73a19.35 19.35 0 0 1 0-.7zM40.54 18.6c-.35.26-.7.56-1 .9-2.2 2.17-3.4 4.82-3.4 7.43 0 1.2.25 2.33.75 3.34h-2.94a9.75 9.75 0 0 1-.34-2.6c0-3.1 1.4-6.38 3.88-9.1h3.04zm-11.4 9.96c0-3.4 1.15-6.87 3.23-9.97h2.97a16.72 16.72 0 0 0-2.13 3.5c-.8 1.84-1.23 3.7-1.23 5.56 0 .9.1 1.77.3 2.6h-3.02c-.06-.55-.1-1.12-.1-1.7zm27.17 7.7c7.85-7.8 8.93-18.48 2.54-24.85-1.73-1.7-3.87-2.9-6.28-3.5l.75-3.62c3.25.57 6.2 2 8.53 4.3 3.13 3.13 4.8 6.95 4.96 11.23a19.26 19.26 0 0 1-.2 3.47c-.77 5.26-3.6 10.57-8 14.94-3.87 3.86-8.83 6.5-13.8 7.5l.67-3.3c3.85-.83 7.66-2.97 10.85-6.14zm6.7-28.83c-1.96-1.95-4.34-3.36-7.07-4.2-.75-.24-1.5-.42-2.3-.56L54.2 0H59c2.6.96 5 2.43 7 4.44 2.08 2.07 3.66 4.45 4.7 7.07h-2.2l-.77 3.8a30.45 30.45 0 0 0-.08-.26c-.87-2.84-2.43-5.4-4.65-7.6zm9.46 4.08c-1.12-3.07-2.9-5.83-5.3-8.22A20.37 20.37 0 0 0 62.87 0h8.98a25.82 25.82 0 0 1 6.22 11.5h-5.6zM45.6 7.77c-3.02.55-6 1.84-8.65 3.75h-4.5c4.13-3.9 9.05-6.34 13.86-7.18l-.7 3.44zm-.35 1.74l-.4 2H40a19.36 19.36 0 0 1 5.25-2zM18.5 28.25c.53-5.53 2.94-11.12 6.88-16.1l-1.3 6.43h.95c-1.85 3.55-2.82 7.28-2.82 11 0 .22.02.45.02.7h-.57l-1.5 7.5h3.9a17.3 17.3 0 0 0 3.37 4.75c2.7 2.7 6.12 4.38 10 4.98l-.44 2.04h-6.72A18.6 18.6 0 0 1 24.58 45.7c-4.55-4.55-6.7-10.74-6.08-17.45zm20.94 9.54l-.64 3.04a12.62 12.62 0 0 1-5.76-3.06h6.4zm-20.7 17.5c-1.44 0-2.1 1.4-2.1 2.67 0 .88.45 1.52 1.4 1.52.78 0 1.35-.52 1.6-1.23h.6C19.9 59.4 19.14 60 17.96 60c-1.23 0-1.9-.82-1.93-2.03 0-1.53.96-3.17 2.65-3.17 1.07 0 1.9.54 1.86 1.68h-.6c.04-.73-.5-1.17-1.2-1.17zm19.72-12.86l-.72 3.45c-3.56-.53-6.68-2.07-9.15-4.53a15.64 15.64 0 0 1-2.7-3.6h4.86c.24.3.48.55.74.8 1.97 1.97 4.34 3.28 6.96 3.87zM47 59.86l1-4.9h.62l-1.02 4.9H47zm11.34-6.4l-.3 1.5h1l-.1.5h-1l-.65 3.14c-.06.23-.08.32-.07.47 0 .17.08.34.3.34.25 0 .48 0 .72-.05l-.1.53c-.2 0-.4.03-.6.03-.46.02-.93-.1-.93-.7 0-.1.02-.28.06-.5l.65-3.25h-.9l.12-.5h.9l.3-1.5h.6zm-9.33-.4l-.2.96h-.6l.2-.96h.6zm11.68-3.52h-6.96a35.62 35.62 0 0 0 8.08-5.47l-1.12 5.47zm-8.6 5.35l-.12.6c-.1 0-.23-.02-.34-.02-1.08.02-1.65.88-1.84 1.8l-.53 2.58h-.6l1-4.9h.56l-.23 1.12H50c.36-.7.9-1.2 1.77-1.2.1 0 .22 0 .32 0zm2.16.4c-.53 0-1.22.17-1.22.84 0 .46.5.7 1.05.9.68.27 1.6.55 1.62 1.45 0 1.1-1.05 1.5-1.98 1.5-.95 0-1.92-.52-1.87-1.74h.6c0 .95.7 1.24 1.4 1.24.54 0 1.25-.28 1.24-.9-.02-.65-.7-.85-1.35-1.1-.66-.25-1.33-.55-1.33-1.36 0-.95 1.02-1.34 1.8-1.34 1.04 0 1.8.45 1.8 1.58h-.62c.05-.75-.5-1.07-1.16-1.07zm17.9-34.84c-.02.65-.07 1.3-.15 1.96-.42 3.27-1.46 6.56-3.07 9.72h-3.7c1.55-2.8 2.57-5.72 3-8.64.15-1.03.22-2.04.22-3.04h3.7zM81.8 0a31.12 31.12 0 0 1 2 4.14 32.55 32.55 0 0 1 1.97 7.37h-6A27.45 27.45 0 0 0 74.02 0h7.77zm1.9 0h4.73l-1.65 8.07a33.12 33.12 0 0 0-1.44-4.53A33.07 33.07 0 0 0 83.7 0zm-4.9 20.46c-.03.38-.06.75-.1 1.13-.38 3.54-1.34 7.1-2.85 10.54h-5.08c1.5-3.1 2.46-6.32 2.85-9.53.1-.7.15-1.43.18-2.14h5zm1.54 1.3c.04-.44.08-.87.1-1.3h3.36l-2.36 11.68h-3.8c1.4-3.4 2.33-6.9 2.7-10.38zM44.44 47.4c5.53-.92 11.05-3.78 15.33-8.04a32.9 32.9 0 0 0 4-4.8l-1.38 6.65c-.18.2-.35.36-.53.54a33.8 33.8 0 0 1-12.34 7.8H44l.44-2.13zm-14.3 5.66h.6l-.2.96h-.6l.2-.96zm-1.4 6.8l1.02-4.9h.6l-1 4.9h-.6zm-4.35-1.8c-.2.85-.8 1.43-1.77 1.43-.57 0-1.1-.26-1.1-.9 0-1.02 1.2-1.05 1.94-1.1.3-.04.9-.05 1.08-.3l.02.03-.18.83zm.97-2.16c0 .48-.2 1.22-.3 1.65-.2 1.1-.3 1.36-.3 1.66 0 .18.18.2.32.2.08 0 .14 0 .23 0l-.08.47a2.5 2.5 0 0 1-.5.04c-.33.02-.52-.2-.52-.52a2.48 2.48 0 0 1 0-.27c-.35.57-1.02.9-1.7.9-.9 0-1.6-.4-1.6-1.36 0-1.04.8-1.37 1.7-1.52.62-.1 1.18-.05 1.56-.15.38-.1.58-.3.57-.96 0-.57-.58-.7-1.05-.7-.76 0-1.42.3-1.54 1.1h-.6c.15-1.1 1-1.6 2.07-1.6.67 0 1.7.23 1.72 1.1zm18.47-2.3l-.5 2.47h3.3l-.1.55H43.2l-.67 3.24h-.65l1.4-6.8h4.36l-.1.55h-3.72zm-11.07 5.9c-1 0-1.48-.65-1.5-1.6 0-1.15.7-2.6 2.03-2.6.96 0 1.46.64 1.47 1.55 0 1.14-.68 2.64-2 2.64m.63-4.7c1.15 0 1.96.72 1.97 1.93 0 1.65-.88 3.27-2.7 3.27-1.28 0-1.98-.82-2-2.05 0-1.6.97-3.15 2.73-3.15zm7.3-34.15A10.43 10.43 0 0 1 42.84 19l-2.28 11.27H38.8c-.67-.94-1.03-2.08-1.03-3.34 0-2.18 1.04-4.4 2.92-6.28zM38.85 54.8c.86 0 1.5.38 1.5 1.32 0 .16-.02.36-.07.6l-.66 3.14h-.6l.66-3.17c.03-.17.06-.34.06-.5 0-.66-.5-.9-1.04-.9-.87 0-1.65.8-1.9 2.04l-.53 2.52h-.6l1-4.9h.55l-.15.88c.38-.58 1.02-1.04 1.76-1.04z" opacity=".9"/></svg>