<svg id="aeda88b3-35c8-425e-acda-e72296130bf3" data-name="Layer 1" xmlns="http://www.w3.org/2000/svg" width="3.58405in" height="0.79862in" viewBox="0 0 258.0516 57.50083">
  <defs>
    <style>
      .a1b80da4-454f-430c-8c4e-f96956af4e74 {
        fill: #032b75;
      }

      .a218fa1e-bab3-436b-a9df-4ff8015ae3ab {
        fill: #f96700;
      }
    </style>
  </defs>
  <title>ForgeRock_Horz_Color_Logo_RGB_R_med</title>
  <g>
    <g>
      <g>
        <polygon class="a1b80da4-454f-430c-8c4e-f96956af4e74" points="31.817 0 15.266 5.111 0 32.65 13.532 32.65 31.817 0"/>
        <polygon class="a1b80da4-454f-430c-8c4e-f96956af4e74" points="0.136 37.865 10.704 57.501 24.473 57.501 13.253 37.865 0.136 37.865"/>
        <path class="a218fa1e-bab3-436b-a9df-4ff8015ae3ab" d="M51.03466,35.502,42.507,19.51349c-5.04934,8.91983-13.96489,25.306-17.00555,30.46343l4.202,7.52391h8.86523Z"/>
        <path class="a218fa1e-bab3-436b-a9df-4ff8015ae3ab" d="M22.991,45.48175,40.02179,15.0696l-5.534-10.26734C30.14017,12.48619,21.16477,28.32545,17.21,35.13042Z"/>
      </g>
      <path class="a1b80da4-454f-430c-8c4e-f96956af4e74" d="M70.54179,27.47616v6.338H81.64131v4.45326H70.54179v8.7359H64.992V23.0229H83.11441v4.45326Z"/>
      <path class="a1b80da4-454f-430c-8c4e-f96956af4e74" d="M118.45612,28.29843v4.93331c-.44543-.03446-.788-.06858-1.19912-.06858-2.946,0-4.89885,1.61009-4.89885,5.13871v8.70144h-5.34428V28.57241h5.10459v2.43237C113.42011,29.22341,115.61262,28.29843,118.45612,28.29843Z"/>
      <path class="a1b80da4-454f-430c-8c4e-f96956af4e74" d="M140.24258,28.57241V43.92c0,6.85184-3.69972,10.00344-10.34582,10.00344-3.49433,0-6.88579-.8564-9.044-2.53506l2.12393-3.83672a11.0152,11.0152,0,0,0,6.50894,2.08947c3.76848,0,5.41286-1.71279,5.41286-5.03567v-.78816a7.587,7.587,0,0,1-5.82383,2.29521c-5.10458,0-9.21545-3.52828-9.21545-8.90685s4.11087-8.90718,9.21545-8.90718a7.39817,7.39817,0,0,1,6.09781,2.63777V28.57241Zm-5.27569,8.6332c0-2.70634-2.02123-4.52217-4.83027-4.52217-2.80922,0-4.86473,1.81583-4.86473,4.52217s2.05551,4.52184,4.86473,4.52184C132.94566,41.72745,134.96689,39.912,134.96689,37.20561Z"/>
      <path class="a1b80da4-454f-430c-8c4e-f96956af4e74" d="M162.2523,39.29542H148.30944c.51384,2.29521,2.46649,3.69956,5.2757,3.69956a6.24662,6.24662,0,0,0,4.6247-1.78137l2.8435,3.08336c-1.713,1.95265-4.28231,2.98032-7.60536,2.98032-6.37195,0-10.5171-4.008-10.5171-9.48926,0-5.51572,4.21373-9.4896,9.832-9.4896,5.41285,0,9.59229,3.63132,9.59229,9.55818C162.35516,38.26741,162.28659,38.84983,162.2523,39.29542Zm-14.01144-3.11748h9.0783a4.60338,4.60338,0,0,0-9.0783,0Z"/>
      <path class="a1b80da4-454f-430c-8c4e-f96956af4e74" d="M180.31473,47.00331l-4.62487-6.68022h-5.10442v6.68022H165.0356V23.0229h10.38028c6.40624,0,10.4144,3.32288,10.4144,8.70145a7.79666,7.79666,0,0,1-4.93314,7.57107l5.3784,7.70789Zm-5.20729-19.45857h-4.522v8.35889h4.522c3.39163,0,5.10442-1.57564,5.10442-4.17928C180.21186,29.08658,178.49907,27.54474,175.10744,27.54474Z"/>
      <path class="a1b80da4-454f-430c-8c4e-f96956af4e74" d="M187.50109,37.788c0-5.54984,4.28231-9.4896,10.14042-9.4896,5.85795,0,10.106,3.93976,10.106,9.4896s-4.248,9.48926-10.106,9.48926C191.7834,47.27729,187.50109,43.33787,187.50109,37.788Zm14.8337,0c0-3.18606-2.02122-5.10459-4.69328-5.10459-2.67222,0-4.72774,1.91853-4.72774,5.10459s2.05552,5.10425,4.72774,5.10425C200.31357,42.89228,202.33479,40.97409,202.33479,37.788Z"/>
      <path class="a1b80da4-454f-430c-8c4e-f96956af4e74" d="M210.364,37.788c0-5.54984,4.28231-9.4896,10.27742-9.4896,3.87117,0,6.92007,1.67867,8.25618,4.69345l-4.14532,2.22663a4.59608,4.59608,0,0,0-4.14515-2.53507c-2.70635,0-4.83044,1.88441-4.83044,5.10459s2.12409,5.10425,4.83044,5.10425a4.53407,4.53407,0,0,0,4.14515-2.53506l4.14532,2.26108c-1.33611,2.9462-4.385,4.659-8.25618,4.659C214.64626,47.27729,210.364,43.33787,210.364,37.788Z"/>
      <path class="a1b80da4-454f-430c-8c4e-f96956af4e74" d="M239.57665,39.7748l-2.56936,2.53506v4.69345H231.663V21.58409h5.34427V35.9722l7.81077-7.39979h6.37211l-7.67377,7.81093,8.35889,10.62h-6.47482Z"/>
      <path class="a1b80da4-454f-430c-8c4e-f96956af4e74" d="M84.11331,37.788c0-5.54984,4.28231-9.4896,10.14042-9.4896,5.858,0,10.106,3.93976,10.106,9.4896s-4.248,9.48926-10.106,9.48926C88.39562,47.27729,84.11331,43.33787,84.11331,37.788Zm14.8337,0c0-3.18606-2.02122-5.10459-4.69328-5.10459-2.67222,0-4.72773,1.91853-4.72773,5.10459s2.05551,5.10425,4.72773,5.10425C96.92579,42.89228,98.947,40.97409,98.947,37.788Z"/>
    </g>
    <path class="a1b80da4-454f-430c-8c4e-f96956af4e74" d="M256.64293,28.99465a2.72685,2.72685,0,0,1,1.03325,1.03258,3.003,3.003,0,0,1-.00864,2.92333,2.82377,2.82377,0,0,1-1.04455,1.0492,2.96743,2.96743,0,0,1-2.919,0,2.80851,2.80851,0,0,1-1.03724-1.04521,2.97331,2.97331,0,0,1,0-2.90672,2.79964,2.79964,0,0,1,1.04122-1.0452,3.02542,3.02542,0,0,1,2.935-.008Zm-.25316,4.61307a2.37977,2.37977,0,0,0,.86978-.88574,2.57554,2.57554,0,0,0,.008-2.46584,2.28518,2.28518,0,0,0-.85717-.86978,2.54752,2.54752,0,0,0-2.47381.00431,2.31925,2.31925,0,0,0-.86979.87743,2.57544,2.57544,0,0,0,0,2.46584,2.32636,2.32636,0,0,0,.8658.87777,2.48747,2.48747,0,0,0,2.45721-.004Zm.09834-1.9841a1.03818,1.03818,0,0,1-.47776.38373l.71829,1.10235H256.027l-.63723-.97976h-.72693v.97976h-.70167v-3.217H255.3a1.50558,1.50558,0,0,1,.992.302,1.00833,1.00833,0,0,1,.36346.81663A1.0847,1.0847,0,0,1,256.48811,31.62362Zm-1.2286-.04087a.82532.82532,0,0,0,.53024-.15083.50864.50864,0,0,0,.18805-.42061.49746.49746,0,0,0-.18805-.41662.84336.84336,0,0,0-.53024-.14685h-.60467v1.13491Z"/>
  </g>
</svg>
