<?xml version="1.0" encoding="UTF-8"?><svg id="a" xmlns="http://www.w3.org/2000/svg" viewBox="50 40 1107.27 226.01"><defs><style>.b{fill:#00ca7b;}.c{fill:#02444e;}</style></defs><path class="c" d="M280.29,217.43h16.85v-57.39h54.46v-15.38h-54.46v-42h58.3v-15.57h-75.16V217.43Zm135.03-99.73c-29,0-50.87,21.95-50.87,51.05s21.32,51.05,50.69,51.05,50.87-21.95,50.87-51.05c0-14.14-5.09-27.09-14.34-36.46-9.29-9.41-22.2-14.6-36.35-14.6Zm-.18,86.91c-19.61,0-33.84-15.08-33.84-35.85s14.23-35.85,33.84-35.85,34.02,15.08,34.02,35.85-14.31,35.85-34.02,35.85Zm81.72-68.18v-16.35h-16.3v97.34h16.48v-50.14c0-18.66,10.26-30.72,26.14-30.72h8.88v-16.48h-9.07c-12.54,0-22.25,7.91-26.14,16.35Zm63.87-44.03h-16.48v95.24c0,19.21,10.45,29.79,29.42,29.79h15.12v-14.65h-14.2c-9.58,0-13.85-4.72-13.85-15.32v-53.09h29.34v-14.28h-29.34v-27.69Zm48.42,125.03h16.49V120.08h-16.49v97.34Zm8.52-135.66c-6.53,0-11.45,4.92-11.45,11.45s4.92,11.63,11.45,11.63,11.63-4.89,11.63-11.63-5-11.45-11.63-11.45Zm42.98,38.32v-10.18c0-6.47,2.2-17.33,16.97-17.33h10.17v-14.65h-9.98c-20.43,0-33.64,12.48-33.64,31.8v107.71h16.48v-83.06h42.07v83.06h16.49V120.08h-58.56Zm50.59-38.32c-6.53,0-11.45,4.92-11.45,11.45s4.92,11.63,11.45,11.63,11.63-4.89,11.63-11.63-5-11.45-11.63-11.45Zm70.42,35.94c-27.67,0-47.75,21.47-47.75,51.05s20.01,51.05,48.67,51.05c21.88,0,39.67-12.23,45.33-31.15l.38-1.29h-17.06l-.25,.63c-3.97,10.08-15.04,16.6-28.22,16.6-18.44,0-30.46-11.36-31.58-29.72h77.69v-7.42c0-29.77-18.97-49.77-47.2-49.77Zm-30.07,42.35c1.82-15.8,14.3-27.15,30.07-27.15,16.6,0,28.16,10.62,29.72,27.15h-59.78Zm170.06-25.26c-2.91-4.26-13.38-17.09-33.65-17.09-27.46,0-47.39,21.55-47.39,51.24s19.94,50.87,48.49,50.87c13.52,0,25.22-5.96,33.1-16.82v14.44h15.93V87.08h-16.48v47.71Zm-31.64,70c-19.47,0-32.55-14.41-32.55-35.85s13.24-36.04,32.19-36.04,32.55,14.48,32.55,36.04-13.24,35.85-32.19,35.85Zm102.94,12.63h16.82V87.35h-16.82V217.43Zm80.41-130.08h-39.06V217.43h39.06c40.84,0,65.22-24.31,65.22-65.04s-25.6-65.04-65.22-65.04Zm0,114.9h-22.24V102.7h22.24c29.63,0,48.04,19.04,48.04,49.68s-17.96,49.87-48.04,49.87Z"/><polygon class="b" points="175.87 229 140.14 246.86 140.14 211.13 175.87 193.27 175.87 229"/><polygon class="b" points="140.14 103.94 104.41 86.08 104.41 121.81 140.14 139.67 140.14 103.94"/><polygon class="b" points="211.6 103.91 140.14 139.67 140.14 103.94 211.59 68.22 211.6 103.91"/><polygon class="b" points="211.6 157.5 140.14 193.27 140.14 157.54 211.59 121.82 211.6 157.5"/><polygon class="b" points="68.69 157.5 140.14 193.27 140.14 157.54 68.69 121.82 68.69 157.5"/><polygon class="b" points="68.69 211.1 140.14 246.86 140.14 211.13 68.69 175.41 68.69 211.1"/></svg>