<?xml version="1.0" encoding="UTF-8" standalone="no"?>
<svg
   xmlns:dc="http://purl.org/dc/elements/1.1/"
   xmlns:cc="http://creativecommons.org/ns#"
   xmlns:rdf="http://www.w3.org/1999/02/22-rdf-syntax-ns#"
   xmlns:svg="http://www.w3.org/2000/svg"
   xmlns="http://www.w3.org/2000/svg"
   xmlns:sodipodi="http://sodipodi.sourceforge.net/DTD/sodipodi-0.dtd"
   xmlns:inkscape="http://www.inkscape.org/namespaces/inkscape"
   id="svg47"
   version="1.2"
   viewBox="0 0 125.92625 34.236405"
   height="12.077843mm"
   width="44.423985mm"
   sodipodi:docname="gentics.svg"
   inkscape:version="0.92.4 (5da689c313, 2019-01-14)">
  <sodipodi:namedview
     pagecolor="#ffffff"
     bordercolor="#666666"
     borderopacity="1"
     objecttolerance="10"
     gridtolerance="10"
     guidetolerance="10"
     inkscape:pageopacity="0"
     inkscape:pageshadow="2"
     inkscape:window-width="3440"
     inkscape:window-height="1440"
     id="namedview14"
     showgrid="false"
     inkscape:zoom="4"
     inkscape:cx="102.97146"
     inkscape:cy="-19.726891"
     inkscape:window-x="1920"
     inkscape:window-y="0"
     inkscape:window-maximized="1"
     inkscape:current-layer="surface113" />
  <metadata
     id="metadata51">
    <rdf:RDF>
      <cc:Work
         rdf:about="">
        <dc:format>image/svg+xml</dc:format>
        <dc:type
           rdf:resource="http://purl.org/dc/dcmitype/StillImage" />
        <dc:title />
      </cc:Work>
    </rdf:RDF>
  </metadata>
  <defs
     id="defs8">
    <clipPath
       id="clip1">
      <path
         id="path2"
         d="m 39,8 h 86.92969 V 26 H 39 Z m 0,0" />
    </clipPath>
    <clipPath
       id="clip2">
      <path
         id="path5"
         d="m 92,40 h 32 V 56.75 H 92 Z m 0,0" />
    </clipPath>
  </defs>
  <g
     transform="translate(0,-0.00311362)"
     id="surface113">
    <g
       style="clip-rule:nonzero;fill:#00a0d2;fill-opacity:1"
       id="g12"
       clip-path="url(#clip1)">
      <path
         id="path10"
         d="m 44.238281,8.480469 1.585938,0.011719 c 0,0 2.414062,0.039062 3.738281,1.621093 0,0 0.390625,0.523438 0.425781,0.757813 0.03516,0.234375 0.02734,0.359375 0.02734,0.359375 l -1.789063,0.96875 c 0,0 -0.257812,0.167969 -0.464843,-0.191407 -0.207031,-0.359374 -0.601563,-0.777343 -0.601563,-0.777343 0,0 -0.601562,-0.617188 -1.242187,-0.617188 -0.636719,0 -1.820313,-0.01172 -1.820313,-0.01172 0,0 -1.8125,0.105469 -2.109375,2.164063 v 8.441406 c 0,0 -0.03516,2.101563 2.273438,2.363281 l 1.140625,-0.0039 c 0,0 1.902344,-0.148437 2.136718,-2.210937 v -1.96875 c 0,0 0.0078,-0.207031 -0.28125,-0.203125 -0.289062,0.0078 -2.699218,0.01953 -2.699218,0.01953 0,0 -0.179688,0.01953 -0.191406,-0.339844 v -1.601562 c 0,0 -0.0078,-0.1875 0.277343,-0.183594 h 5.078125 c 0,0 0.210938,-0.0039 0.207032,0.257813 l -0.02344,4.4375 c 0,0 -0.175781,1.972656 -1.527344,2.882812 -1.347656,0.914062 -2.199218,0.925781 -2.199218,0.925781 0,0 -1.933594,0.15625 -2.59375,0.02734 -0.660157,-0.132813 -1.78125,-0.160156 -2.792969,-1.277344 -0.804688,-0.773437 -1.070313,-1.738281 -1.183594,-2.761719 l 0.01172,-9.335937 c 0.507812,-2.253906 1.871094,-3.675781 4.617187,-3.753906 m 76.855474,17.191406 -1.14844,-0.01563 c 0,0 -2.17968,0.230469 -3.72265,-1.621094 -0.0977,-0.117187 -0.73828,-1.0625 -0.53125,-1.167968 l 1.77734,-0.914063 c 0,0 0.25781,-0.167969 0.46093,0.191406 0.20703,0.359375 0.59765,0.777344 0.59765,0.777344 0,0 0.6875,0.617187 1.32422,0.617187 0.63672,0 1.38282,0.01172 1.38282,0.01172 0,0 1.97656,-0.08984 2.26953,-2.148437 0.0625,-1.761719 -1.10547,-2.292969 -2.78516,-3.167969 l -2.47656,-1.289063 c -1.75391,-0.917968 -2.35547,-2.511718 -2.23438,-4.710937 0.47657,-2.253906 1.82422,-3.675781 4.41407,-3.753906 l 1.08203,0.011719 c 0,0 2.27343,0.039062 3.52343,1.621093 0,0 0.36719,0.523438 0.40235,0.757813 0.0312,0.234375 0.0273,0.359375 0.0273,0.359375 l -1.6875,0.96875 c 0,0 -0.24609,0.167969 -0.4414,-0.191407 -0.19141,-0.359374 -0.5625,-0.777343 -0.5625,-0.777343 0,0 -0.57032,-0.617188 -1.17188,-0.617188 -0.60156,0 -1.30859,-0.01172 -1.30859,-0.01172 0,0 -1.70313,0.105469 -1.98438,2.164063 v 0.01172 h 0.0156 c 0,0 -0.008,0.01953 -0.0156,0.05469 v 0.375 c 0.0781,0.492188 0.47656,1.332031 2.15625,2.101563 2.57813,1.183594 2.85156,1.433594 2.85156,1.433594 2.04297,1.238281 2.82813,2.992187 2.57032,5.175781 -0.50391,2.253906 -2.05469,3.675781 -4.78516,3.753906 m -13.71484,-17.191406 1.14843,0.011719 c 0,0 2.41407,0.039062 3.73829,1.621093 0,0 0.39062,0.523438 0.42578,0.757813 0.0352,0.234375 0.0312,0.359375 0.0312,0.359375 l -1.79297,0.96875 c 0,0 -0.25781,0.167969 -0.46485,-0.191407 -0.20703,-0.359374 -0.60156,-0.777343 -0.60156,-0.777343 0,0 -0.60156,-0.617188 -1.24219,-0.617188 -0.6367,0 -1.3867,-0.01172 -1.3867,-0.01172 0,0 -1.8086,0.105469 -2.10547,2.164063 v 8.441406 c 0,0 -0.0352,2.101563 2.27343,2.363281 l 1.14063,-0.0039 c 0,0 1.42969,-0.113281 1.96484,-1.488281 0.0977,-0.179687 0.19141,-0.359375 0.66016,-0.08203 l 1.48828,0.722656 c 0.0273,0.01172 0.18359,0.160156 0.13281,0.332031 -0.55078,1.464844 -1.97265,2.382813 -3.46875,2.53125 0,0 -1.93359,0.15625 -2.59375,0.02734 -0.66015,-0.132813 -1.78125,-0.289063 -2.79297,-1.410156 -0.80859,-0.769531 -0.98828,-1.640625 -1.09765,-2.664063 l 0.004,-9.300781 c 0.50391,-2.253906 1.79297,-3.675781 4.53907,-3.753906 M 95.953125,8.75 h 1.648437 c 0.167969,0 0.308594,0.140625 0.308594,0.3125 v 16.035156 c 0,0.175782 -0.140625,0.316406 -0.308594,0.316406 h -1.648437 c -0.167969,0 -0.308594,-0.140624 -0.308594,-0.316406 V 9.0625 c 0,-0.171875 0.140625,-0.3125 0.308594,-0.3125 m -9.03125,0 h 4.792969 c 0.175781,0 0.316406,0.128906 0.316406,0.285156 v 1.539063 c 0,0.15625 -0.140625,0.285156 -0.316406,0.285156 h -3.070313 c -0.167969,-0.0039 -0.253906,0.07031 -0.253906,0.21875 v 14.019531 c 0,0.175782 -0.140625,0.316406 -0.3125,0.316406 h -1.648437 c -0.171876,0 -0.3125,-0.140624 -0.3125,-0.316406 V 11.078125 c 0,-0.148437 -0.08594,-0.222656 -0.253907,-0.21875 h -3.070312 c -0.175781,0 -0.316407,-0.128906 -0.316407,-0.285156 V 9.035156 c 0,-0.15625 0.140626,-0.285156 0.316407,-0.285156 z m -18.675781,0 h 1.644531 c 0.164063,0 0.296875,0.128906 0.308594,0.289062 l 6.132812,11.449219 V 9.0625 c 0,-0.171875 0.140625,-0.3125 0.3125,-0.3125 h 1.644531 c 0.171876,0 0.308594,0.140625 0.308594,0.3125 v 16.035156 c 0,0.175782 -0.136718,0.316406 -0.308594,0.316406 h -1.644531 c -0.148437,0 -0.269531,-0.105468 -0.304687,-0.242187 l -0.01563,0.0078 -6.121094,-11.722657 v 11.640625 c 0,0.175782 -0.140625,0.316406 -0.3125,0.316406 h -1.644531 c -0.171875,0 -0.308594,-0.140624 -0.308594,-0.316406 V 9.0625 c 0,-0.171875 0.136719,-0.3125 0.308594,-0.3125 m -14,0 h 8.863281 c 0.167969,0 0.308594,0.140625 0.308594,0.3125 v 1.601562 c 0,0.152344 -0.09766,0.214844 -0.261719,0.210938 h -6.613281 c -0.148438,-0.0039 -0.226563,0.08594 -0.222657,0.261719 v 4.554687 c -0.0039,0.132813 0.0625,0.203125 0.207032,0.195313 h 5.546875 c 0.109375,0.0078 0.171875,0.06641 0.183593,0.1875 v 1.75 C 62.246094,17.941406 62.183594,18 62.074219,18.007812 h -5.546875 c -0.144532,-0.0039 -0.210938,0.06641 -0.207032,0.195313 v 4.824219 c -0.0039,0.175781 0.07422,0.265625 0.222657,0.261718 h 6.613281 c 0.164062,-0.0039 0.261719,0.05859 0.261719,0.210938 v 1.597656 c 0,0.175782 -0.140625,0.316406 -0.308594,0.316406 h -8.863281 c -0.171875,0 -0.308594,-0.140624 -0.308594,-0.316406 V 9.0625 c 0,-0.171875 0.136719,-0.3125 0.308594,-0.3125"
         style="fill:#00a0d2;fill-opacity:1;fill-rule:nonzero;stroke:none" />
    </g>
    <path
       id="path14"
       d="m 20.570312,16.132812 c -0.992187,0.578126 -2.265624,0.246094 -2.847656,-0.742187 -0.578125,-0.992187 -0.246094,-2.261719 0.742188,-2.84375 L 26.507812,7.8125 c 0.988282,-0.582031 2.261719,-0.25 2.84375,0.742188 0.191407,0.328124 0.285157,0.691406 0.285157,1.050781 h 0.0078 v 15.035156 c 0,0.8125 -0.464843,1.511719 -1.140625,1.859375 L 22.25,30.191406 15.882812,33.949219 c -0.6875,0.40625 -1.511718,0.371093 -2.144531,-0.01172 L 7.394531,30.191406 1.027344,26.433594 C 0.371094,26.042969 0.00390625,25.351562 0.00390625,24.640625 H 0 V 9.605469 C 0,8.792969 0.464844,8.089844 1.140625,7.742188 L 7.394531,4.050781 13.761719,0.292969 c 0.6875,-0.40625 1.507812,-0.371094 2.144531,0.015625 l 5.527344,3.261718 c 0.992187,0.585938 1.320312,1.863282 0.734375,2.851563 -0.585938,0.992187 -1.863281,1.320313 -2.851563,0.734375 L 14.824219,4.503906 9.515625,7.636719 4.171875,10.789062 v 12.664063 l 5.34375,3.152344 5.308594,3.132812 5.304687,-3.132812 5.34375,-3.152344 V 13.242188 Z m -5.921874,-1.105468 c 1.199218,0 2.167968,0.96875 2.167968,2.164062 0,1.199219 -0.96875,2.167969 -2.167968,2.167969 -1.191407,0 -2.164063,-0.96875 -2.164063,-2.167969 0,-1.195312 0.972656,-2.164062 2.164063,-2.164062"
       style="fill:#00a0d2;fill-opacity:1;fill-rule:nonzero;stroke:none" />
    <g
       style="clip-rule:nonzero;fill:#00a0d2;fill-opacity:1"
       id="g44"
       clip-path="url(#clip2)" />
  </g>
</svg>
