<?xml version="1.0" encoding="utf-8"?>
<!-- Generator: Adobe Illustrator 19.2.0, SVG Export Plug-In . SVG Version: 6.00 Build 0)  -->
<svg version="1.1" id="Layer_1" xmlns="http://www.w3.org/2000/svg" xmlns:xlink="http://www.w3.org/1999/xlink" x="0px" y="0px"
	 viewBox="0 0 2000 430" style="enable-background:new 0 0 2000 430;" xml:space="preserve">
<style type="text/css">
	.Arched_x0020_Green{fill:url(#SVGID_1_);stroke:#FFFFFF;stroke-width:0.25;stroke-miterlimit:1;}
	.st0{fill:#53A318;}
</style>
<linearGradient id="SVGID_1_" gradientUnits="userSpaceOnUse" x1="583" y1="497.3402" x2="583.7071" y2="496.6331">
	<stop  offset="0" style="stop-color:#20AC4B"/>
	<stop  offset="0.9831" style="stop-color:#19361A"/>
</linearGradient>
<g>
	<path class="st0" d="M1013.4,371.9c66.2,0,110.3-42.9,110.3-115.3V71.4h-72.4v182.3c0,33.7-12.1,50.4-37.5,50.4
		c-24.5,0-35-17.1-35-50.4V71.4h-72.8v185.2C906.1,330.6,946.4,371.9,1013.4,371.9z"/>
	<path class="st0" d="M1317.7,87.6c-20-14.1-43.7-16.2-74.9-16.2h-98.2v295.9h72.4V272h20.8c30.8,0,54.1-2.1,72.9-13.3
		c29.5-17.9,47-49.5,47-87.8C1357.7,133.8,1344,105.9,1317.7,87.6z M1231.2,207.9h-13.3v-70.3h19.1c32.1,0,47.5,10,47.5,34.5
		C1284.4,198.7,1267,207.9,1231.2,207.9z"/>
	<polygon class="st0" points="1758.1,202.5 1868.4,367.3 1932,367.3 1932,71.4 1859.7,71.4 1859.7,235.8 1751,71.4 1685.7,71.4 
		1685.7,367.3 1758.1,367.3 	"/>
	<path class="st0" d="M841.5,109.7C812.8,81.4,775.4,66,735.8,66c-42,0-78.7,14.6-107.8,43.3c-29.1,28.7-45,66.2-45,107
		c0,43.7,14.2,80.3,42,109.9c29.1,30.8,66.6,46.6,110.3,46.6c41.2,0,80.3-16.2,109-46.2c27.9-28.7,42.9-66.6,42.9-109
		C887.3,177.1,871.5,139.2,841.5,109.7z M735.4,299.5c-40.8,0-77.8-35.8-77.8-82.4c0-43.3,34.5-77.8,78.7-77.8
		c41.6,0,76.2,34.5,76.2,77.8C812.4,265.3,777.9,299.5,735.4,299.5z"/>
	<path class="st0" d="M1625.7,109.7C1597,81.4,1559.5,66,1520,66c-42.1,0-78.7,14.6-107.8,43.3c-29.1,28.7-45,66.2-45,107
		c0,43.7,14.2,80.3,42,109.9c29.2,30.8,66.6,46.6,110.3,46.6c41.2,0,80.3-16.2,109-46.2c27.9-28.7,42.9-66.6,42.9-109
		C1671.5,177.1,1655.7,139.2,1625.7,109.7z M1519.6,299.5c-40.8,0-77.8-35.8-77.8-82.4c0-43.3,34.6-77.8,78.7-77.8
		c41.6,0,76.2,34.5,76.2,77.8C1596.6,265.3,1562,299.5,1519.6,299.5z"/>
	<path class="st0" d="M79.1,326.1c29.1,30.8,66.2,47,109.9,47c50.4,0,97.8-25,126.1-66.2c17.1-25,25.4-53.3,25.4-86.6
		c0-6.2-0.4-12.9-0.8-19.6H171.1v59.1h84.5c-14.6,25.8-39.1,40-66.6,40c-40.8,0-77.4-36.2-77.4-83.3c0-42.5,34.1-77.8,77.4-77.8
		c23.3,0,42.4,9.6,60.8,28.7h82.4c-23.7-63.3-79.1-102-142.3-102c-42,0-78.6,15-107.8,43.7c-29.1,28.7-44.9,66.2-44.9,107
		C37.1,259.9,51.2,296.5,79.1,326.1z"/>
	<path class="st0" d="M504.8,265.7c42-11.7,67-47.4,67-95.3c0-36.6-13.7-64.5-40-82.8c-20-14.1-43.7-16.2-74.9-16.2h-98.2v295.9
		h72.4V272l56.6,95.3h89.5L504.8,265.7z M445.3,207.9h-14.1v-70.3h20c32,0,47.4,10,47.4,34.5C498.6,198.7,481.1,207.9,445.3,207.9z"
		/>
	<path class="st0" d="M1975.5,108.9c6.2,0,11.5-2.2,15.8-6.6c4.4-4.4,6.5-9.7,6.5-15.8c0-6.2-2.2-11.4-6.5-15.7
		c-4.3-4.3-9.6-6.5-15.8-6.5c-6.1,0-11.4,2.2-15.7,6.5c-4.4,4.4-6.5,9.6-6.5,15.7c0,6.2,2.2,11.5,6.5,15.8
		C1964.1,106.7,1969.3,108.9,1975.5,108.9z M1962,72.9c3.8-3.8,8.3-5.7,13.6-5.7c5.3,0,9.9,1.9,13.6,5.7c3.7,3.7,5.6,8.3,5.6,13.6
		c0,5.3-1.9,9.9-5.6,13.7c-3.7,3.8-8.2,5.7-13.6,5.7c-5.3,0-9.9-1.9-13.6-5.7c-3.7-3.8-5.6-8.3-5.6-13.7
		C1956.4,81.2,1958.2,76.7,1962,72.9z"/>
	<path class="st0" d="M1985.4,98.3c-0.1-0.2-0.2-0.6-0.2-1.3c0-0.6-0.1-1.3-0.1-1.8v-1.8c0-1.2-0.4-2.5-1.3-3.8
		c-0.9-1.3-2.3-2.1-4.2-2.4c1.5-0.2,2.7-0.6,3.5-1.2c1.6-1,2.4-2.7,2.4-4.8c0-3.1-1.3-5.2-3.8-6.2c-1.4-0.6-3.6-0.9-6.7-0.9h-8.6
		v24.5h4.3V89h3.4c2.3,0,3.9,0.3,4.8,0.8c1.6,0.9,2.3,2.8,2.3,5.6v1.9l0.1,0.8c0,0.1,0,0.2,0,0.3c0,0.1,0,0.2,0.1,0.2h4L1985.4,98.3
		z M1978.9,85.4c-0.9,0.4-2.3,0.5-4.1,0.5h-3.9v-8.9h3.7c2.4,0,4.1,0.3,5.2,0.9c1.1,0.6,1.6,1.8,1.6,3.6
		C1981.4,83.5,1980.5,84.8,1978.9,85.4z"/>
</g>
</svg>
