<?xml version="1.0" encoding="utf-8"?>
<!-- Generator: Adobe Illustrator 21.1.0, SVG Export Plug-In . SVG Version: 6.00 Build 0)  -->
<svg version="1.1" id="Logo" xmlns="http://www.w3.org/2000/svg" xmlns:xlink="http://www.w3.org/1999/xlink" x="0px" y="0px"
	 viewBox="0 0 300 300" style="enable-background:new 0 0 300 300;" xml:space="preserve">
<style type="text/css">
	.st0{fill:#FFFFFF;}
	.st1{fill:#48DAD0;}
	.st2{fill:#383C45;}
</style>
<g id="White_on_Grey">
	<rect class="st2" width="300" height="300"/>
	<g>
		<path id="triangle_1_" class="st1" d="M111.5,210l-23.1,23.1L65.2,210L111.5,210z"/>
		<path id="here_1_" class="st0" d="M145.3,157.5c-4.8-5.7-4.6-8.8-1.6-11.8c3.6-3.6,7.3-2.1,11.5,1.9L145.3,157.5z M194.8,94.6
			c3.6-3.6,7.3-2.1,11.5,1.9l-9.9,9.9C191.6,100.7,191.8,97.6,194.8,94.6z M224.7,104.7c-4.5,6.7-12.3,17.6-20.5,9.4L225,93.4
			c-1.9-2-3.3-3.7-4.4-4.7c-11.2-11.2-23.8-11.4-33.7-1.5c-6.6,6.6-8.3,14.1-6.4,21.3L174,101c-1.9,1-9.9,8.1-3.9,18.7l-7.4-6.2
			l-9.9,9.9l13.3,13.3c-10.3-8.2-21.4-7.4-30.3,1.5c-9.5,9.5-8.9,21.1-1.7,30.6l-1.4-1.4c-9.4-9.4-19.7-6.1-24.8-1
			c-3.9,3.9-6.3,9.3-5.3,13.1l-20.5-20.5l-10.9,10.9l40.3,40.3h21.6l-14.5-14.5c-7.6-7.8-7.8-11.9-4.1-15.6c3.6-3.6,7.7-1.3,15.1,6
			l14.4,14.4l10.8-10.8l-13.6-13.6c9.8,7.4,21.6,7.8,32.1-2.6c0.1-0.1,0.1-0.1,0.2-0.2l0,0c6.4-5.9,8.3-11.7,8.3-11.7l-8.2-5.5
			c-4.5,6.7-12.3,17.6-20.5,9.4l20.8-20.8l13,13l11.3-11.3L182,129.8c-7.6-7.6-3.1-14.7,0.1-17.4c1.5,3.1,3.6,6.1,6.4,8.9
			c10.5,10.5,24.1,12.6,36,0.8c0.1-0.1,0.1-0.1,0.2-0.2l0,0c6.4-5.9,8.3-11.7,8.3-11.7L224.7,104.7z"/>
	</g>
</g>
</svg>
