<?xml version="1.0" encoding="utf-8"?>
<!-- Generator: Adobe Illustrator 23.0.0, SVG Export Plug-In . SVG Version: 6.00 Build 0)  -->
<svg version="1.1" id="图层_1" xmlns="http://www.w3.org/2000/svg" xmlns:xlink="http://www.w3.org/1999/xlink" x="0px" y="0px"
	 viewBox="0 0 327.7 75.2" style="enable-background:new 0 0 327.7 75.2;" xml:space="preserve">
<style type="text/css">
	.st0{fill:#F11329;}
	.st1{fill:#002566;}
</style>
<g>
	<polygon class="st0" points="40.2,25.8 13.8,41 13.8,52.2 40.2,36.9 	"/>
	<g>
		<g>
			<rect x="223" y="31.3" class="st1" width="30.6" height="5.7"/>
		</g>
		<g>
			<path class="st1" d="M263.9,40.7c-12.3-8.9-21.3-18.4-25.6-23.4c-4.4,5-13.3,14.5-25.6,23.4l-3.3-4.6c12.5-9,21.6-18.9,24.9-22.7
				c1-1.2,2.5-1.9,4.1-1.9c1.6,0,3.1,0.7,4.1,1.9c3.3,3.8,12.4,13.7,24.9,22.7L263.9,40.7z"/>
		</g>
		<path class="st1" d="M145.8,42.7l-25.9-14.9c-1-0.6-1.6-1.6-1.6-2.8c0-1.8,1.4-3.2,3.2-3.2H148v-8.6h-26.6
			c-6.5,0-11.8,5.3-11.8,11.8l0,0c0,4.2,2.3,8.1,5.9,10.2l25.9,15c1,0.6,1.6,1.6,1.6,2.8c0,1.8-1.4,3.2-3.2,3.2h-14.3l0,0h-16v8.6
			h1.7h14.3h14.3c6.5,0,11.8-5.3,11.8-11.8C151.7,48.7,149.4,44.8,145.8,42.7z"/>
		<g>
			<path class="st1" d="M200.1,64.8h-35.4c-3.7,0-6.8-3-6.8-6.8V19.9c0-3.7,3-6.8,6.8-6.8h28.6c3.7,0,6.8,3,6.8,6.8v10
				c0,1.8-0.9,3.4-2.5,4.3l-31.1,17.9v4.1h33.6L200.1,64.8L200.1,64.8z M166.5,21.8v20.4l24.9-14.4v-6H166.5z"/>
		</g>
		<g>
			<path class="st1" d="M80.4,64.8c-13.7,0-24.8-11.1-24.8-24.8v-2c0-13.7,11.1-24.8,24.8-24.8s24.8,11.1,24.8,24.8v2
				C105.2,53.7,94.1,64.8,80.4,64.8z M80.4,21.8c-8.9,0-16.2,7.3-16.2,16.2v2c0,8.9,7.3,16.2,16.2,16.2S96.6,48.9,96.6,40v-2
				C96.6,29,89.3,21.8,80.4,21.8z"/>
		</g>
		<g>
			<rect x="4.6" y="12.8" class="st1" width="9.2" height="52.3"/>
		</g>
		<g>
			<rect x="40.2" y="12.8" class="st1" width="9.2" height="52.3"/>
		</g>
		<g>
			<g>
				<path class="st1" d="M310.6,41.1h-34.1c-1.7,0-3.1-1.4-3.1-3.1V16.2c0-1.7,1.4-3.1,3.1-3.1h34.1c1.7,0,3.1,1.4,3.1,3.1V38
					C313.7,39.7,312.3,41.1,310.6,41.1z M279,35.3h29V18.9h-29V35.3z"/>
			</g>
			<g>
				<rect x="273.4" y="24.4" class="st1" width="40.3" height="5.5"/>
			</g>
			<g>
				<rect x="290.8" y="13.2" class="st1" width="5.5" height="27.8"/>
			</g>
		</g>
		<g>
			<g>
				
					<rect x="263" y="51" transform="matrix(0.3762 -0.9265 0.9265 0.3762 118.9606 284.3078)" class="st1" width="15.2" height="5.7"/>
			</g>
			<g>
				
					<rect x="313.6" y="46.2" transform="matrix(0.9266 -0.3761 0.3761 0.9266 2.9988 122.9695)" class="st1" width="5.7" height="15.2"/>
			</g>
			<g>
				
					<rect x="291.7" y="45.2" transform="matrix(0.9265 -0.3762 0.3762 0.9265 3.029 114.4372)" class="st1" width="5.7" height="8.6"/>
			</g>
			<g>
				<path class="st1" d="M305.2,64.8h-20.9c-3.4,0-6.2-2.8-6.2-6.2V47.4h5.7v10.9c0,0.5,0.4,0.9,0.9,0.9h20.1c0.5,0,0.9-0.4,0.9-0.9
					V54h5.7v4.7C311.3,62.1,308.6,64.8,305.2,64.8z"/>
			</g>
		</g>
		<g>
			<path class="st1" d="M253.8,64.8h-31c-1.7,0-3.1-1.4-3.1-3.1V44.9c0-1.7,1.4-3.1,3.1-3.1h31c1.7,0,3.1,1.4,3.1,3.1v16.8
				C256.9,63.4,255.5,64.8,253.8,64.8z M225.3,59.1h25.9V47.5h-25.9V59.1z"/>
		</g>
	</g>
</g>
</svg>
