<svg width="216" height="72" xmlns="http://www.w3.org/2000/svg"><path d="M132.3 71.3h17.2V.1h-17.2v71.2zM102.1 51c0 2.5-2.1 4.6-4.6 4.6h-10c-2.5 0-4.6-2.1-4.6-4.6V22.3H65.7v30.1c0 12.3 7.9 18.8 19.5 18.8H102c10.7 0 17.2-7.7 17.2-18.8V22.3H102c.1 0 .1 27.8.1 28.7zm96.7-28.7V51c0 2.5-2.1 4.6-4.6 4.6h-10c-2.5 0-4.6-2.1-4.6-4.6V22.3h-17.2v30.1c0 12.3 7.9 18.8 19.5 18.8h16.8c10.7 0 17.2-7.7 17.2-18.8V22.3h-17.1zM34 22.3H23c-3.9 0-5.8 1-5.8 1V.1H0v71.1h17.1V42.6c0-2.5 2.1-4.6 4.6-4.6h10c2.5 0 4.6 2.1 4.6 4.6v28.7h17.2v-31c0-13-8.7-18-19.5-18z" fill="#1CE783"/></svg>