<?xml version="1.0" encoding="utf-8"?>
<!-- Generator: Adobe Illustrator 24.1.2, SVG Export Plug-In . SVG Version: 6.00 Build 0)  -->
<svg version="1.1" id="Logo" xmlns="http://www.w3.org/2000/svg" xmlns:xlink="http://www.w3.org/1999/xlink" x="0px" y="0px"
	 viewBox="0 0 283.5 70.5" style="enable-background:new 0 0 283.5 70.5;" xml:space="preserve">
<style type="text/css">
	.st0{fill:#000066;}
	.st1{fill:#FF6200;}
</style>
<g>
	<path class="st0" d="M157.9,51.3v13.5c-7.6,3.8-14.7,5.7-21.9,5.7c-19.8,0-31.7-11.6-31.7-26.3c0-15.9,13.6-29,30.9-29
		c4.3,0,7.5,0.8,10.9,1.9c2.4,0.8,3.9,1.6,5.5,1.6c1.3,0,1.7-2.2,1.9-3.5h1.9l1.7,18.3h-2.3c-0.9-3.6-2.6-6.6-4.9-8.7
		c-3.6-3.6-8.5-5.5-14.1-5.5c-11.9,0-18.8,9.4-18.8,23.6c0,14,8.5,23.5,19.8,23.5c3.3,0,6.4-0.8,10.1-2.5V49.9
		c0-4.5-0.7-6.2-7.2-6.2v-2.1h23.9v2.1C157.7,43.7,157.9,45.6,157.9,51.3z M92.1,29v40.5H89L48.4,27.7c0.2,1.1,0.2,2.1,0.2,3.2v25.5
		c0,7.8,0,10.6,7.1,10.6v2.1h-19V67c7.2,0,7.2-3.4,7.2-10.6V27.3c0-4.3,0-9.1-7.6-9.1v-2h17.9l33.3,34.2c-0.2-0.9-0.2-1.5-0.2-2.9
		V29c0-7.5,0.2-10.7-7-10.7v-2h19v2C92.5,18.3,92.1,21.3,92.1,29z M0,69.1V67c4.6,0,7.8-0.4,7.8-7V25.3c0-6.8-2.5-7-7.8-7v-2h26.8v2
		c-5.5,0-7.8,0.2-7.8,7V60c0,6.6,2.9,7,7.8,7v2.1C26.8,69.1,0,69.1,0,69.1z"/>
	<path class="st1" d="M210.4,69.1c-1-1.7-1.1-4.4-1.1-4.9c0-0.9,0-2.3,0.6-3.2l-2.1,0.4c-0.6,0.7-0.8,1.1-0.8,1.5l1-0.4
		c0.2,0,0.4,0.4,0.6,0.8c-0.2,0.9-1.3,0.9-1.7,1.3c-0.6,1.9,1.1,3,1.3,4.6L210.4,69.1L210.4,69.1z M283.5,44.7
		c0-8.3-3.4-16.6-9.5-22.6c-2.6-2.7-5.5-3.9-7.8-6.6c-1.1-1.1-2-2.3-2.8-3.8c-1-1-1.5-1.5-2.7-2.1c0.2,0.6,0.4,1.1,0.6,1.7h-0.2
		c-1,0-1.9-0.6-2.7-1.1l0.8-0.8C259,9,258.4,9,258,9c-3-0.5-5.8,1.1-8.8,1.7v0.4c1.9,0.6,2.2,2.9,3.3,4c0.2,0,0.4,0,1.1,0
		c0.4,0,1,0.4,1.3,0.4c0-0.4-0.4-1.1-0.4-1.1c0.4-0.4,0.8-0.4,1.1,0c0.9,0.6,2.3-0.4,3.2,1.1c-1.1,0-2.3,0-3.2,0.6
		c0,0.2,0.6,0.5,0.4,0.9c-0.9-0.4-2.1,0-2.5-0.7l-0.2,0.1c1.1,1.3,2.9,2.4,4.6,3c2.5,0.4,4.6-0.8,7-0.2c8.6,4.2,14.7,14,14.7,23.8
		c0,14-8,19.5-13,19.5c-1,0-2.4-0.6-3-1.1c0.6-1.9,0.9-4.2,0.9-7.6c0-8.1-3.2-16.8-7.6-21.3c-2.1-2.1-4.3-3.8-6.7-3.8
		c-1.1,0-2.3,0-3,0.9c-1,0.8-1.5,2.3-1.3,3.2c-1.5,1.1-4,1.7-5.9,1.7c-2.1,0-4.8-0.8-7.1-2.7c0-0.8,0-1.7,0-2.9
		c-0.5-0.2-2.4-1.3-1.5-2.2c0.6,0.2,1,0.5,1.1,0.7c-0.2-1.2-0.2-2.8-1.1-3.9c-0.4,0-0.9,0-1.5-0.4c-0.6-0.6-1.2-1.3-1.2-2.3
		c0.6,1,1.5,0.6,2.1,1.1c-0.9-2.3-0.6-3.2-2.3-6.6c-0.4-1.7-2.1-2.7-3.2-3.8c-0.6-0.4-0.8-1-1.5-1c-0.8-0.2-0.8-1.1-0.8-1.7
		c0.2,0,0.8,0.4,1.1,0.5c-1.1-2.6-1.9-5.4-4.4-6.9L219.4,3c-0.9,0-2.1,0-3,0c0.4-0.4,1.1-0.6,1.7-0.9c-0.6-0.6-0.9-0.8-2.1-0.8
		c-0.5,0.2-1.2,0.8-1.9,0.8h-0.2c0-0.6-0.2-1.3,0.9-1.7c-1.1-0.2-2.1-0.2-3.4,0c-0.2,0.9-0.8,1.5-0.8,2.3c-0.6,0.4-0.8,1-1.3,1.5
		c0-1.1,0.6-2.3,0.8-3.4c-0.8,0.2-1.7,0.8-2.1,0.8c-1.5-0.8-3.4-1.5-4.2-1.5c1.1,0.8,0.6,2.1,0.8,3l-0.8-0.4
		c-0.2-0.8-1.1-1.3-1.3-2.3c-1.1,0-1.9,0.4-2.9,0.9v0.2c0.6,0,1.3,0.6,1.7,1.1c-1.3,0-2.3-0.6-3.6-0.6c0,0,0-0.2-0.2-0.2
		c-0.5,0.2-1,0.8-1.4,1.1c-1.3,1.1-2.3,2.1-2.9,3.8c0.4,0,1,0,1.1,0.2c-0.8,0.2-1.1,1.1-1.9,1.3c0,0.7,0,1.8,0,2.8
		c-0.6,0.6-1.3,1.1-1.7,2.3c-1,3-1.1,6.4-1.1,10.2c-0.2,0.8-0.6,1-0.9,1.1v2.9c0,0,1.1-1.1,1.7-1.4c0,0.8,0,1.8,0,2.4
		c-0.8,0-1.3,0.9-1.3,1.5c0,0.8,0.2,1.5,0.2,2.3c0,0.4,0,0.4,0.2,0.8c0-0.4,0.4-0.8,1-0.9c0,0,0.4-0.4,1.1-0.4
		c-0.6,0.6-0.8,1.3-1.1,2.1c-0.6,0.6-0.6,0.6-0.6,0.6s-0.2,0.4-0.2,0.6c0.8,3.9,1.9,7.3,3.4,11c-1.5,2.5-3.2,7.2-4.4,11.8
		c-1-0.9-2.3-1.1-3.4-1.1c-1.1,0.2-2.2,0.6-3,1.7c-1.1-0.6-2.7-0.4-3.4,0.4c-1.6,1.4-1.6,2.1-1.6,3.2c-0.4,0.4-1.2,1.3-1.2,2.7
		c0,1.7,0.2,2.9,1.2,4.4h28.5c-0.2-0.6-0.6-1.3-1-1.7c-0.6-1.1-0.2-2.7-0.2-3.8c0.6-1.1,1.1-2.2,1.9-3.2c0.2-0.6,0-0.6,0.2-0.8
		l1.3-0.2c0.8,0,1.3-0.6,2.3-0.6c0.6,0.8,0.6-0.6,1.5-1c2.1-0.4,4,0,5.2,1.5c0,0.2,0.2,0.2,0.2,0.4c-0.2,0-0.6,0-1,0
		c-1.1-0.4-2.3-1-3.6-0.4c0,0.4-0.2,0.4-0.2,1c0,0.4,0,0.4,0,1c0.8,0,1.3,0.7,2.1,1.1c0.3-0.6,1.4-1.1,2.1-1.1c1,0,2.3,0.5,2.3,2.1
		c0,0.8,0,1.5,0,2.1c0.8,0.8,1.7,0.9,2.7,1.3c-0.4,0.8-1,0.8-1.5,0.8h-1.5c-0.2-0.2-0.6-0.2-0.6-0.8c-0.6,0.8-0.9,1.5-1.3,2.3h22
		c-0.4-0.8-0.8-1.3-0.9-1.7c-0.4-1.1-0.4-2.7-0.4-3.8l2.1-2.8c1.1,0,2.1-0.4,4.2-0.6c0.4-0.6,0-0.8,1.7-0.8c1.3,0,2.3,0.2,2.7,0.4
		c0.2,0.4,0.2,0.4,0,0.8c-0.4,0.4-1.1-0.4-1.7-0.2c-0.4,0.4,0.2,0.6,0.2,1c0.4,0.3-1.7-0.4-1.7-0.4s-0.4,1.1-0.6,1.5
		c0,0,0.8,0.8,1.1,1.1c0.4,0.6-0.6,1.1-0.6,1.7c-0.4-0.2-1.1-0.8-1.1-0.6c-0.4,1.5,0,2.9-0.2,4.4c0.8,0,1.3,0,2.1,0l0.2-3.2
		c0.2-1.9,2.5-5.3,3.8-5.3c0.8,0,1.3,0.4,1.9,0.8c0.3,0.7,1.2,1.1,1.2,1.5c0,0.4-0.5,0.6-1.4,0.6c-0.4,0-0.4-0.6-0.9-0.9l-1.1,1.1
		c0,0,1.3,1.1,1.3,1.9c0,0.9-0.2,1.3-0.8,1.9l-1.1-2.3c-0.6,0-1.5,1.1-1.5,1.7c0,0.8-0.4,1.1-0.4,2.3h11.6c1.3,0,2.5-0.4,3.8-1.1
		c0.8,0,1.3,0,2.3,0c4.7,0,8.3-1.3,11.8-4.8C280.8,58.9,283.5,51.6,283.5,44.7z M242.6,61.9l-1.9,0.2c0.8,0.4,0.8,1.3,0.8,1.5
		c0,0.6-0.4,1.1-0.8,1.5c-0.4-0.4-0.4-1-0.8-1.5c-0.4,0-0.6,1-0.6,1.3c0,1.7,0.8,3,1.3,4.2h1.7c-0.2-1.5-0.6-2.8-0.6-4.6
		C241.8,63.6,242.4,62.5,242.6,61.9z M217.7,64.2c0-0.8-0.6-0.9-1.3-0.9c-0.4,0-1.2,0.6-1.2,0.9c0,0.8-0.4,4.9-0.4,4.9h1.2
		C216.5,67.4,217.7,65.1,217.7,64.2z M213.7,64c-0.2,0,0.2,0.4-1.7-1.5c-0.4,0-1,1.1-1,1.5c0,1.5,0.4,3.6,1,5.1h1.5
		C213.5,67.4,213.7,65.5,213.7,64z M263.3,16.3c-0.4-0.8-1.1-1.2-1.7-1.2c-0.6-0.8-1.3-1.7-2.1-1.7c0.6,0,1.3-0.6,2.3-0.6
		c0.4,1,1.1,1.5,1.3,2.3L263.3,16.3z M257.6,12.3c-0.8,0-1.3,0-2.1,0c-0.4-0.6-1,0-1.3,0c-0.4,0-0.6,0-1.3-0.6c1.1,0,1.7-0.6,2.6-1
		C256.3,11.3,257.1,11.5,257.6,12.3z M253.1,33.9c-1.2-0.4-1.9-0.9-3.1-0.9c-0.4,0-2.1,0.6-2.3,0.9c-0.6-0.8,0.4-2.3,1.1-2.7
		c0.8-0.4,1.1-0.2,1.5,0c0,1.1,1.3,0.6,2,1C252.7,32.8,252.9,33.2,253.1,33.9z M252.9,36.7c-1.1,0-1.2-0.2-2-0.2
		c-1,0-2.1,0.3-2.7,1.3c-0.4-0.8-0.2-1.1,0-1.6c0.6-0.6,1.5-1.3,2.3-1.3C251.8,34.9,252.9,35.8,252.9,36.7z M257.2,40.9
		c-1.5-0.9-3.8-1.5-5.1-1.5c-0.7,0-3,1-3.7,1.7l-0.4-1.7c1.1-0.2,1.1-1.1,1.9-1.1c0.6,0,1.3-0.2,1.8-0.2c0.5,0,0.9-0.4,1.1-0.4
		c0.9,0,0.5,0.9,1.1,0.9c0.6,0,1-0.4,1.3-0.4C256.3,38.2,257.1,39.8,257.2,40.9z M257.8,45.1c-1.3,0-2.7-0.4-2.9-0.9
		c-0.4-0.4,0-1.1-1-1.1c-0.4,0-0.9,0.6-0.9,0.6c-0.4,0.2-1.4-0.6-1.4,0c0,0.9-0.7,1.3-1.7,1.3c-0.4,0-0.8,0-1.1-0.2
		c0-0.6,0-1.3,0-1.9c2.5,0,2.3-0.8,3.3-0.8c0.7,0,1.3,0.4,1.8,0.4c1,0,0.4-0.4,1.3-0.4c1,0,1.3,0.8,1.9,0.9
		C257.2,43.6,257.8,44.3,257.8,45.1z M256.1,49.2c-0.6-0.2-1.9-0.4-1.9-0.9c0-0.8-0.4-1-1.3-1c-0.7,0-1.2,0.2-2.3,0.6
		c0,0-0.6-0.8-0.8-1.5c0.4-0.2,1.9-0.6,2.6-0.6c1.3,0,2.6,0,2.6,0.6C255,47.1,256.1,47.3,256.1,49.2z M223.2,19.6
		c0,0.2-0.4,1.9-0.4,1.9l-1.5,0.4l0.9-4.1C222.6,18.4,223.2,19.2,223.2,19.6z M259.7,55.8c0,1.1,0,1.5-0.6,2.5l-1.1-1.7
		c0.4-0.6,0.4-1.3,1-2.3C259.1,54.3,259.7,55.6,259.7,55.8z M255.2,53.3c-1.3,0-0.6-2.7-3.3-2.7c-0.5,0-0.9,1-1.6,1.1
		c0-0.2,0.2-1.3,0.2-1.3c0-0.4,0.2-1.1,0.9-1.5c1.4,0,1.1,0.6,2.1,0.9c0.6,0.2,1,0.6,1.7,0.6L255.2,53.3L255.2,53.3z M243.3,42.6
		c-1.7-0.9-2.7-2.7-4.2-4.4c1.5,0,1.9,1.5,3,1.7c0.4,0.4,0.8,0.6,1.1,1.1C243.3,41.7,243.3,42,243.3,42.6z M227.1,28.6
		c-1.1,0-1.7-0.6-2.3-1.6c0-0.6-0.2-1.3,0-2.3c0.4,0.8,0.4,1.1,0.8,1.5c0.8-0.4,0.8,0.6,0.9,0.8C226.7,27.5,227.1,28.1,227.1,28.6z
		 M258.4,60.8c-0.4,0.6-0.4,0.6-0.6,1.1c0-0.9-1.1-1.5-1.9-3l0.8-1.3c0.6,0.4,1.3,1,1.3,1.9c0,0-0.2,0.4,0,0.8
		C258,60.4,258.4,60.4,258.4,60.8z M254.6,55.4c0,0.8-0.2,1-0.4,1.9c-1.3-0.2-1.3-1.7-1.5-1.9c-0.9-1.1-2.2-0.2-3.1-0.2
		c-0.4-1.1,0.2-1.1,0.2-1.9c0.6,0,1.1-0.4,1.7,0c0.9-0.4,1.4,0.6,2.3,0.6C254,54.3,254.4,55.3,254.6,55.4z M245,47.6
		c0,0.8-0.4,1.3-0.2,2.1c-0.4-1.1-1.1-2.3-1.5-3.4c0-0.2-0.2-0.2,0.2-0.4c0.2,0,0.9,0,0.9,0.2C244.7,46.5,245,47.1,245,47.6z
		 M228.5,32.8c-0.2,0.8-1,0-1.1,0c-0.6,0-1.3,0-1.7,0c-0.2-0.4-0.4-0.6-0.4-1c0.8-0.2,1.3-0.6,1.9-0.2
		C227.5,32.2,227.9,32.8,228.5,32.8z M232.6,37.1c-0.6,0.6-2.1,0.8-3.2-0.2l1.5-0.7C231.5,36.7,232.3,36.9,232.6,37.1z M242.4,47.8
		c0,1.1-0.2,2.5-0.2,3.8c-0.6,0-0.6-0.4-0.6-1.1c-0.2-1.1-0.6-2.1-1-3.2c-0.4-1.5-1.3-2.8-2.1-4.5c-0.2-0.8-1.1-1.1-1.9-1.7
		c0.9,0,1.9,0,2.7,0.8c0,0.4,0.2,0.6,0.8,1.1c1.3,0,0.9,1.7,2.1,2.5c-0.6,0.5-0.8,0.9-1.1,1.2C241.6,47.1,242.2,47.3,242.4,47.8z
		 M234.9,42.2c0,0.6-0.4,0.8-0.7,1.1c0,0-0.7-1-0.7-1.3c0-0.8,0-1.1,0.2-1.7C234.2,40.9,234.9,41.7,234.9,42.2z M252.7,59.4
		c0,0.1-0.4,0.4-0.4,0.4c-0.9-0.4-1.4-0.6-2.6-0.6c0-0.8-0.6-1.7-0.9-1.7c-1.1,0-1,0.8-1.9,0.8l1.7-1.7c0.2-0.4,0.2-0.4,0.6-0.4
		c0.6,0.4,0.8,0.6,1.3,0.6c0,0.4,0,0.6-0.2,1.1c0.6,0.4,0.9-0.2,1.3,0.4C252.2,58.5,252.7,58.7,252.7,59.4z M237.4,46.3
		c0,0.4-0.6,0.7-0.8,0.7c0,0-1-0.9-1.1-1.8c-0.2-0.8,0.6-2.1,0.6-2.1c0.2,0,0.4,0.4,0.6,0.4c0.2,0.2,0,0.8,0.2,1.3
		C237.4,45.3,237.8,45.9,237.4,46.3z M222.8,28.1c-2.3-1.3-4.8-2.2-7.5-2.4c0,0.6,0,1.1-0.2,1.3c2.2,1.1,4.3,2,6.2,3.7v1.7
		c-1.9-1.9-4-3.8-6.4-4.4c-0.2,0.4-0.9,0.8-1.1,1.5c-1.3-0.9-2.9-1.9-4.4-2.1c-0.6,0-1-2-1-2c1-0.4,1.5-1,1.9-1.9c0.2,0,0.6,0,0.8,0
		c0.6,0,0.6-0.4,0.6-0.9c0-1.1-2.5-1.1-3.6-1.1c-1.3,0-2.3,0-3.1,0.6c-0.4,0-0.2,0.6-0.2,1c0,0.2,0.6,0.6,0.6,0.6
		c0.4,0,0.8-0.4,1.1-0.4c-0.2,1.1,0.2,1.7,1.3,2.3l-0.2,1.8c-2.3,0-3.8,0.9-5.5,1.7c-0.6-0.4-1-0.9-1.3-1.5
		c-2.3,0.8-6.1,3.8-6.1,3.8s0-0.8,0-1.3c1.7-1.5,3.8-2.3,5.6-3.2v-1.3c-0.8-0.4-1.5,0-2.3,0c-1.6,0.2-3.3,0.9-4.4,1.8
		c0-0.5-0.2-1.3-0.2-1.3c2.1-1.1,4.6-2.1,7.1-1.7c0-0.2,0-0.8,0-0.8c-0.2-0.4-0.2-0.9-0.6-0.9c-1.1-1.1-2.3-2.9-2.3-4l0.8-0.4
		c-0.4-1.1-0.8-3.9,0-4.9c-1.1-0.6-2.1-1.5-2.5-2.3c-0.4-1-0.8-1.5-1-2.6c0.6-1.1,1-1.5,1.5-2.6c0.3,0,0.9-0.2,1-0.6
		c0.9-0.2,1.5-1.1,2.6-0.6c0.8,0,1.5,0.4,2.1,0.6c0,0.4,0,0.6,0.4,1c1.1,0,1.1,1.1,1.7,2.1c0.6,0.2,1.1,0.2,1.5,0.2
		c1.1,0.4,2.1,0.4,2.5,0.9c1.5-0.9,3-1.1,4.8-0.9c0.2-0.6,0.6-1.3,0.8-2.3c0.2,0.6,0.2,0,0.6,0c0.7-0.6,1.6-1.5,2.9-1.1
		c0.8,0.6,2.1,0.2,2.9,1.1c0.6,0.7,1,1.9,1.5,2.8c-0.6,1.1,0,2.6-1.1,3.2l-1.1,1.1c-0.4,0-0.4,0.4-0.9,0.4c0.6,1.3,0.2,3.2-0.4,4.5
		c0.4-0.2,0.9-0.2,0.9-0.7c0.2,0.2,0,0.5,0,0.7c0,0.4,0,0.6,0,0.6c0,1-0.6,1.9-1.3,2.7c-0.4,1.1-1.3,2.7-2.6,2.9v0.4
		c2.8,0,5,0.8,7.7,2.1L222.8,28.1L222.8,28.1z M230.6,39.9l-1,0.4c-2.1,0-3-0.6-4-1.3c0.8,0,1.7-1,1.7-1
		C228.3,39,229.6,39.8,230.6,39.9z M225.2,35.7c-1.1,0-2.4,0.6-3-0.6c0.4-0.2,0.8-0.8,1.1-1.1L225.2,35.7z M240.7,53.3
		c0,1-1.1,2.1-1.5,2.9c0.4-0.9,0.4-2.9,0-2.9c-0.4-0.2-1.1,0-1.1-0.4c0-0.6,0.2-1.3,0.2-1.7c0-0.8-0.6-1.1-0.6-1.5
		c0-1.1,1.3-1.3,1.7-2.1c0.2,0.8,0.2,1.5,0.2,2.5c0,0.4,0.6,1.5,0,2.5C239.5,53.2,240.7,52.8,240.7,53.3z M236.3,51.3
		c0,1.1-0.8,2.1-0.9,3.2c0-1.1-0.2-2.1-0.9-2.9c0-0.4,0.5-0.4,0.2-1c0,0-1.1-0.6-1.1-1.3c0-0.8,0.7-1.3,1.1-1.9
		c0-0.2,0.8,0.4,0.8,1.5c0,0.2,0,0.8-0.2,1.1C234.9,50.7,236.3,50.7,236.3,51.3z M220.7,37.8c-0.9,0.2-1.7-0.8-2.7-1.1
		c-0.4-1-0.4-2.2-0.8-2.8c0.8,0.6,2.5,0.6,2.1,2.3C219.4,36.7,220.2,37.1,220.7,37.8z M226,43.2c-0.8,0-2,0-2.8-0.6
		c-1.1-0.6-1.5-0.9-2.1-1.5c0.8-0.6,1.7-0.6,2.1-0.8C224,41.1,224.7,42.4,226,43.2z M194.2,14l-1.3,0.4l0.2-1
		c0.4-0.6,0.6-1.1,1.1-1.7L194.2,14L194.2,14z M218.4,40.3c-0.8,0.2-2.1,0.6-2.5-0.4c-1-1.7-0.5-3.2,0-4.5c0.4,1.1,0.6,2.2,0.7,3.1
		C216.9,39.4,218.1,39.8,218.4,40.3z M213.1,30c-0.2,1.1-0.6,2.9-1.7,3.6c0-0.8-0.4-1.1-0.8-1.7c-0.2,0,0,0.6-0.2,0.6
		c0,0.4-0.4,1.1-0.4,1.9c-0.4,0.2-1.2,0.6-1.9,0.2v-0.6c-0.2-0.4-0.2-1.1-0.2-1.5l-0.2-0.2c-0.6,0.2-0.6,0.6-0.6,0.9
		c-0.2,0.4-0.6,0.8-0.6,1.3c-0.8,0-1.1-0.2-1.7-0.6v-1.7c0-0.4,0-0.4-0.2-0.4l-1,1c-0.8-0.6-1-2.1-1-3c3.1-1.7,6.9-1.1,9.1-0.2
		C212.3,29.8,212.7,29.8,213.1,30z M222.8,45.3c0,0-0.4,0-0.6,0c-2.1,0.7-3.8-0.6-5.5-1.7c1-0.4,2.3-0.6,3.4-0.6l0.6,1.1
		C221.3,44.3,222.2,44.9,222.8,45.3z M194.6,16.6l-1,1.2c0.2,1.8-0.6,3.2-0.6,4.9l-1-3c0.2-0.8,0.4-1.5,1-2.4L194.6,16.6z M214,41.1
		c-1-0.6-2.7-0.8-2.3-1.9c0.4-1,1-1.1,1.3-1.5C213.3,39,213.5,39.9,214,41.1z M231.5,60.4h-0.2c-0.4-0.6-0.6-1-1-1
		c0.6-2.1-0.6-3.8-0.9-5.5v-0.6c0.6,1,2.1,1.9,1.9,2.9C231.5,57.9,231.5,59.4,231.5,60.4z M227.1,53.3c-1,0-1.7,0-2.3-1
		c-0.2,0-0.5-0.6-0.7-0.2c-0.9,0.8-1.9-0.6-3-0.4c-0.6,0.6-1.1,1-2.1,1.1v-0.2c0-0.6,0.4-1.1,1.1-1.5c1.1,0.4,2.1-2.1,3.2-0.8
		c0.6,0.2,1.1,0.2,1.4,0.2C226.2,51.3,226.6,52.4,227.1,53.3z M209.9,38c0,1.3-0.2,3-1.5,3.6l-0.4-1.9C208.5,39.4,209.1,39,209.9,38
		z M216.2,46.3c-0.4,0.4-1.4,0.7-2.1,0.7c-1.1-0.9-1.9-2-3-3.5l3,0.6C214.6,44.5,215.6,45.8,216.2,46.3z M227.5,57.2
		c-0.8-0.6-1.9-0.6-2.3-1.5c-0.7-0.2-1.3-0.2-2.2-0.2c-0.8,0.2-1.7,0.2-2.5,0.2c-0.2,0,0-0.2-0.4-0.4c-1.1,0.4-2.3,0.4-3.4,1.5
		l1-2.3c0.8,0,1.3-0.4,1.7-0.4c0.8-0.2,1.3-0.2,1.9-0.2v0.2c2.1,0,4.5-0.2,6,1.5L227.5,57.2z M205.9,41.1c-1.1-1.1-2.1-2.1-2.1-3.2
		c0.6,0,1.1,0,1.7,0.4C205.5,39.2,205.9,39.9,205.9,41.1z M202.2,35.7l-0.6,2.4c-0.6-1.1-1.1-2.2-1.3-3.5L202.2,35.7z M229.4,61
		c-0.2,0.4-0.6,1.5-0.8,2.3c-0.4-1.1-0.8-2.8-2.1-2.8c-0.2-0.8-0.4-1-1.1-1.5l-1.5-0.2c0.2,0.8,1.3,0.8,0.5,1.7
		c0.7,0.6,1.3,0.6,1.7,1.5c0.4,0.6,0,1.3,0.2,1.7l-1.1,0.6c0-0.9,0.2-2.8-1.1-3.2c-1.1,0.4-1.3-1.1-2.1-1.6c-0.4,0-0.4-0.9-0.9-0.6
		c-1,0.6-2.1,0-3,0.6l0.9-1.5c0.8-0.6,1.5-0.4,2.3-0.6l1.5-0.2c1.5,0,2.8,0.8,4.3,1.3c0.8,0.4,1.1,0.9,1.1,1.7
		C228.6,60.4,229.4,60.4,229.4,61z M214.4,52.2H214c-0.2,0-1.5-0.6-1.9-0.9c-0.2-0.6-0.2-1.1-0.2-1.1c0.6,0,0.9,0,1.5,0L214.4,52.2z
		 M199.8,38.6c-1.1-0.4-2.4-1.5-3-2.4c-0.3-0.8-0.5-1.7-0.5-2.3c0.7,0,1.2,0.6,1.4,0.9v0.2C198.6,36.2,199.6,37.1,199.8,38.6z
		 M208.9,45.3c-0.2,1.1-0.8,1.4-1.7,2.8c-0.6,0.4-1.7,0.6-2.8,1.1c0.2-0.6,0.7-0.8,1.1-1.3c0.4-0.6,1.1-1.5,1.3-2.1
		C207.8,45.3,208.1,45.3,208.9,45.3z M222.8,63.6l-0.6,0.6c-0.6-0.6-0.2-2.1-1.1-2.3c-1,0-1.7-0.9-2.1-1.1l0.8-0.4
		c0,0,0.4-0.2,0.8,0c0.4,0.4,0.8,0.6,0.8,1c0.4,0.5,0.9,0,1.3,0.5C222.8,62.5,223,63.2,222.8,63.6z M205.5,43.7
		c-0.6,1.1-1.1,2.2-2.3,2.6c-0.6,0-1.5,0.4-2.7,0c0.6-0.4,1.1-0.6,1.9-1.1l1.5-1.5H205.5z M209.3,52.4c-0.8,0.6-1.3,0.6-2.3,0.4
		l-1.1-1.5c0.9,0,2.1,0,2.9,0L209.3,52.4z M195.6,38c-1,1-1.9,1.3-2.3,2.5c0-0.6-0.2-1.1-0.4-1.5c0.2-0.8,0.8-1.1,0.9-1.3
		C194.4,37.8,194.8,37.8,195.6,38z M197.7,40.9c0,0.8-0.3,1.7-1.2,2.7c-0.2,0.2-0.7,0.6-0.7,0.6c0-1.1,0.5-2.1,0.5-3.1
		C196.8,40.9,197.3,40.5,197.7,40.9z M200.3,43.2l-0.8,2.8c-1,0.7-2.2,0.4-3.3,0.4c1.4-0.4,2.5-2,3.3-3.2
		C199.8,43,200,43.2,200.3,43.2z M201.3,52.8c0,0.6-0.2,2.8-0.2,2.8c-0.4-1.3-1.3-2.7-2.5-2.7c-0.6-0.6-1.1-1.1-1.3-1.7
		c-0.5-0.6-1,0-1.8-0.6c-0.8,0-1.7,0-2.5,0.6v-0.6l1.3-1.5c1.3,0.2,2.9,0,3.3,1c0.9,0.6,1.9,1.1,2.1,1.5c0,0.2,0,0.2,0,0.6
		C200.1,52.4,200.9,52.6,201.3,52.8z M200.3,58.7l-1.3,1.2c-0.4-0.4,0-1.4-0.6-1.9c0-0.4,0.4-0.6,0.2-0.8c-0.2-0.4-2.3-1.1-2.3-1.1
		c-0.7-0.6-1.7-1.2-2.5-1.9c-0.8-0.2-1.3,0.2-2.3,0.4c0-0.2,0-0.4,0-0.4c0.4-0.8,0.4-1.7,1.5-1.7c0.6,0,1.3,0,1.7,0.6
		c0.8,0,1.1,0.8,1.7,1c0.9,0.9,1.6,1.3,2.2,1.7c0,0.6,0.2,1,0.6,1.1C200.3,56.8,200,57.9,200.3,58.7z M197.5,61.4l-0.5,1.9l-1.2-3.4
		c-1.5-1.4-3.2-1.5-4.2-2.3c-0.8-0.2-0.8,0.4-1.1,0c0-0.4,0-0.9,0.6-1.5h1.1l1.1,0.6c0.6,0.6,1.9,0.6,1.9,1.7c0,0.2-0.2,0.4,0.4,1.1
		l1.8,0.4L197.5,61.4z M192.3,63.2c0,1.5-2.5,3.6-2.5,3.6c0-0.9,0.6-2.1,0.6-3.2c0,0-0.8-0.8-1.5-0.8c-0.6,0.4-0.6,0.8-0.8,1.3
		c-0.6,1.1-1.7,2.3-1.9,3.4c-0.2,0-0.2-0.2-0.2-0.2c0-1.9,0.2-5.1,1.3-6.4c1-1.1,1.7-1.1,2.9-1.3l1,0.2l-0.8,1.1
		C191.2,61.4,192.3,62.1,192.3,63.2z M185.6,62.1c0,0.8-0.2,1.5-0.6,2.1c-0.2-0.8-0.7-1.7-1.6-1.7c-0.8,1.5-0.9,2.1-0.2,4.4
		c-0.6,0.6-1,0.8-1.7,1.1c-0.4-0.8-0.4-2.1-0.4-2.9c0-1.3,0.2-2.7,0.6-3.8c0.6-0.6,1-1.5,1.5-1.9h2c-0.9,0-0.9,0.8-0.9,1.4
		C184.9,61,185.6,61.2,185.6,62.1z M180.8,64.2c-0.2,0-0.8-0.6-1.3-0.6c-0.5,1.1,0,1.9,0,3.2c0,0.6-0.2,1.1-0.2,1.1
		c-0.3,0-1-0.8-1.2-1.5v-3l1.6-2.1C180.8,62.1,181.2,63.2,180.8,64.2z M219.8,11.7c0.4-1,0.4-2.6-0.4-3.5c-0.4-0.8-1.3-1.1-2.3-1.9
		L215.8,7c-0.7,0.4-1,1.1-1,2c1.2,0.5,2.5,2.1,3.1,3.2h0.6C219,11.7,219.4,12.3,219.8,11.7z M213.5,12.8c0-0.6-0.2-0.6-0.4-0.6
		c-1,0-1-1.5-1.7-1.1c-0.4,0-0.8-0.4-1.3,0c0,0.2,0,0.2,0.4,0.2c0.9,0,0.6,1.3,1.3,1.5C212.1,12.8,212.9,12.8,213.5,12.8z
		 M216.4,15.1c0,0,0.4,0,0-0.2l-4-0.6c-0.4,0.6-1.3,0.6-1.3,1.1h-0.4c0.4,1.5,0.4,3.1,0.4,4.9c0.8,0.2,1.5,0.6,1.5,1.7
		c0.8,0.4,1.5,0.6,2.2,1.1c0.4-0.2,0.5-0.8,0.7-1.3c-0.7-1-2.4-0.4-2.4-2.1l-1.1-0.4c0-1.1,0-2.2-0.2-3l0.2-0.1
		c0,0.1,0.2,0.3,0.6,0.7c0.8,0,1.5,0.2,2.2-0.4c0.4-0.2,0.4-1.1,0.7-1.1C215.8,15.5,216.2,15.5,216.4,15.1z M207,11.1
		c-0.4-0.4-1.5,0.2-2.1,0.4c-0.8,0.2-1.3,0.8-1.3,1.3h2.1C205.9,12.3,206.6,11.5,207,11.1z M202.8,9.1c-0.2-1.8-2.3-2-3.2-2.8h-0.8
		c-1.5,0.6-1.8,2.1-2,3.3c0.5,1.7,1.6,0.6,2.4,1.7C200,10.7,201.9,9.4,202.8,9.1z M214,26.4v-0.9h-1.9l-0.2,0.2L214,26.4z
		 M205.5,15.5c0-0.4-0.4-0.8-0.9-1.1c-1.5,0-2.9,0-4.2,0H200c0,0.8,0.6,1.1,1.1,1.1c0,0.8,0.6,0.9,0.8,1.1c0.6,0.4,0.8,0.4,1.3,0
		c0.6,0.4,0.8-0.3,1,0c0,1.2,0,1.7-0.2,2.6c-0.2,1.3-1.3,1.1-2.3,1.7c0,0.6-0.6,1.5,0,2.1c0.6-0.4,1-0.6,1.9-1
		c0-0.6,0.6-1.1,1.3-1.5C204.9,18.8,205.5,17.2,205.5,15.5z M204,25.5c-0.4-0.8-1.3,0-2.3-0.4c0,0.4,0,0.8,0.6,1.1
		C202.8,25.7,203.8,25.5,204,25.5z"/>
</g>
</svg>
