<?xml version="1.0" encoding="UTF-8"?> <!-- Generator: Adobe Illustrator 24.0.3, SVG Export Plug-In . SVG Version: 6.00 Build 0) --> <svg xmlns="http://www.w3.org/2000/svg" xmlns:xlink="http://www.w3.org/1999/xlink" version="1.1" id="Layer_1" x="0px" y="0px" viewBox="0 0 180 26" style="enable-background:new 0 0 180 26;" xml:space="preserve"> <style type="text/css"> .st0{fill:#130C0E;} </style> <g> <path class="st0" d="M113.1,4.4C113.1,4.4,113,4.4,113.1,4.4c-1-2.4-3.2-3.9-5.7-3.9c-2.5,0-4.8,1.5-5.7,3.9c0,0,0,0,0,0.1 l-6.4,17.7C95,22.5,95,23,95.1,23.4c0.2,1.1,1.2,1.9,2.3,1.9h8.8c1.3,0,1.7-1.6,0.6-2.3l-5.8-3.2l5-13.8c0.2-0.5,0.7-0.8,1.3-0.8 c0.6,0,1.1,0.3,1.3,0.9l6.3,17.6c0.3,0.9,1.2,1.6,2.2,1.6c0.3,0,0.5,0,0.8-0.1c1.2-0.4,1.9-1.8,1.4-3L113.1,4.4z"></path> <path class="st0" d="M92.2,1.4H74.5c-1.3,0-2.4,1-2.4,2.4s1.1,2.4,2.4,2.4H81v16.7c0,1.3,1,2.4,2.4,2.4c1.3,0,2.4-1,2.4-2.4V6.1 h6.5c1.3,0,2.4-1,2.4-2.4S93.5,1.4,92.2,1.4z"></path> <path class="st0" d="M147,0.5c-1.3,0-2.4,1.1-2.4,2.4v17.5h-1c-0.2,0-0.4-0.1-0.4-0.2l-8-16.4C134.4,2,132.5,1,130.5,1h-3 c-1.3,0-2.5,0.9-2.5,2.2v19.8c0,1.3,1.1,2.4,2.4,2.4s2.4-1.1,2.4-2.4V5.7h0.7c0.2,0,0.4,0.1,0.4,0.2l8,16.6c0.9,1.8,2.7,3,4.7,3 h3.3c1.3,0,2.5-1.3,2.5-2.6v-20C149.4,1.6,148.3,0.5,147,0.5z"></path> <path class="st0" d="M12,22.5C10.8,21.8,9.3,21,9.3,21V5.7c0,0,1.1-0.6,2.1-1.2s1.1-2.2,0.1-3c-0.3-0.2-0.6-0.3-0.9-0.3H3.3 c-0.3,0-0.6,0.1-0.9,0.3c-1,0.8-0.9,2.5,0.1,3s2.1,1.2,2.1,1.2v15.2H2.9c-1.2,0-2.2,1.1-2.2,2.3c0,1.2,1,2.3,2.2,2.3 c0,0,8.6,0,8.7,0C13,25.5,13.4,23.3,12,22.5z"></path> <path class="st0" d="M172.8,4.4C172.8,4.4,172.8,4.4,172.8,4.4c-1-2.4-3.2-3.9-5.7-3.9c-2.5,0-4.8,1.5-5.7,3.9c0,0,0,0,0,0.1 L155,22.1c-0.2,0.4-0.2,0.9-0.1,1.3c0.2,1.1,1.2,1.9,2.3,1.9h8.8c1.3,0,1.7-1.6,0.6-2.3l-5.8-3.2l5-13.8c0.2-0.5,0.7-0.8,1.3-0.8 c0.6,0,1.1,0.3,1.3,0.9l6.3,17.6c0.3,0.9,1.2,1.6,2.2,1.6c0.3,0,0.5,0,0.8-0.1c1.2-0.4,1.9-1.8,1.4-3L172.8,4.4z"></path> <path class="st0" d="M40.6,1c-1.3,0-2.4,1.1-2.4,2.4v17.1h-1c-0.2,0-0.4-0.1-0.4-0.2l-8-16.4C27.9,2,26.1,1,24.1,1h-3 c-1.3,0-2.5,0.9-2.5,2.2v19.8c0,1.3,1.1,2.4,2.4,2.4s2.4-1.1,2.4-2.4V5.7h0.7c0.2,0,0.4,0.1,0.4,0.2l8,16.6c0.9,1.8,2.7,3,4.7,3 h3.3c1.3,0,2.4-1.3,2.4-2.6V3.4C42.9,2.1,41.9,1,40.6,1z"></path> <path class="st0" d="M64.6,13.2l-8.5-3.9C55,8.8,53.8,8,53.8,6.9c0-0.8,0.7-1.5,1.5-1.5h7.5c0.5,0,1.1,0.2,1.3,0.9 c0.4,1,1.2,1.5,2.1,1.5c0.2,0,0.5,0,0.7-0.1c0.6-0.2,1-0.6,1.3-1.1c0.3-0.5,0.3-1.1,0.1-1.7c-0.9-2.7-2.8-4-5.6-4h-7.5 c-3.3,0-5.9,2.7-5.9,5.9c0,2.8,1.8,5,5,6.4l8.5,3.9c0.5,0.2,2.3,1,2.3,2.3c0,0.8-0.7,1.5-1.5,1.5l-9.2,0c-0.6,0-1.3-0.4-1.5-1 c-0.3-0.9-1.2-1.5-2.1-1.5c-0.2,0-0.5,0-0.7,0.1c-0.6,0.2-1,0.6-1.3,1.1c-0.3,0.5-0.3,1.1-0.1,1.7c0.7,2.6,2.8,4.1,5.8,4.1l9.2,0 c3.3,0,5.9-2.7,5.9-5.9C69.6,16.8,67.8,14.5,64.6,13.2z"></path> </g> </svg> 