<svg xmlns="http://www.w3.org/2000/svg" version="1.0" width="2560.000000" height="1440.000000" preserveAspectRatio="xMidYMid meet"><rect id="backgroundrect" width="100%" height="100%" x="0" y="0" fill="none" stroke="none"/>


<g class="currentLayer" style=""><title>Layer 1</title><g transform="translate(0,1440) scale(0.10000000149011612,-0.10000000149011612) " fill="#1e88e5" stroke="none" id="svg_1" class="selected" fill-opacity="1">
<path d="M9026 9501 c-3 -4 -20 -11 -37 -15 -18 -3 -47 -18 -66 -32 -68 -52 -63 58 -60 -1441 2 -1357 6 -1508 37 -1565 6 -10 10 -29 10 -42 0 -14 5 -28 10 -31 6 -3 10 -19 10 -35 0 -16 4 -31 9 -34 5 -3 12 -22 16 -42 3 -20 10 -44 15 -53 4 -9 32 -65 61 -126 29 -60 57 -111 61 -113 4 -2 8 -8 8 -12 0 -17 88 -135 142 -190 90 -93 218 -199 333 -274 112 -74 269 -156 298 -156 9 0 19 -4 22 -10 3 -5 17 -10 30 -10 13 0 26 -4 29 -9 3 -5 18 -11 33 -14 16 -3 39 -8 53 -11 74 -19 202 -30 340 -30 187 -1 331 18 425 54 11 4 47 16 80 26 33 10 64 22 69 26 6 4 18 8 28 8 10 0 18 5 18 10 0 6 7 10 15 10 54 0 342 201 480 335 45 43 150 175 196 245 57 87 139 249 139 275 0 7 5 17 10 20 6 3 10 16 10 29 0 12 4 26 9 32 8 9 22 69 44 184 13 72 13 480 0 545 -32 156 -38 175 -64 227 -5 10 -9 23 -9 29 0 12 -17 53 -58 139 -32 67 -157 258 -208 320 -65 78 -178 183 -260 242 -99 71 -243 158 -261 158 -7 0 -13 5 -13 10 0 6 -9 10 -19 10 -11 0 -22 4 -26 9 -3 5 -20 13 -37 17 -18 3 -39 10 -48 14 -41 21 -71 30 -135 45 -38 9 -79 19 -90 22 -117 33 -411 33 -570 -2 -130 -28 -182 -43 -227 -66 -10 -5 -23 -9 -30 -9 -38 0 -304 -152 -388 -222 -19 -16 -40 -32 -45 -36 -6 -4 -34 -28 -64 -54 -29 -27 -57 -48 -62 -48 -5 0 -9 317 -9 749 0 738 0 750 -21 788 -11 21 -35 48 -52 60 -60 41 -167 67 -181 44z m1554 -1622 c25 -5 64 -12 88 -16 23 -3 45 -10 48 -14 3 -5 15 -9 27 -9 23 0 129 -49 135 -62 2 -5 8 -8 13 -8 11 0 159 -92 197 -122 35 -29 191 -185 220 -221 12 -15 22 -32 22 -37 0 -6 4 -10 8 -10 8 0 82 -142 102 -195 52 -135 63 -213 57 -428 -2 -107 -10 -210 -17 -232 -6 -22 -17 -58 -23 -80 -6 -22 -17 -51 -24 -65 -7 -14 -13 -28 -13 -32 0 -4 -16 -32 -35 -62 -19 -30 -35 -59 -35 -64 0 -4 -8 -17 -17 -28 -10 -10 -31 -39 -46 -62 -41 -63 -209 -232 -264 -267 -27 -16 -50 -32 -53 -35 -10 -12 -157 -80 -210 -96 -30 -9 -64 -21 -75 -25 -45 -17 -129 -24 -290 -23 -173 1 -271 10 -281 25 -3 5 -16 9 -28 9 -48 0 -181 63 -306 146 -210 138 -367 325 -435 519 -9 28 -21 59 -25 70 -9 22 -17 56 -30 130 -12 69 -11 329 1 390 6 28 13 65 16 83 3 18 9 35 14 38 5 3 9 16 9 29 0 32 89 200 158 299 73 104 213 244 301 301 38 25 74 45 80 45 6 0 11 5 11 10 0 6 9 10 19 10 11 0 22 4 25 9 3 4 27 16 53 25 26 10 57 21 68 26 11 4 47 13 80 20 33 7 65 14 70 15 25 8 345 3 385 -6z" id="svg_2" fill="#1e88e5"/>
<path d="M22586 9486 c-27 -16 -48 -39 -64 -72 -14 -27 -29 -57 -33 -66 -12 -24 -12 -3913 0 -3936 5 -9 17 -34 27 -55 22 -45 67 -87 94 -87 10 0 22 -4 25 -10 3 -5 24 -10 45 -10 21 0 42 5 45 10 3 6 16 10 28 10 38 0 101 44 124 85 l21 40 1 797 c1 438 5 799 9 802 5 3 12 45 15 93 3 49 11 102 18 118 60 147 88 202 148 292 96 142 222 258 336 307 181 78 194 81 405 81 215 0 246 -6 385 -71 251 -119 444 -323 513 -544 11 -36 26 -83 33 -105 10 -31 14 -234 16 -890 l4 -850 24 -51 c14 -27 35 -59 47 -71 52 -46 133 -67 176 -44 9 6 29 12 44 16 38 7 96 60 113 103 13 29 15 164 15 883 0 494 -4 867 -9 891 -6 24 -17 77 -26 118 -16 71 -26 103 -46 142 -5 10 -9 23 -9 29 0 44 -131 265 -221 375 -43 52 -193 199 -239 235 -80 63 -225 145 -320 182 -14 5 -34 13 -45 18 -40 16 -134 39 -158 39 -14 0 -29 5 -32 10 -3 6 -34 10 -69 10 -34 0 -67 5 -73 11 -18 18 -279 -1 -398 -29 -117 -27 -167 -45 -290 -103 -66 -32 -250 -146 -277 -172 -27 -27 -76 -56 -82 -50 -3 3 -6 323 -6 710 0 651 -1 706 -17 731 -10 15 -22 32 -28 37 -20 19 -73 45 -93 45 -12 0 -24 5 -27 10 -12 19 -108 10 -149 -14z" id="svg_3" fill="#1e88e5"/>
<path d="M14318 9368 c-39 -22 -88 -101 -88 -143 0 -13 -4 -27 -10 -30 -6 -4 -10 -179 -10 -491 l0 -485 -212 2 c-125 0 -224 -3 -239 -9 -59 -23 -101 -88 -114 -173 -10 -66 8 -120 53 -160 72 -64 67 -63 299 -60 l213 3 4 -899 c4 -987 7 -1036 68 -1157 11 -22 28 -56 36 -73 9 -18 20 -33 24 -33 4 0 8 -5 8 -10 0 -18 81 -122 141 -181 83 -82 124 -108 284 -180 43 -19 158 -32 334 -36 197 -5 224 0 279 51 69 62 81 192 26 277 -16 24 -35 49 -43 55 -29 23 -104 33 -281 37 -212 6 -236 13 -320 98 -54 54 -58 61 -88 119 -46 92 -46 98 -49 1038 l-3 892 298 0 298 0 46 29 c70 44 99 89 101 154 2 92 -75 215 -136 218 -12 1 -154 0 -314 -1 l-293 -2 0 504 c0 403 -3 511 -14 543 -17 47 -67 92 -113 101 -18 3 -36 10 -39 15 -10 17 -108 8 -146 -13z" id="svg_4" fill="#1e88e5"/>
<path d="M12744 9060 c-68 -30 -123 -119 -124 -201 0 -22 12 -60 30 -95 59 -111 114 -134 242 -98 33 10 73 30 95 49 l38 33 0 111 c0 111 0 111 -30 139 -45 41 -139 82 -184 81 -14 0 -45 -9 -67 -19z" id="svg_5" fill="#1e88e5"/>
<path d="M12745 8291 c-45 -20 -62 -38 -96 -96 l-24 -40 -3 -1360 c-2 -1245 -1 -1364 14 -1405 18 -50 79 -120 104 -120 9 0 21 -5 27 -11 12 -12 61 -8 127 9 44 12 105 58 123 93 10 19 12 326 10 1430 l-2 1406 -30 29 c-16 16 -50 38 -75 48 -25 10 -53 22 -62 27 -27 14 -68 10 -113 -10z" id="svg_6" fill="#1e88e5"/>
<path d="M17093 8271 c-56 -9 -105 -19 -109 -23 -4 -5 -20 -8 -35 -8 -15 0 -30 -4 -33 -9 -3 -4 -24 -11 -46 -15 -40 -6 -50 -10 -97 -34 -13 -7 -27 -12 -33 -12 -34 0 -286 -141 -320 -179 -3 -4 -37 -32 -77 -64 -130 -105 -315 -317 -354 -407 -8 -16 -17 -30 -21 -30 -5 0 -8 -6 -8 -12 0 -7 -11 -34 -24 -60 -13 -26 -36 -80 -51 -120 -15 -40 -30 -82 -35 -93 -9 -21 -24 -98 -43 -220 -14 -89 -14 -329 1 -420 19 -123 33 -190 42 -207 6 -10 10 -27 10 -37 0 -11 4 -22 9 -25 4 -3 11 -19 14 -35 9 -44 110 -262 132 -285 6 -6 28 -36 50 -66 128 -180 287 -332 460 -442 93 -58 239 -128 268 -128 9 0 19 -4 22 -10 3 -5 17 -10 30 -10 13 0 26 -4 29 -9 3 -5 20 -11 38 -14 18 -3 44 -8 58 -11 122 -30 392 -39 525 -18 109 18 188 34 250 52 22 6 58 15 80 21 47 11 55 14 156 63 102 48 165 105 180 159 15 55 6 157 -16 194 -47 80 -195 108 -304 57 -90 -42 -126 -56 -198 -78 -28 -9 -61 -16 -72 -16 -11 0 -22 -4 -25 -9 -21 -33 -393 -34 -471 -1 -11 5 -31 11 -45 14 -47 9 -115 28 -140 38 -38 16 -122 60 -130 68 -3 3 -24 18 -48 33 -92 60 -224 190 -280 276 -20 31 -40 58 -43 61 -12 10 -97 195 -108 235 -6 22 -7 43 -3 47 4 4 552 9 1218 10 l1211 3 34 26 c61 47 81 99 86 224 5 126 -18 359 -38 380 -5 5 -9 19 -9 30 0 20 -21 95 -40 140 -50 122 -59 141 -97 203 -18 29 -33 55 -33 58 0 5 -44 65 -122 169 -26 34 -210 220 -248 250 -64 50 -100 75 -109 75 -6 0 -11 4 -11 9 0 5 -8 11 -17 14 -10 4 -54 26 -98 51 -44 25 -88 46 -97 46 -10 0 -18 5 -18 10 0 6 -8 10 -18 10 -10 0 -22 3 -26 7 -4 5 -29 13 -54 20 -26 6 -65 17 -87 23 -77 23 -301 49 -405 48 -58 0 -151 -8 -207 -17z m444 -442 c89 -21 148 -40 201 -65 29 -13 57 -24 62 -24 6 0 10 -3 10 -7 0 -5 18 -16 39 -27 72 -34 229 -159 290 -231 28 -33 149 -227 172 -275 55 -116 75 -183 82 -270 l2 -25 -1080 0 -1080 0 3 35 c2 36 18 99 33 135 4 11 11 31 15 45 41 148 203 375 353 494 62 49 175 126 186 126 3 0 28 11 57 25 28 14 60 25 69 25 10 0 20 4 24 10 3 5 33 12 66 16 32 4 62 11 65 15 8 13 376 11 431 -2z" id="svg_7" fill="#1e88e5"/>
<path d="M20575 8270 c-60 -10 -126 -23 -145 -28 -19 -6 -53 -16 -75 -22 -22 -6 -51 -16 -65 -22 -14 -6 -34 -14 -45 -18 -92 -35 -243 -118 -355 -197 -125 -88 -330 -318 -412 -461 -37 -64 -98 -190 -98 -201 0 -6 -4 -19 -9 -29 -27 -53 -50 -130 -58 -197 -3 -22 -10 -46 -17 -54 -15 -20 -16 -512 0 -532 7 -8 14 -30 17 -49 13 -85 32 -151 58 -202 5 -10 9 -23 9 -30 0 -16 102 -222 112 -226 4 -2 8 -8 8 -14 0 -5 24 -47 54 -91 94 -143 272 -305 471 -429 97 -60 234 -128 258 -128 9 0 18 -4 21 -9 3 -5 16 -11 28 -14 13 -3 50 -12 83 -22 227 -62 669 -49 832 26 24 10 46 19 49 19 3 0 22 7 42 16 21 9 46 20 57 24 76 30 215 104 295 156 150 98 200 163 200 259 0 29 -4 57 -10 60 -5 3 -10 15 -10 25 0 11 -19 40 -43 65 l-44 45 -82 0 c-93 0 -126 -12 -189 -66 -22 -19 -45 -34 -50 -34 -6 0 -12 -3 -14 -7 -9 -22 -180 -117 -263 -147 -27 -9 -59 -21 -70 -26 -75 -30 -118 -35 -310 -35 -136 0 -214 4 -245 13 -133 39 -210 68 -257 99 -28 18 -55 33 -59 33 -10 0 -101 67 -191 142 -122 101 -226 250 -303 433 -46 108 -68 382 -42 520 27 148 35 181 43 190 5 5 9 16 9 25 0 28 55 131 128 241 121 180 281 324 441 396 31 13 63 29 72 33 9 5 34 12 55 16 22 3 44 10 49 14 33 24 427 34 515 12 25 -6 65 -15 90 -21 25 -6 54 -15 65 -20 11 -5 38 -16 60 -26 55 -23 89 -39 95 -45 15 -17 151 -110 160 -110 5 0 10 -4 10 -9 0 -5 26 -22 58 -37 31 -16 59 -32 60 -36 7 -15 138 -8 170 8 58 28 102 112 102 194 0 66 -18 109 -61 142 -17 12 -51 39 -75 58 -72 58 -96 75 -165 118 -36 23 -71 42 -78 42 -6 0 -11 3 -11 8 0 4 -15 13 -32 21 -81 35 -144 63 -160 72 -9 5 -35 12 -58 15 -22 4 -43 11 -46 15 -3 5 -14 9 -25 9 -10 0 -27 4 -37 9 -30 16 -253 41 -357 40 -55 -1 -149 -9 -210 -19z" id="svg_8" fill="#1e88e5"/>
<path d="M6500 8259 c-112 -12 -164 -20 -175 -29 -5 -4 -31 -11 -57 -14 -26 -4 -50 -11 -53 -17 -4 -5 -17 -9 -30 -9 -13 0 -27 -4 -30 -10 -3 -5 -13 -10 -21 -10 -44 0 -321 -159 -419 -240 -47 -40 -187 -183 -221 -226 -93 -118 -215 -338 -230 -414 -4 -17 -11 -33 -15 -36 -5 -3 -9 -15 -9 -28 0 -12 -4 -26 -9 -31 -8 -10 -24 -77 -44 -190 -12 -69 -15 -398 -3 -465 18 -107 53 -246 67 -265 4 -5 10 -25 14 -43 11 -51 117 -253 180 -342 68 -96 203 -236 300 -312 78 -60 199 -138 215 -138 5 0 10 -4 10 -10 0 -5 4 -10 10 -10 5 0 35 -12 67 -26 79 -35 90 -40 153 -60 30 -9 62 -19 70 -22 108 -39 365 -59 549 -44 77 7 152 17 166 22 15 6 40 10 56 10 16 0 29 5 29 10 0 6 10 10 22 10 19 0 61 12 133 40 52 19 187 88 245 124 130 81 300 230 380 335 14 18 35 46 48 61 12 15 22 33 22 39 0 6 3 11 8 11 4 0 16 17 27 38 11 20 22 39 26 42 6 5 51 98 88 182 12 26 21 54 21 62 0 8 5 18 10 21 6 3 10 16 10 29 0 12 4 26 9 32 5 5 14 38 21 74 6 36 16 90 21 120 15 79 23 389 10 414 -5 12 -12 41 -15 66 -2 25 -11 77 -21 115 -9 39 -19 82 -22 98 -3 15 -9 30 -14 33 -5 3 -9 12 -9 21 0 54 -154 328 -250 443 -158 192 -386 360 -585 434 -27 10 -54 23 -59 27 -6 5 -18 9 -28 9 -10 0 -26 4 -36 10 -9 5 -39 14 -67 20 -27 6 -70 16 -95 21 -114 26 -320 33 -470 18z m440 -459 c19 -7 44 -16 55 -20 11 -5 43 -16 70 -26 28 -9 73 -30 100 -46 28 -16 58 -32 68 -35 9 -3 17 -9 17 -14 0 -5 7 -9 15 -9 8 0 15 -4 15 -9 0 -5 8 -12 18 -15 29 -10 193 -175 244 -247 53 -75 98 -155 98 -175 0 -8 5 -14 10 -14 6 0 10 -7 10 -15 0 -8 4 -23 9 -33 6 -9 17 -44 26 -77 9 -33 22 -78 28 -100 17 -56 16 -390 -1 -407 -7 -7 -12 -27 -12 -44 0 -18 -4 -35 -9 -38 -5 -3 -12 -22 -16 -42 -3 -20 -10 -44 -15 -53 -4 -9 -20 -43 -36 -76 -28 -59 -80 -146 -112 -188 -49 -64 -177 -182 -252 -233 -73 -49 -118 -73 -235 -124 -23 -10 -89 -27 -160 -42 -63 -14 -333 -14 -400 -1 -54 11 -128 30 -160 43 -57 23 -102 42 -120 52 -11 7 -40 23 -65 37 -25 14 -47 27 -50 31 -3 3 -27 22 -55 42 -45 32 -153 140 -197 195 -154 196 -248 513 -219 737 19 145 44 234 104 367 42 92 109 189 193 275 85 87 164 154 183 154 6 0 11 4 11 9 0 10 174 97 215 107 17 4 35 10 40 14 6 4 24 10 40 14 17 4 46 11 65 16 54 13 438 6 480 -10z" id="svg_9" fill="#1e88e5"/>
<path d="M6535 7460 c-3 -5 -21 -10 -40 -10 -19 0 -36 -4 -40 -9 -3 -5 -19 -13 -37 -16 -95 -21 -254 -144 -322 -250 -78 -121 -102 -181 -126 -321 -12 -69 -11 -104 9 -228 37 -226 209 -431 441 -524 88 -35 99 -37 255 -37 156 0 167 2 255 37 150 60 283 172 352 295 54 95 74 152 97 279 13 74 14 111 2 166 -6 24 -15 68 -22 98 -13 64 -59 165 -102 230 -63 92 -183 195 -277 237 -51 22 -116 43 -137 43 -12 0 -25 5 -28 10 -4 6 -62 10 -140 10 -78 0 -136 -4 -140 -10z" id="svg_10" fill="#1e88e5"/>
<path d="M315 8215 c-42 -20 -56 -34 -80 -81 l-30 -57 0 -1331 c0 -1266 1 -1333 18 -1369 25 -52 75 -107 97 -107 11 0 22 -4 25 -10 15 -24 141 3 198 43 15 10 37 38 47 60 19 40 20 75 23 897 4 965 4 957 81 1103 132 248 285 375 516 430 51 12 316 14 370 3 19 -4 44 -11 55 -16 11 -4 43 -16 70 -26 102 -36 215 -121 304 -229 76 -91 108 -144 116 -189 4 -20 11 -39 16 -42 5 -3 9 -20 9 -38 0 -17 4 -36 9 -41 19 -20 23 -143 29 -980 l7 -860 23 -33 c13 -18 36 -39 52 -47 76 -39 171 -57 185 -35 3 6 14 10 24 10 27 0 87 71 105 124 14 44 16 142 16 912 0 564 3 865 10 869 6 3 10 19 10 34 0 28 19 87 41 125 6 11 23 40 37 65 85 156 220 287 364 354 20 9 43 17 51 17 9 0 18 4 21 9 11 16 80 24 236 25 147 0 210 -5 255 -24 11 -4 40 -16 65 -26 89 -36 233 -138 302 -213 65 -72 148 -216 148 -258 0 -11 4 -23 9 -29 20 -21 24 -138 30 -998 5 -706 9 -900 19 -904 6 -2 12 -9 12 -15 0 -16 82 -67 108 -67 11 0 24 -4 27 -10 8 -12 62 -13 69 -1 3 5 22 12 41 15 22 5 52 23 80 50 l45 43 0 890 c0 859 -5 1040 -31 1067 -5 6 -9 22 -9 37 0 15 -4 30 -9 33 -5 3 -12 22 -15 41 -6 32 -22 69 -64 152 -52 101 -203 284 -312 378 -73 63 -150 112 -240 155 -36 17 -73 35 -82 41 -10 5 -25 9 -33 9 -8 0 -23 4 -33 9 -97 49 -312 66 -522 42 -97 -12 -126 -19 -172 -42 -10 -5 -27 -9 -37 -9 -11 0 -22 -4 -26 -9 -3 -5 -19 -13 -37 -16 -50 -11 -230 -108 -310 -167 -85 -64 -192 -174 -215 -224 -9 -19 -20 -34 -24 -34 -4 0 -27 21 -51 47 -71 77 -131 136 -178 173 -24 19 -48 40 -54 45 -28 25 -86 65 -95 65 -6 0 -11 3 -11 8 0 4 -10 12 -23 18 -48 24 -153 76 -169 85 -10 5 -25 9 -33 9 -8 0 -23 4 -33 9 -145 73 -520 74 -717 1 -77 -29 -116 -45 -160 -68 -27 -14 -60 -30 -72 -36 -13 -6 -23 -14 -23 -18 0 -5 -4 -8 -10 -8 -5 0 -41 -22 -80 -50 -39 -27 -75 -50 -80 -50 -6 0 -10 30 -10 68 0 43 -6 81 -16 100 -20 42 -81 90 -121 98 -18 3 -36 10 -39 15 -10 16 -69 9 -119 -16z" id="svg_11" fill="#1e88e5"/>
</g></g></svg>