<?xml version="1.0" encoding="utf-8"?>
<!-- Generator: Adobe Illustrator 24.1.0, SVG Export Plug-In . SVG Version: 6.00 Build 0)  -->
<svg version="1.1" id="Layer_1" xmlns="http://www.w3.org/2000/svg" xmlns:xlink="http://www.w3.org/1999/xlink" x="0px" y="0px"
	 viewBox="0 0 2499.5 426.1" style="enable-background:new 0 0 2499.5 426.1;" xml:space="preserve">
<style type="text/css">
	.st0{fill:#1E88E5;}
</style>
<circle class="st0" cx="1263.3" cy="64.9" r="21"/>
<path id="svg_2" class="st0" d="M882.1,0.9c-23.1,12-14.7-11-16.3,148.8c0.4,143,0,144.7,4.7,160.7c0,1.4,0.5,2.8,1,3.1
	c0.6,0.3,1,1.9,1,3.5s0.4,3.1,0.9,3.4c1.5,1,2,8.1,3.1,9.5c7.6,15.5,13.3,29.6,27.2,44.1c14.9,16.4,48,38.8,65.3,44
	c0.6,1.3,5.2,0.7,5.9,1.9c19.8,7.8,66.8,7.1,85.1,0.1c1.1-0.4,4.7-1.6,8-2.6c3.3-1,6.4-2.2,6.9-2.6c0.6-0.4,1.8-0.8,2.8-0.8
	s1.8-0.5,1.8-1c0-0.6,0.7-1,1.5-1c5.4,0,34.2-20.1,48-33.5c4.5-4.3,15-17.5,19.6-24.5c5.7-8.7,13.9-24.9,13.9-27.5
	c0-0.7,0.5-1.7,1-2c1.4-0.8,0.7-5,1.9-6.1c0.8-0.9,2.2-6.9,4.4-18.4c1.3-7.2,1.3-48,0-54.5c-3.2-15.6-3.8-17.5-6.4-22.7
	c-2.3-12-18.3-37.3-27.5-48.8c-6.5-7.8-17.8-18.3-26-24.2c-9.9-7.1-24.3-15.8-26.1-15.8c-0.7,0-1.3-0.5-1.3-1c0-0.6-0.9-1-1.9-1
	c-1.1,0-2.2-0.4-2.6-0.9c-1.1-1.4-7-2.3-8.5-3.1c-4.1-2.1-7.1-3-13.5-4.5c-18-5.7-44.2-6.1-66-2c-13,2.8-18.2,4.3-22.7,6.6
	c-1,0.5-2.3,0.9-3,0.9c-9.5,2.1-38.8,20.6-49.7,31.2c-2.9,2.7-5.7,4.8-6.2,4.8s-0.9-31.7-0.9-74.9c0-73.8,0-75-2.1-78.8
	c-1.1-2.1-3.5-4.8-5.2-6C894.2,1.2,883.5-1.4,882.1,0.9z M1037.5,163.1c3.6,0.9,11,1.5,13.6,3c0.3,0.5,1.5,0.9,2.7,0.9
	c2.3,0,12.9,4.9,13.5,6.2c0.2,0.5,0.8,0.8,1.3,0.8c1.1,0,15.9,9.2,19.7,12.2c3.5,2.9,19.1,18.5,22,22.1c1.2,1.5,2.2,3.2,2.2,3.7
	c0,0.6,0.4,1,0.8,1c0.8,0,8.2,14.2,10.2,19.5c5.2,13.5,6.3,21.3,5.7,42.8c-0.5,19.7-1,24.1-6.4,37.7c-0.7,1.4-1.3,2.8-1.3,3.2
	c0.1,0.8-7.2,11.8-7,12.6c-6,10.4-23.1,29-32.7,35.7c-2.7,1.6-5,3.2-5.3,3.5c-1,1.2-15.7,8-21,9.6c-13.3,4.6-13.8,4.7-36.5,4.8
	c-17.3-0.1-27.1-1-28.1-2.5c-0.3-0.5-1.6-0.9-2.8-0.9c-4.8,0-18.1-6.3-30.6-14.6c-21-13.8-36.7-32.5-43.5-51.9
	c-3.1-9.2-3.4-7.8-5.5-20c-1.2-6.9-1.1-32.9,0.1-39c1.1-4.1,1.1-9.4,3-12.1c0.5-0.3,0.9-1.6,0.9-2.9c0-3.2,8.9-20,15.8-29.9
	c9.4-13,25.5-29.2,38.1-34.6c0.6,0,1.1-0.5,1.1-1c0-0.6,0.9-1,1.9-1c1.1,0,2.2-0.4,2.5-0.9c1.3-1.2,10.4-4.4,12.1-5.1
	c1.6-0.8,13.4-3.1,15-3.5C1001.5,161.7,1033.5,162.2,1037.5,163.1z"/>
<path id="svg_3" class="st0" d="M2238.1,2.4c-4.5,1.7-8,10.5-9.7,13.8c-1.2,2.4-1.2,391.3,0,393.6c0.5,0.9,1.7,3.4,2.7,5.5
	c2.2,4.5,6.7,8.7,9.4,8.7c1,0,2.2,0.4,2.5,1c0.6,1.2,8.4,1.3,9,0c0.3-0.6,1.6-1,2.8-1c3.8,0,10.1-4.4,12.4-8.5c0,0,2.1-4,2.1-4
	s0.1-79.7,0.1-79.7c0.5-56.9-0.4-72.1,2.4-89.5c0.3-4.9,1.1-10.2,1.8-11.8c10.2-26.8,26.4-49.4,48.4-59.9
	c18.1-7.8,19.4-8.1,40.5-8.1c40.4-3.4,79.4,29,89.8,61.5c1.1,3.6,2.6,8.3,3.3,10.5c1.7-2.7,1.8,144.7,2,174
	c1.4,3.3,4.9,10.2,7.1,12.2c5.2,4.6,13.3,6.7,17.6,4.4c0.9-0.6,2.9-1.2,4.4-1.6c3.8-0.7,9.6-6,11.3-10.3c1.3-2.9,1.5-16.4,1.5-88.3
	c-1-64.4,1.9-78.8-3.5-100.9c-1.6-7.1-2.6-10.3-4.6-14.2c-0.5-1-0.9-2.3-0.9-2.9c0-4.4-13.1-26.5-22.1-37.5
	c-4.3-5.2-19.3-19.9-23.9-23.5c-9.7-7.5-25.1-15.8-36.5-20c-4-1.6-13.4-3.9-15.8-3.9c-1.4,0-2.9-0.5-3.2-1c-0.3-0.6-3.4-1-6.9-1
	c-3.4,0-6.7-0.5-7.3-1.1c-1.8-1.8-27.9,0.1-39.8,2.9c-11.7,2.7-16.7,4.5-29,10.3c-6.6,3.2-25,14.6-27.7,17.2c-2.7,2.7-7.6,5.6-8.2,5
	c-0.3-0.3-0.6-32.3-0.6-71c0-65.1-0.1-70.6-1.7-73.1c-1-1.5-2.2-3.2-2.8-3.7c-2-1.9-7.3-4.5-9.3-4.5c-1.2,0-2.4-0.5-2.7-1
	C2251.8-0.9,2242.2,0,2238.1,2.4z"/>
<path id="svg_4" class="st0" d="M1411.3,14.2c-3.9,2.2-8.8,10.1-8.8,14.3c0,1.3-0.4,2.7-1,3c-1.4,1.2-0.9,80.9-1,97.6
	c-9.3-0.1-41.7-0.6-45.1,0.7c-10.6,3.6-16.6,25.3-6.1,33.3c7.2,6.4,6.7,6.3,29.9,6l21.3-0.3c0,0,0.4,89.9,0.4,89.9
	c0.4,98.7,0.7,103.6,6.8,115.7c1.8,3.1,3.8,9,6,10.6c0.4,0,0.8,0.5,0.8,1c0,1.8,8.1,12.2,14.1,18.1c8.3,8.2,12.4,10.8,28.4,18
	c4.3,1.9,15.8,3.2,33.4,3.6c19.7,0.5,22.4,0,27.9-5.1c6.9-6.2,8.1-19.2,2.6-27.7c-1.6-2.4-3.5-4.9-4.3-5.5
	c-2.9-2.3-10.4-3.3-28.1-3.7c-21.2-0.6-23.6-1.3-32-9.8c-5.4-5.4-5.8-6.1-8.8-11.9c-4.6-9.2-4.6-9.8-4.9-103.8
	c0,0-0.3-89.2-0.3-89.2c14.9,0,44.7,0,59.6,0c8-4.7,14.8-9.5,14.7-18.3c0.2-9.2-7.5-21.5-13.6-21.8c-4.3-0.2-48.8,0.2-60.7,0.3
	c-0.2-18.8,0.7-105.3-1.4-104.7c-1.7-4.7-6.7-9.2-11.3-10.1c-1.8-0.3-3.6-1-3.9-1.5C1424.9,11.2,1415.1,12.1,1411.3,14.2z"/>
<path id="svg_6" class="st0" d="M1254,121.9c-5.5,1.8-8.6,7.8-12,13.6c0.4,49.7-1.9,285,1.1,276.5c1.8,5,7.9,12,10.4,12
	c0.9,0,2.1,0.5,2.7,1.1c1.2,1.2,6.1,0.8,12.7-0.9c4.4-1.2,10.5-5.8,12.3-9.3c1-1.9,1.2-32.6,1-143c0,0-0.2-140.6-0.2-140.6
	c-2.9-2.9-6.4-6.1-10.5-7.7C1264.3,120.7,1262.2,118.3,1254,121.9z"/>
<path id="svg_7" class="st0" d="M1688.8,123.9c-5.6,0.9-10.5,1.9-10.9,2.3c-0.4,0.5-2,0.8-3.5,0.8s-3,0.4-3.3,0.9
	c-0.3,0.4-2.4,1.1-4.6,1.5c-4,0.6-5,1-9.7,3.4c-1.3,0.7-2.7,1.2-3.3,1.2c-3.4,0-28.6,14.1-32,17.9c-0.3,0.4-3.7,3.2-7.7,6.4
	c-13,10.5-31.5,31.7-35.4,40.7c-0.8,1.6-1.7,3-2.1,3c-0.5,0-0.8,0.6-0.8,1.2c0,0.7-1.1,3.4-2.4,6c-2.4,4.2-7,17.3-8.6,21.3
	c-0.9,2.1-2.4,9.8-4.3,22c-1.4,8.9-1.4,32.9,0.1,42c1.9,12.3,3.3,19,4.2,20.7c1.3,1.7,0.5,5,1.9,6.2c0.4,0.3,1.1,1.9,1.4,3.5
	c0.9,4.4,11,26.2,13.2,28.5c13.6,19.3,31.6,39.1,51,50.8c9.3,5.8,23.9,12.8,26.8,12.8c0.9,0,1.9,0.4,2.2,1c0.3,0.5,1.7,1,3,1
	c1.3,0,2.6,0.4,2.9,0.9c1.5,1.4,7.5,1.9,9.6,2.5c12.2,3,39.2,3.9,52.5,1.8c10.9-1.8,18.8-3.4,25-5.2c2.2-0.6,5.8-1.5,8-2.1
	c4.7-1.1,5.5-1.4,15.6-6.3c10.2-4.8,16.5-10.5,18-15.9c1.5-5.5,0.6-15.7-1.6-19.4c-4.7-8-19.5-10.8-30.4-5.7
	c-10.6,4.9-17.6,7.8-27,9.4c-1.1,0-2.2,0.4-2.5,0.9c-2.1,3.3-39.3,3.4-47.1,0.1c-5.1-1.9-14.9-3.5-18.5-5.2c-3.8-1.6-12.2-6-13-6.8
	c-10.6-6.6-26.2-20.6-32.8-30.9c-2-3.1-4-5.8-4.3-6.1c-1.2-1-9.7-19.5-10.8-23.5c-0.6-2.2-0.7-4.3-0.3-4.7
	c10.7-1,199.1-1.1,242.9-1.3c8.6-6,11.5-10.2,12-25c0.5-12.6-1.8-35.9-3.8-38c-0.5-0.5-0.9-1.9-0.9-3c-1-9.2-10-29-13.7-34.3
	c-6-10.2-3-6-15.5-22.7c-2.6-3.4-21-22-24.8-25c-6.4-5-10-7.5-10.9-7.5c-0.6,0-1.1-0.4-1.1-0.9s-0.8-1.1-1.7-1.4
	c-1.8-0.5-17.5-9.7-19.5-9.7c-1,0-1.8-0.5-1.8-1c0-0.6-0.8-1-1.8-1C1744.3,123.9,1713.9,119.8,1688.8,123.9z M1733.2,168.1
	c8.9,2.1,14.8,4,20.1,6.5c2.9,1.3,5.7,2.4,6.2,2.4c0.6,0,1,0.3,1,0.7c0,0.5,1.8,1.6,3.9,2.7c7.2,3.4,22.9,15.9,29,23.1
	c11,15.1,25.7,38.8,25.6,57c-53.8,0-162.2,0-216,0c0,0,0.3-3.5,0.3-3.5c0.3-5.7,3-12.4,4.8-18c6.3-23.1,36.1-55.9,59.6-64.5
	c2.8-1.4,6-2.5,6.9-2.5c1,0,2-0.4,2.4-1c0.3-0.5,3.3-1.2,6.6-1.6c3.2-0.4,6.2-1.1,6.5-1.5C1690.9,166.6,1727.7,166.8,1733.2,168.1z"
	/>
<path id="svg_8" class="st0" d="M2037,124c-27.4,4.4-44.4,12.6-68.5,28.7c-19.2,13.9-45.7,46.8-51.9,69.1c-2.7,5.3-5,13-5.8,19.7
	c-0.3,2.2-1,4.6-1.7,5.4c-1.5,2-1.6,51.2,0,53.2c0.7,0.8,1.4,3,1.7,4.9c1.3,8.5,3.2,15.1,5.8,20.2c0.5,1,0.9,2.3,0.9,3
	c0,1.6,10.2,22.2,11.2,22.6c0.4,0.2,0.8,0.8,0.8,1.4c0,0.5,2.4,4.7,5.4,9.1c10.7,18.6,50.8,49.3,72.9,55.7c0.9,0,1.8,0.4,2.1,0.9
	s1.6,1.1,2.8,1.4c24.4,8.3,72.4,8.1,91.5-0.4c15.2-5.5,30-12.4,44.3-21.5c17-11.1,22.6-19.2,19-31.9c-0.5-0.3-1-1.5-1-2.5
	c0.1-2.3-6.4-8.7-8.7-11c-11.1,0-19.1-1.2-27.1,6.6c-2.2,1.9-4.5,3.4-5,3.4c-0.6,0-1.2,0.3-1.4,0.7c-2.1,3.4-24.8,14.9-33.3,17.3
	c-7.5,3-11.8,3.5-31,3.5c-13.6,0-21.4-0.4-24.5-1.3c-13.3-3.9-21-6.8-25.7-9.9c-2.8-1.8-5.5-3.3-5.9-3.3c-1,0-10.1-6.7-19.1-14.2
	c-12.2-10.1-22.6-25-30.3-43.3c-4.6-10.8-6.8-38.2-4.2-52c2.7-14.8,3.5-18.1,4.3-19c0.5-0.5,0.9-1.6,0.9-2.5
	c0-2.8,5.5-13.1,12.8-24.1c16.4-24.1,36.7-39.7,61.7-45.9c3.3-2.4,42.7-3.4,51.5-1.2c4.4,1.1,11.8,2.5,15.5,4.1
	c2.9,1.3,15.3,6.5,15.5,7.1c1.5,1.7,15.1,11,16,11c0.5,0,1,0.4,1,0.9s2.6,2.2,5.8,3.7c3.1,1.6,5.9,3.2,6,3.6
	c0.7,1.5,13.8,0.8,17-0.8c10.2-4.6,14.7-26.5,4.1-33.6c-9.4-7.2-21.8-17.7-31.8-21.8c-0.6,0-1.1-0.3-1.1-0.8c0-0.4-1.5-1.3-3.2-2.1
	c-8.1-3.5-14.4-6.3-16-7.2c-1.3-1.1-9.3-1.7-10.4-3c-1.2-1.3-4.5-0.7-6.2-1.8c-3-1.6-25.3-4.1-35.7-4
	C2052.5,122.2,2043.1,123,2037,124z"/>
<path id="svg_9" class="st0" d="M629.5,125.1c-11.2,1.2-16.4,2-17.5,2.9c-0.5,0.4-3.1,1.1-5.7,1.4c-2.6,0.4-5,1.1-5.3,1.7
	c-0.8,1.3-5.3,0.5-6,1.9c-0.3,0.5-1.3,1-2.1,1c-4.4,0-32.1,15.9-41.9,24c-4.7,4-18.7,18.3-22.1,22.6c-9.3,11.8-21.5,33.8-23,41.4
	c-0.4,1.7-1.1,3.3-1.5,3.6c-0.5,0.3-0.9,1.5-0.9,2.8c0,1.2-0.4,2.6-0.9,3.1c-0.8,1-2.4,7.7-4.4,19c-1.2,6.9-1.5,39.8-0.3,46.5
	c6.5,39.7,24.7,70.4,56.1,96.2c7.8,6,19.9,13.8,21.5,13.8c0.5,0,1,0.4,1,1c0,0.5,0.4,1,1,1c0.5,0,3.5,1.2,6.7,2.6
	c8.8,4.4,14.9,5.7,22.3,8.2c13.2,5.3,53.9,6.5,71.5,2.2c1.5-0.6,4-1,5.6-1c1.6,0,2.9-0.5,2.9-1c0-0.6,1-1,2.2-1
	c1.9,0,6.1-1.2,13.3-4c24.9-9.5,52.4-31,67.3-52c1.2-1.5,2.2-3.3,2.2-3.9s0.3-1.1,0.8-1.1c0.4,0,1.6-1.7,2.7-3.8
	c4.2-6.8,5.5-9,11.4-22.4c1.2-2.6,2.1-5.4,2.1-6.2c0-0.8,0.5-1.8,1-2.1c0.6-0.3,1-1.6,1-2.9c0-1.2,0.4-2.6,0.9-3.2
	c0.5-0.5,1.4-3.8,2.1-7.4c3.3-12.1,4.8-45.1,3.1-53.4c-0.5-1.2-1.2-4.1-1.5-6.6c-0.2-4.8-3.5-16.9-4.3-21.3c-0.3-1.5-0.9-3-1.4-3.3
	c-0.5-0.3-0.9-1.2-0.9-2.1c0-5.4-15.4-32.8-25-44.3c-17.4-21.6-42.1-37.5-64.4-46.1C677.7,125.5,654.7,122.8,629.5,125.1z
	 M673.5,171c5.2,1.9,6.8,2.5,12.5,4.6c4.8,1.2,13,6.6,16.8,8.1c0.9,0.3,1.7,0.9,1.7,1.4s0.7,0.9,1.5,0.9s1.5,0.4,1.5,0.9
	s0.8,1.2,1.8,1.5c2.9,1,19.3,17.5,24.4,24.7c5.3,7.5,9.8,15.5,9.8,17.5c0,0.8,0.5,1.4,1,1.4c0.6,0,1,0.7,1,1.5s0.4,2.3,0.9,3.3
	c1.6,3.2,4.3,14,5.4,17.7c1.7,5.6,1.6,39-0.1,40.7c-0.7,0.7-1.2,2.7-1.2,4.4c0,4.6-1.7,3.2-2.5,8c-1.1,5.9-2.2,6.3-5.1,12.9
	c-2.8,5.9-8,14.6-11.2,18.8c-13.4,15.5-27.6,27.2-48.7,35.7c-2.3,1-8.9,2.7-16,4.2c-6.3,1.4-33.3,1.4-40,0.1
	c-52.8-9.3-91.7-62-86.6-113.7c3.2-24.9,11.6-45.4,29.7-64.2c8.5-8.7,16.4-15.4,18.3-15.4c0.6,0,1.1-0.4,1.1-0.9
	c0-1,17.4-9.7,21.5-10.7c1.7-0.4,3.5-1,4-1.4C625.5,167.4,662.8,169.2,673.5,171z"/>
<path id="svg_10" class="st0" d="M633,205c-0.6,1.3-7.3,0.7-8,1.9c-0.3,0.5-1.9,1.3-3.7,1.6c-30.4,10.5-51.3,45.9-43.9,79.9
	c5.2,30.2,34.7,58.6,69.6,56.1c15.6,0,16.7-0.2,25.5-3.7c26-11,40.6-30.1,44.9-57.4c2.3-11.1,0.2-16.5-2-26.4
	c-4.9-23.4-28.2-47.6-51.6-51c-1.2,0-2.5-0.5-2.8-1C661.2,203.8,632.8,203.7,633,205z"/>
<path id="svg_11" class="st0" d="M11,129.5c-4.2,2-5.6,3.4-8,8.1c0,0-3,5.7-3,5.7v133.1C0,403,0.1,409.7,1.8,413.3
	c2.5,5.2,7.5,10.7,9.7,10.7c1.1,0,2.2,0.4,2.5,1c1.5,2.4,14.1-0.3,19.8-4.3c10.1-11.4,5.4-7,7-95.7c0.4-96.5,0.4-95.7,8.1-110.3
	c13.2-24.8,28.5-37.5,51.6-43c5.1-1.2,31.6-1.4,37-0.3c16.4,4.2,30.4,11.9,42.9,27.1c7.6,9.1,10.8,14.4,11.6,18.9
	c0.4,2,1.1,3.9,1.6,4.2c1.2,0.8,0.6,7,1.8,7.9c1.9,2,2.3,14.3,2.9,98c0,0,0.7,86,0.7,86c1.8,2.7,4.7,6.7,7.5,8
	c7.6,3.9,17.1,5.7,18.5,3.5c0.3-0.6,1.4-1,2.4-1c2.7,0,8.7-7.1,10.5-12.4c1.4-4.4,1.6-14.2,1.6-91.2c0.2-61.5-0.3-83.4,2-90.3
	c0-2.8,1.9-8.7,4.1-12.5c10.1-20,26.8-38.5,47.3-44.5c0.2-3.4,47.3-3.2,49.1-0.1c11.7,3.8,27.8,14.4,36.7,23.9
	c6.5,7.2,14.8,21.6,14.8,25.8c0,1.1,0.4,2.3,0.9,2.9c2,2.1,2.4,13.8,3,99.8c0.5,70.6,0.9,90,1.9,90.4c0.6,0.2,1.2,0.9,1.2,1.5
	c0,1.6,8.2,6.7,10.8,6.7c1.1,0,2.4,0.4,2.7,1c0.8,1.2,6.2,1.3,6.9,0.1c0.3-0.5,2.2-1.2,4.1-1.5c3.7-0.4,9.3-6.3,12.5-9.3
	c0,0,0-89,0-89c0-85.9-0.5-104-3.1-106.7c-1.1-1-0.6-6.2-1.8-7c-0.5-0.3-1.2-2.2-1.5-4.1c-4-16.5-22.3-39.5-37.6-53
	c-8.3-7.9-22.4-14.7-32.2-19.6c-2.4-1.2-4.2-0.6-6.6-1.8c-10.6-6.1-52.1-8-69.4,0c-1.8,1.1-5,0.4-6.3,1.8c-0.3,0.5-1.9,1.3-3.7,1.6
	c-5,1.1-23,10.8-31,16.7c-8.5,6.4-19.2,17.4-21.5,22.4c-0.9,1.9-2,3.4-2.4,3.4c-0.4,0-2.7-2.1-5.1-4.7
	c-9.1-10.1-15.8-15.7-23.2-21.8c-2.8-2.5-8.6-6.5-9.5-6.5c-0.6,0-1.1-0.3-1.1-0.8c0-0.4-1-1.2-2.3-1.8c-4.8-2.4-15.3-7.6-16.9-8.5
	c-2.4-1.2-4.2-0.6-6.6-1.8c-14.5-7.3-52-7.4-71.7-0.1c-10.5,3.7-15.7,6.7-23.2,10.4c-1.3,0.6-2.3,1.4-2.3,1.8c0,0.5-0.4,0.8-1,0.8
	c-0.5,0-4.1,2.2-8,5c-3.9,2.7-7.5,5-8,5c-0.6,0-1-3-1-6.8c0-4.3-0.6-8.1-1.6-10c-2-4.2-8.1-9-12.1-9.8c-1.8-0.3-3.6-1-3.9-1.5
	C21.9,126.3,16,127,11,129.5z"/>
</svg>
