<?xml version="1.0" encoding="UTF-8" standalone="no"?>
<!-- Created with Inkscape (http://www.inkscape.org/) -->

<svg
   xmlns:dc="http://purl.org/dc/elements/1.1/"
   xmlns:cc="http://creativecommons.org/ns#"
   xmlns:rdf="http://www.w3.org/1999/02/22-rdf-syntax-ns#"
   xmlns:svg="http://www.w3.org/2000/svg"
   xmlns="http://www.w3.org/2000/svg"
   xmlns:sodipodi="http://sodipodi.sourceforge.net/DTD/sodipodi-0.dtd"
   xmlns:inkscape="http://www.inkscape.org/namespaces/inkscape"
   width="133.43239"
   height="40.048"
   viewBox="0 0 35.303985 10.596033"
   version="1.1"
   id="svg2770"
   inkscape:version="0.92.0 r15299"
   sodipodi:docname="rbs.svg">
  <defs
     id="defs2764">
    <clipPath
       id="clipPath2693"
       clipPathUnits="userSpaceOnUse">
      <path
         inkscape:connector-curvature="0"
         id="path2691"
         d="M 414.803,764.882 H 527.929 V 816.85 H 414.803 Z" />
    </clipPath>
    <clipPath
       id="clipPath2681"
       clipPathUnits="userSpaceOnUse">
      <path
         inkscape:connector-curvature="0"
         id="path2679"
         d="m 428.604,777.171 h 99.325 v 29.286 h -99.325 z" />
    </clipPath>
  </defs>
  <sodipodi:namedview
     id="base"
     pagecolor="#ffffff"
     bordercolor="#666666"
     borderopacity="1.0"
     inkscape:pageopacity="0.0"
     inkscape:pageshadow="2"
     inkscape:zoom="6.7732671"
     inkscape:cx="66.216199"
     inkscape:cy="19.523984"
     inkscape:document-units="mm"
     inkscape:current-layer="layer1"
     showgrid="false"
     fit-margin-top="0"
     fit-margin-left="0"
     fit-margin-right="0"
     fit-margin-bottom="0"
     units="px"
     inkscape:window-width="1280"
     inkscape:window-height="744"
     inkscape:window-x="-4"
     inkscape:window-y="-4"
     inkscape:window-maximized="1" />
  <metadata
     id="metadata2767">
    <rdf:RDF>
      <cc:Work
         rdf:about="">
        <dc:format>image/svg+xml</dc:format>
        <dc:type
           rdf:resource="http://purl.org/dc/dcmitype/StillImage" />
        <dc:title></dc:title>
      </cc:Work>
    </rdf:RDF>
  </metadata>
  <g
     inkscape:label="Layer 1"
     inkscape:groupmode="layer"
     id="layer1"
     transform="translate(-74.706488,-178.17683)">
    <g
       id="g2814"
       transform="translate(0.13229204,-0.13228811)">
      <path
         d="m 84.133416,183.42631 h -1.64465 c -0.349603,0 -0.673806,-0.20743 -0.777169,-0.51788 -0.297745,-0.86783 -1.152525,-1.17898 -1.152525,-1.17898 -0.310798,-0.11642 -0.543984,-0.41381 -0.543984,-0.77646 v -1.64501 c 0,-0.45191 0.375709,-0.81456 0.828675,-0.81456 0.45332,0 0.815975,0.33655 0.815975,0.81456 l -0.0127,1.3208 1.903589,-1.90218 c 0.32385,-0.3242 0.841728,-0.3242 1.165578,0 0.32385,0.32209 0.32385,0.85302 0,1.17722 l -1.878189,1.86479 h 1.2954 c 0.453672,0 0.828675,0.37571 0.828675,0.82832 0,0.45367 -0.375003,0.82938 -0.828675,0.82938 m -0.01305,1.99249 -1.3208,-0.0127 1.903589,1.90359 c 0.32385,0.32385 0.32385,0.84173 0,1.16593 -0.323497,0.3235 -0.841728,0.3235 -1.165225,0 l -1.878189,-1.87819 v 1.29469 c 0,0.49248 -0.375355,0.82938 -0.829027,0.82938 -0.452967,0 -0.828675,-0.3757 -0.828675,-0.82938 v -1.64429 c 0,-0.34996 0.220133,-0.67416 0.531283,-0.77717 0.86748,-0.2981 1.165225,-1.15147 1.165225,-1.15147 0.116416,-0.31044 0.427566,-0.54363 0.777169,-0.54363 h 1.64465 c 0.45332,0 0.829028,0.37606 0.829028,0.82832 0,0.45226 -0.33655,0.81492 -0.829028,0.81492 m -5.295547,3.28965 c -0.453319,0 -0.815975,-0.2981 -0.803275,-0.81633 l 0.01305,-1.3208 -1.903589,1.9043 c -0.323497,0.3235 -0.85478,0.3235 -1.165225,0 -0.324203,-0.3242 -0.324203,-0.85549 0,-1.16593 l 1.864431,-1.87819 h -1.281995 c -0.466372,0 -0.828675,-0.37536 -0.828675,-0.82762 0,-0.45226 0.362303,-0.82832 0.828675,-0.82832 h 1.645003 c 0.34925,0 0.6604,0.20743 0.776817,0.51788 0.297744,0.87912 1.139472,1.17722 1.139472,1.17722 0.323497,0.11641 0.544336,0.41451 0.544336,0.77717 v 1.64429 c 0,0.45368 -0.363008,0.81633 -0.829028,0.81633 m 0.297745,-6.9656 c -0.867834,0.3108 -1.165578,1.15218 -1.165578,1.15218 -0.11677,0.31079 -0.427214,0.54433 -0.77717,0.54433 h -1.64465 c -0.453319,0 -0.828675,-0.37571 -0.828675,-0.82902 0,-0.45297 0.310798,-0.81563 0.828675,-0.81563 l 1.321506,0.0127 -1.904294,-1.90359 c -0.32385,-0.3242 -0.32385,-0.84172 0,-1.16452 0.32385,-0.32385 0.841727,-0.32385 1.165577,0 l 1.877836,1.87678 v -1.29504 c 0,-0.45191 0.362656,-0.82762 0.829028,-0.82762 0.452967,0 0.815622,0.37571 0.815622,0.82762 v 1.64429 c 0,0.35031 -0.207433,0.67346 -0.517877,0.77752"
         style="fill:#15366f;fill-opacity:1;fill-rule:nonzero;stroke:none;stroke-width:0.35277778"
         id="path2685"
         inkscape:connector-curvature="0" />
      <path
         d="m 105.8731,188.77286 c -0.88053,0 -1.9939,-0.14182 -2.55023,-0.31044 l 0.44062,-1.81363 c 0.40005,0.18168 1.29399,0.46637 2.10961,0.46637 0.9846,0 1.72261,-0.42722 1.72261,-1.2954 0,-0.73766 -0.45367,-1.12536 -1.72261,-1.61643 -1.29469,-0.50518 -2.3689,-1.12713 -2.3689,-2.9658 0,-1.80023 1.42346,-2.79612 3.58634,-2.79612 0.91933,0 1.85173,0.18133 2.40876,0.36266 l -0.42721,1.76 c -0.37571,-0.20708 -1.10102,-0.46637 -1.98155,-0.46637 -1.04917,0 -1.51518,0.40182 -1.51518,1.08762 0,0.69991 0.51787,0.95885 1.64429,1.45097 1.55469,0.66075 2.52624,1.3208 2.52624,3.054 0,1.91699 -1.52858,3.08257 -3.87279,3.08257 m -6.95325,-4.53108 h -1.190625 v 2.89913 h 1.255183 c 0.984603,0 1.748372,-0.38841 1.748372,-1.46262 0,-0.98389 -0.71191,-1.43651 -1.81293,-1.43651 m 0.0127,-4.13067 h -1.203325 v 2.6289 h 1.112661 c 0.842081,0 1.567394,-0.45332 1.567394,-1.35996 0,-0.85513 -0.518233,-1.26894 -1.47673,-1.26894 m 0.103717,8.57179 h -3.262489 v -10.11202 h 3.430764 c 1.968848,0 3.263898,0.95744 3.263898,2.64089 0,1.19169 -0.79022,1.86443 -1.54128,2.16253 1.0361,0.27199 1.87783,0.9839 1.87783,2.31599 0,1.76177 -1.3596,2.99261 -3.768723,2.99261 m -8.260292,-8.55909 h -0.997302 v 2.88784 h 0.777169 c 1.049161,0 1.811867,-0.45332 1.811867,-1.43757 0,-0.86784 -0.557036,-1.45027 -1.591734,-1.45027 m 1.876778,8.55909 c -0.608894,-1.23084 -1.70815,-3.17359 -2.356203,-4.18253 h -0.517877 v 4.18253 h -1.942748 v -10.11202 h 3.199342 c 2.109611,0 3.365853,1.00894 3.365853,3.02895 0,1.38571 -0.997303,2.24049 -2.045759,2.59045 0.6731,0.91757 1.968148,3.17112 2.615495,4.49262 z"
         style="fill:#15366f;fill-opacity:1;fill-rule:nonzero;stroke:none;stroke-width:0.35277778"
         id="path2697"
         inkscape:connector-curvature="0" />
    </g>
  </g>
</svg>
