<svg width="342" height="104" viewBox="0 0 342 104" fill="none" xmlns="http://www.w3.org/2000/svg">
<path d="M0 30.9893C0 29.2618 0.519406 27.5743 1.49077 26.1458L2.06475 25.3017C4.32656 21.9755 8.80071 21.0098 12.2331 23.1069L43.8448 45.8948C46.0586 47.4906 47.3703 50.0533 47.3703 52.7823C47.3703 55.5656 46.0063 58.1721 43.7195 59.7585L33.0465 67.1629C30.7244 68.7739 27.5379 68.2125 25.9061 65.9049C24.2406 63.5496 24.8343 60.2858 27.2225 58.6678L34.2342 53.9178C34.957 53.4281 34.9667 52.3667 34.253 51.8639L12.3242 36.414C11.4972 35.8314 10.357 36.4228 10.357 37.4345V73.8858C10.357 75.5634 9.54432 77.1371 8.17644 78.1083L3.23254 81.6184C1.87692 82.5809 0 81.6117 0 79.9491V30.9893Z" fill="#222452"/>
<path d="M35.6235 31.4012C33.3157 29.7391 32.779 26.5273 34.4211 24.2052C36.082 21.8563 39.3384 21.3101 41.6748 22.9885L72.6466 45.2381C74.9953 46.9253 76.3878 49.6402 76.3878 52.5321C76.3878 55.3266 75.0869 57.9619 72.8685 59.6614L46.5811 79.7999C44.2713 81.5694 40.9582 81.0934 39.24 78.7453C37.5793 76.4756 38.0296 73.296 40.2552 71.5768L63.6109 53.5349C64.2716 53.0245 64.2547 52.022 63.5773 51.5341L35.6235 31.4012Z" fill="#222452"/>
<mask id="path-2-outside-1_28_4" maskUnits="userSpaceOnUse" x="96.3878" y="20" width="245" height="56" fill="black">
<rect fill="white" x="96.3878" y="20" width="245" height="56"/>
<path d="M96.5673 74V33.9142H104.78V38.6301H106.081C106.731 36.9497 107.761 35.7301 109.17 34.9712C110.634 34.1581 112.423 33.7515 114.537 33.7515H119.334V41.3134H114.212C111.501 41.3134 109.279 42.0723 107.544 43.5901C105.81 45.0536 104.942 47.3303 104.942 50.4201V74H96.5673ZM140.08 75.1383C136.014 75.1383 132.464 74.2981 129.428 72.6177C126.392 70.8831 124.007 68.4709 122.273 65.3811C120.592 62.2372 119.752 58.6053 119.752 54.4856V53.5099C119.752 49.336 120.592 45.7041 122.273 42.6143C123.953 39.4704 126.284 37.0582 129.265 35.3777C132.301 33.6431 135.797 32.7758 139.754 32.7758C143.603 32.7758 146.964 33.6431 149.837 35.3777C152.764 37.0582 155.041 39.4161 156.667 42.4517C158.293 45.4873 159.106 49.0378 159.106 53.1033V56.2744H128.29C128.398 59.7979 129.564 62.6166 131.786 64.7307C134.063 66.7905 136.881 67.8204 140.242 67.8204C143.386 67.8204 145.744 67.1158 147.316 65.7064C148.942 64.297 150.189 62.6708 151.056 60.8278L157.968 64.4054C157.209 65.9232 156.098 67.5223 154.634 69.2027C153.225 70.8831 151.355 72.2925 149.024 73.4308C146.693 74.5692 143.711 75.1383 140.08 75.1383ZM128.371 49.8509H150.569C150.352 46.8154 149.268 44.4574 147.316 42.777C145.365 41.0423 142.817 40.175 139.673 40.175C136.529 40.175 133.954 41.0423 131.949 42.777C129.997 44.4574 128.805 46.8154 128.371 49.8509ZM180.733 75.1383C175.638 75.1383 171.41 74 168.049 71.7233C164.688 69.4466 162.628 66.0045 161.869 61.397L169.675 59.5268C170.109 61.7493 170.841 63.511 171.871 64.812C172.9 66.1129 174.174 67.0344 175.692 67.5765C177.264 68.1186 178.945 68.3896 180.733 68.3896C183.389 68.3896 185.422 67.8746 186.832 66.8447C188.295 65.8148 189.027 64.4867 189.027 62.8605C189.027 61.2343 188.349 60.0418 186.994 59.2829C185.639 58.524 183.633 57.9006 180.977 57.4128L178.213 56.9249C175.502 56.437 173.036 55.7324 170.814 54.8108C168.591 53.8893 166.829 52.6155 165.528 50.9893C164.227 49.3631 163.577 47.2761 163.577 44.7284C163.577 40.9339 164.986 38.0068 167.805 35.9469C170.624 33.8329 174.364 32.7758 179.026 32.7758C183.525 32.7758 187.211 33.8058 190.084 35.8656C193.011 37.8713 194.908 40.6087 195.776 44.0779L187.97 46.2733C187.482 43.834 186.452 42.1265 184.88 41.1508C183.308 40.1208 181.357 39.6059 179.026 39.6059C176.749 39.6059 174.96 40.0395 173.659 40.9068C172.358 41.7199 171.708 42.8854 171.708 44.4032C171.708 46.0294 172.331 47.2219 173.578 47.9808C174.879 48.7397 176.614 49.3089 178.782 49.6883L181.628 50.1762C184.501 50.664 187.13 51.3416 189.515 52.2089C191.9 53.0762 193.77 54.323 195.125 55.9492C196.535 57.5754 197.239 59.7436 197.239 62.454C197.239 66.4653 195.749 69.5822 192.767 71.8046C189.786 74.0271 185.775 75.1383 180.733 75.1383ZM216.319 74C213.879 74 211.928 73.2682 210.464 71.8046C209.055 70.3411 208.35 68.3896 208.35 65.9503V40.9881H197.292V33.9142H208.35V20.6606H216.725V33.9142H228.678V40.9881H216.725V64.4867C216.725 66.1129 217.484 66.926 219.002 66.926H227.377V74H216.319ZM245.999 75.1383C243.126 75.1383 240.551 74.6505 238.275 73.6748C236.052 72.699 234.263 71.2626 232.908 69.3653C231.607 67.4681 230.957 65.1643 230.957 62.454C230.957 59.6894 231.607 57.4128 232.908 55.6239C234.263 53.7809 236.079 52.3986 238.356 51.4771C240.687 50.5556 243.316 50.0949 246.243 50.0949H258.44V47.4929C258.44 45.1621 257.735 43.2919 256.326 41.8826C254.916 40.4732 252.748 39.7685 249.821 39.7685C246.948 39.7685 244.752 40.4461 243.235 41.8012C241.717 43.1564 240.714 44.9181 240.226 47.0864L232.42 44.5658C233.071 42.3975 234.101 40.4461 235.51 38.7115C236.974 36.9226 238.898 35.4862 241.283 34.402C243.668 33.3179 246.541 32.7758 249.902 32.7758C255.106 32.7758 259.199 34.1039 262.18 36.76C265.161 39.4161 266.652 43.1835 266.652 48.0621V64.568C266.652 66.1942 267.411 67.0073 268.929 67.0073H272.344V74H266.083C264.186 74 262.641 73.5121 261.448 72.5364C260.256 71.5607 259.659 70.2326 259.659 68.5522V68.3083H258.44C258.006 69.1214 257.356 70.07 256.488 71.1542C255.621 72.2383 254.347 73.1869 252.667 74C250.986 74.7589 248.764 75.1383 245.999 75.1383ZM247.219 68.227C250.58 68.227 253.29 67.2784 255.35 65.3811C257.41 63.4297 258.44 60.7736 258.44 57.4128V56.5997H246.731C244.509 56.5997 242.72 57.0875 241.365 58.0632C240.009 58.9848 239.332 60.367 239.332 62.21C239.332 64.0531 240.036 65.5167 241.446 66.6008C242.855 67.6849 244.78 68.227 247.219 68.227ZM287.871 74C285.432 74 283.481 73.2682 282.017 71.8046C280.608 70.3411 279.903 68.3896 279.903 65.9503V40.9881H268.845V33.9142H279.903V20.6606H288.278V33.9142H300.23V40.9881H288.278V64.4867C288.278 66.1129 289.037 66.926 290.555 66.926H298.929V74H287.871ZM322.138 75.1383C318.072 75.1383 314.522 74.2981 311.486 72.6177C308.451 70.8831 306.065 68.4709 304.331 65.3811C302.65 62.2372 301.81 58.6053 301.81 54.4856V53.5099C301.81 49.336 302.65 45.7041 304.331 42.6143C306.011 39.4704 308.342 37.0582 311.324 35.3777C314.359 33.6431 317.855 32.7758 321.813 32.7758C325.661 32.7758 329.022 33.6431 331.895 35.3777C334.822 37.0582 337.099 39.4161 338.725 42.4517C340.351 45.4873 341.164 49.0378 341.164 53.1033V56.2744H310.348C310.456 59.7979 311.622 62.6166 313.844 64.7307C316.121 66.7905 318.94 67.8204 322.3 67.8204C325.444 67.8204 327.802 67.1158 329.374 65.7064C331.001 64.297 332.247 62.6708 333.115 60.8278L340.026 64.4054C339.267 65.9232 338.156 67.5223 336.692 69.2027C335.283 70.8831 333.413 72.2925 331.082 73.4308C328.751 74.5692 325.77 75.1383 322.138 75.1383ZM310.429 49.8509H332.627C332.41 46.8154 331.326 44.4574 329.374 42.777C327.423 41.0423 324.875 40.175 321.731 40.175C318.587 40.175 316.012 41.0423 314.007 42.777C312.055 44.4574 310.863 46.8154 310.429 49.8509Z"/>
</mask>
<path d="M96.5673 74V33.9142H104.78V38.6301H106.081C106.731 36.9497 107.761 35.7301 109.17 34.9712C110.634 34.1581 112.423 33.7515 114.537 33.7515H119.334V41.3134H114.212C111.501 41.3134 109.279 42.0723 107.544 43.5901C105.81 45.0536 104.942 47.3303 104.942 50.4201V74H96.5673ZM140.08 75.1383C136.014 75.1383 132.464 74.2981 129.428 72.6177C126.392 70.8831 124.007 68.4709 122.273 65.3811C120.592 62.2372 119.752 58.6053 119.752 54.4856V53.5099C119.752 49.336 120.592 45.7041 122.273 42.6143C123.953 39.4704 126.284 37.0582 129.265 35.3777C132.301 33.6431 135.797 32.7758 139.754 32.7758C143.603 32.7758 146.964 33.6431 149.837 35.3777C152.764 37.0582 155.041 39.4161 156.667 42.4517C158.293 45.4873 159.106 49.0378 159.106 53.1033V56.2744H128.29C128.398 59.7979 129.564 62.6166 131.786 64.7307C134.063 66.7905 136.881 67.8204 140.242 67.8204C143.386 67.8204 145.744 67.1158 147.316 65.7064C148.942 64.297 150.189 62.6708 151.056 60.8278L157.968 64.4054C157.209 65.9232 156.098 67.5223 154.634 69.2027C153.225 70.8831 151.355 72.2925 149.024 73.4308C146.693 74.5692 143.711 75.1383 140.08 75.1383ZM128.371 49.8509H150.569C150.352 46.8154 149.268 44.4574 147.316 42.777C145.365 41.0423 142.817 40.175 139.673 40.175C136.529 40.175 133.954 41.0423 131.949 42.777C129.997 44.4574 128.805 46.8154 128.371 49.8509ZM180.733 75.1383C175.638 75.1383 171.41 74 168.049 71.7233C164.688 69.4466 162.628 66.0045 161.869 61.397L169.675 59.5268C170.109 61.7493 170.841 63.511 171.871 64.812C172.9 66.1129 174.174 67.0344 175.692 67.5765C177.264 68.1186 178.945 68.3896 180.733 68.3896C183.389 68.3896 185.422 67.8746 186.832 66.8447C188.295 65.8148 189.027 64.4867 189.027 62.8605C189.027 61.2343 188.349 60.0418 186.994 59.2829C185.639 58.524 183.633 57.9006 180.977 57.4128L178.213 56.9249C175.502 56.437 173.036 55.7324 170.814 54.8108C168.591 53.8893 166.829 52.6155 165.528 50.9893C164.227 49.3631 163.577 47.2761 163.577 44.7284C163.577 40.9339 164.986 38.0068 167.805 35.9469C170.624 33.8329 174.364 32.7758 179.026 32.7758C183.525 32.7758 187.211 33.8058 190.084 35.8656C193.011 37.8713 194.908 40.6087 195.776 44.0779L187.97 46.2733C187.482 43.834 186.452 42.1265 184.88 41.1508C183.308 40.1208 181.357 39.6059 179.026 39.6059C176.749 39.6059 174.96 40.0395 173.659 40.9068C172.358 41.7199 171.708 42.8854 171.708 44.4032C171.708 46.0294 172.331 47.2219 173.578 47.9808C174.879 48.7397 176.614 49.3089 178.782 49.6883L181.628 50.1762C184.501 50.664 187.13 51.3416 189.515 52.2089C191.9 53.0762 193.77 54.323 195.125 55.9492C196.535 57.5754 197.239 59.7436 197.239 62.454C197.239 66.4653 195.749 69.5822 192.767 71.8046C189.786 74.0271 185.775 75.1383 180.733 75.1383ZM216.319 74C213.879 74 211.928 73.2682 210.464 71.8046C209.055 70.3411 208.35 68.3896 208.35 65.9503V40.9881H197.292V33.9142H208.35V20.6606H216.725V33.9142H228.678V40.9881H216.725V64.4867C216.725 66.1129 217.484 66.926 219.002 66.926H227.377V74H216.319ZM245.999 75.1383C243.126 75.1383 240.551 74.6505 238.275 73.6748C236.052 72.699 234.263 71.2626 232.908 69.3653C231.607 67.4681 230.957 65.1643 230.957 62.454C230.957 59.6894 231.607 57.4128 232.908 55.6239C234.263 53.7809 236.079 52.3986 238.356 51.4771C240.687 50.5556 243.316 50.0949 246.243 50.0949H258.44V47.4929C258.44 45.1621 257.735 43.2919 256.326 41.8826C254.916 40.4732 252.748 39.7685 249.821 39.7685C246.948 39.7685 244.752 40.4461 243.235 41.8012C241.717 43.1564 240.714 44.9181 240.226 47.0864L232.42 44.5658C233.071 42.3975 234.101 40.4461 235.51 38.7115C236.974 36.9226 238.898 35.4862 241.283 34.402C243.668 33.3179 246.541 32.7758 249.902 32.7758C255.106 32.7758 259.199 34.1039 262.18 36.76C265.161 39.4161 266.652 43.1835 266.652 48.0621V64.568C266.652 66.1942 267.411 67.0073 268.929 67.0073H272.344V74H266.083C264.186 74 262.641 73.5121 261.448 72.5364C260.256 71.5607 259.659 70.2326 259.659 68.5522V68.3083H258.44C258.006 69.1214 257.356 70.07 256.488 71.1542C255.621 72.2383 254.347 73.1869 252.667 74C250.986 74.7589 248.764 75.1383 245.999 75.1383ZM247.219 68.227C250.58 68.227 253.29 67.2784 255.35 65.3811C257.41 63.4297 258.44 60.7736 258.44 57.4128V56.5997H246.731C244.509 56.5997 242.72 57.0875 241.365 58.0632C240.009 58.9848 239.332 60.367 239.332 62.21C239.332 64.0531 240.036 65.5167 241.446 66.6008C242.855 67.6849 244.78 68.227 247.219 68.227ZM287.871 74C285.432 74 283.481 73.2682 282.017 71.8046C280.608 70.3411 279.903 68.3896 279.903 65.9503V40.9881H268.845V33.9142H279.903V20.6606H288.278V33.9142H300.23V40.9881H288.278V64.4867C288.278 66.1129 289.037 66.926 290.555 66.926H298.929V74H287.871ZM322.138 75.1383C318.072 75.1383 314.522 74.2981 311.486 72.6177C308.451 70.8831 306.065 68.4709 304.331 65.3811C302.65 62.2372 301.81 58.6053 301.81 54.4856V53.5099C301.81 49.336 302.65 45.7041 304.331 42.6143C306.011 39.4704 308.342 37.0582 311.324 35.3777C314.359 33.6431 317.855 32.7758 321.813 32.7758C325.661 32.7758 329.022 33.6431 331.895 35.3777C334.822 37.0582 337.099 39.4161 338.725 42.4517C340.351 45.4873 341.164 49.0378 341.164 53.1033V56.2744H310.348C310.456 59.7979 311.622 62.6166 313.844 64.7307C316.121 66.7905 318.94 67.8204 322.3 67.8204C325.444 67.8204 327.802 67.1158 329.374 65.7064C331.001 64.297 332.247 62.6708 333.115 60.8278L340.026 64.4054C339.267 65.9232 338.156 67.5223 336.692 69.2027C335.283 70.8831 333.413 72.2925 331.082 73.4308C328.751 74.5692 325.77 75.1383 322.138 75.1383ZM310.429 49.8509H332.627C332.41 46.8154 331.326 44.4574 329.374 42.777C327.423 41.0423 324.875 40.175 321.731 40.175C318.587 40.175 316.012 41.0423 314.007 42.777C312.055 44.4574 310.863 46.8154 310.429 49.8509Z" fill="#222452"/>
<path d="M96.5673 74H96.4673V74.1H96.5673V74ZM96.5673 33.9142V33.8142H96.4673V33.9142H96.5673ZM104.78 33.9142H104.88V33.8142H104.78V33.9142ZM104.78 38.6301H104.68V38.7301H104.78V38.6301ZM106.081 38.6301V38.7301H106.149L106.174 38.6662L106.081 38.6301ZM109.17 34.9712L109.218 35.0593L109.219 35.0586L109.17 34.9712ZM119.334 33.7515H119.434V33.6515H119.334V33.7515ZM119.334 41.3134V41.4134H119.434V41.3134H119.334ZM107.544 43.5901L107.609 43.6665L107.61 43.6653L107.544 43.5901ZM104.942 74V74.1H105.042V74H104.942ZM96.6673 74V33.9142H96.4673V74H96.6673ZM96.5673 34.0142H104.78V33.8142H96.5673V34.0142ZM104.68 33.9142V38.6301H104.88V33.9142H104.68ZM104.78 38.7301H106.081V38.5301H104.78V38.7301ZM106.174 38.6662C106.817 37.0051 107.832 35.8054 109.218 35.0592L109.123 34.8832C107.69 35.6548 106.645 36.8944 105.987 38.594L106.174 38.6662ZM109.219 35.0586C110.664 34.2557 112.435 33.8515 114.537 33.8515V33.6515C112.41 33.6515 110.604 34.0605 109.122 34.8838L109.219 35.0586ZM114.537 33.8515H119.334V33.6515H114.537V33.8515ZM119.234 33.7515V41.3134H119.434V33.7515H119.234ZM119.334 41.2134H114.212V41.4134H119.334V41.2134ZM114.212 41.2134C111.482 41.2134 109.234 41.9783 107.478 43.5148L107.61 43.6653C109.323 42.1662 111.521 41.4134 114.212 41.4134V41.2134ZM107.48 43.5136C105.715 45.0024 104.842 47.3121 104.842 50.4201H105.042C105.042 47.3486 105.904 45.1049 107.609 43.6665L107.48 43.5136ZM104.842 50.4201V74H105.042V50.4201H104.842ZM104.942 73.9H96.5673V74.1H104.942V73.9ZM129.428 72.6177L129.378 72.7046L129.38 72.7052L129.428 72.6177ZM122.273 65.3811L122.184 65.4283L122.186 65.4301L122.273 65.3811ZM122.273 42.6143L122.361 42.6621L122.361 42.6615L122.273 42.6143ZM129.265 35.3777L129.314 35.4649L129.315 35.4646L129.265 35.3777ZM149.837 35.3777L149.785 35.4634L149.787 35.4645L149.837 35.3777ZM156.667 42.4517L156.755 42.4045L156.755 42.4045L156.667 42.4517ZM159.106 56.2744V56.3744H159.206V56.2744H159.106ZM128.29 56.2744V56.1744H128.187L128.19 56.2775L128.29 56.2744ZM131.786 64.7307L131.717 64.8031L131.719 64.8048L131.786 64.7307ZM147.316 65.7064L147.251 65.6308L147.249 65.6319L147.316 65.7064ZM151.056 60.8278L151.102 60.739L151.01 60.6912L150.966 60.7852L151.056 60.8278ZM157.968 64.4054L158.057 64.4501L158.101 64.3619L158.014 64.3166L157.968 64.4054ZM154.634 69.2027L154.559 69.137L154.557 69.1384L154.634 69.2027ZM149.024 73.4308L149.068 73.5207L149.068 73.5207L149.024 73.4308ZM128.371 49.8509L128.272 49.8368L128.256 49.9509H128.371V49.8509ZM150.569 49.8509V49.9509H150.676L150.668 49.8438L150.569 49.8509ZM147.316 42.777L147.25 42.8517L147.251 42.8527L147.316 42.777ZM131.949 42.777L132.014 42.8527L132.014 42.8526L131.949 42.777ZM140.08 75.0383C136.028 75.0383 132.495 74.2011 129.476 72.5302L129.38 72.7052C132.432 74.3951 136 75.2383 140.08 75.2383V75.0383ZM129.478 72.5309C126.458 70.8054 124.086 68.4064 122.36 65.3322L122.186 65.4301C123.929 68.5354 126.327 70.9608 129.378 72.7046L129.478 72.5309ZM122.361 65.334C120.689 62.2066 119.852 58.5914 119.852 54.4856H119.652C119.652 58.6192 120.495 62.2677 122.185 65.4283L122.361 65.334ZM119.852 54.4856V53.5099H119.652V54.4856H119.852ZM119.852 53.5099C119.852 49.3495 120.689 45.7347 122.361 42.6621L122.185 42.5666C120.495 45.6735 119.652 49.3224 119.652 53.5099H119.852ZM122.361 42.6615C124.033 39.5335 126.35 37.1355 129.314 35.4649L129.216 35.2906C126.218 36.9808 123.873 39.4072 122.185 42.5672L122.361 42.6615ZM129.315 35.4646C132.334 33.7397 135.812 32.8758 139.754 32.8758V32.6758C135.782 32.6758 132.268 33.5466 129.216 35.2909L129.315 35.4646ZM139.754 32.8758C143.588 32.8758 146.93 33.7395 149.785 35.4634L149.888 35.2921C146.998 33.5468 143.619 32.6758 139.754 32.6758V32.8758ZM149.787 35.4645C152.698 37.1354 154.961 39.4795 156.579 42.4989L156.755 42.4045C155.12 39.3528 152.83 36.9809 149.887 35.291L149.787 35.4645ZM156.579 42.4989C158.196 45.5176 159.006 49.0513 159.006 53.1033H159.206C159.206 49.0243 158.39 45.457 156.755 42.4045L156.579 42.4989ZM159.006 53.1033V56.2744H159.206V53.1033H159.006ZM159.106 56.1744H128.29V56.3744H159.106V56.1744ZM128.19 56.2775C128.299 59.823 129.473 62.6682 131.717 64.8031L131.855 64.6582C129.654 62.565 128.497 59.7727 128.39 56.2713L128.19 56.2775ZM131.719 64.8048C134.016 66.8829 136.859 67.9204 140.242 67.9204V67.7204C136.904 67.7204 134.11 66.6981 131.853 64.6565L131.719 64.8048ZM140.242 67.9204C143.399 67.9204 145.785 67.2131 147.383 65.7808L147.249 65.6319C145.703 67.0184 143.373 67.7204 140.242 67.7204V67.9204ZM147.382 65.7819C149.018 64.364 150.273 62.7267 151.147 60.8704L150.966 60.7852C150.105 62.6149 148.867 64.23 147.251 65.6308L147.382 65.7819ZM151.01 60.9166L157.922 64.4942L158.014 64.3166L151.102 60.739L151.01 60.9166ZM157.878 64.3607C157.124 65.869 156.018 67.4611 154.559 69.137L154.71 69.2684C156.177 67.5835 157.294 65.9774 158.057 64.4501L157.878 64.3607ZM154.557 69.1384C153.159 70.8063 151.3 72.2077 148.98 73.341L149.068 73.5207C151.409 72.3773 153.291 70.9599 154.711 69.267L154.557 69.1384ZM148.98 73.341C146.667 74.4705 143.702 75.0383 140.08 75.0383V75.2383C143.721 75.2383 146.719 74.6678 149.068 73.5207L148.98 73.341ZM128.371 49.9509H150.569V49.7509H128.371V49.9509ZM150.668 49.8438C150.45 46.7869 149.357 44.4021 147.381 42.7012L147.251 42.8527C149.179 44.5126 150.254 46.8438 150.469 49.8581L150.668 49.8438ZM147.383 42.7022C145.409 40.9482 142.836 40.075 139.673 40.075V40.275C142.798 40.275 145.32 41.1365 147.25 42.8517L147.383 42.7022ZM139.673 40.075C136.51 40.075 133.91 40.9482 131.883 42.7013L132.014 42.8526C133.998 41.1365 136.548 40.275 139.673 40.275V40.075ZM131.883 42.7012C129.91 44.4003 128.708 46.7821 128.272 49.8368L128.47 49.8651C128.901 46.8486 130.084 44.5145 132.014 42.8527L131.883 42.7012ZM168.049 71.7233L168.105 71.6405L168.105 71.6405L168.049 71.7233ZM161.869 61.397L161.846 61.2997L161.756 61.3214L161.771 61.4132L161.869 61.397ZM169.675 59.5268L169.773 59.5077L169.753 59.4053L169.652 59.4296L169.675 59.5268ZM171.871 64.812L171.949 64.7499L171.949 64.7499L171.871 64.812ZM175.692 67.5765L175.658 67.6707L175.66 67.671L175.692 67.5765ZM186.832 66.8447L186.774 66.7629L186.773 66.764L186.832 66.8447ZM180.977 57.4128L180.995 57.3144L180.995 57.3143L180.977 57.4128ZM178.213 56.9249L178.195 57.0233L178.195 57.0234L178.213 56.9249ZM170.814 54.8108L170.775 54.9032L170.775 54.9032L170.814 54.8108ZM165.528 50.9893L165.606 50.9268L165.606 50.9268L165.528 50.9893ZM167.805 35.9469L167.864 36.0277L167.865 36.0269L167.805 35.9469ZM190.084 35.8656L190.026 35.9469L190.027 35.9481L190.084 35.8656ZM195.776 44.0779L195.803 44.1742L195.896 44.1479L195.873 44.0537L195.776 44.0779ZM187.97 46.2733L187.872 46.2929L187.893 46.3988L187.997 46.3696L187.97 46.2733ZM184.88 41.1508L184.825 41.2344L184.827 41.2357L184.88 41.1508ZM173.659 40.9068L173.712 40.9917L173.715 40.99L173.659 40.9068ZM173.578 47.9808L173.526 48.0662L173.528 48.0672L173.578 47.9808ZM178.782 49.6883L178.765 49.7868L178.765 49.7869L178.782 49.6883ZM181.628 50.1762L181.611 50.2747L181.611 50.2748L181.628 50.1762ZM195.125 55.9492L195.048 56.0132L195.05 56.0147L195.125 55.9492ZM192.767 71.8046L192.827 71.8848L192.827 71.8848L192.767 71.8046ZM180.733 75.0383C175.653 75.0383 171.446 73.9034 168.105 71.6405L167.993 71.8061C171.374 74.0966 175.623 75.2383 180.733 75.2383V75.0383ZM168.105 71.6405C164.77 69.3816 162.723 65.9656 161.968 61.3807L161.771 61.4132C162.533 66.0434 164.606 69.5117 167.993 71.8061L168.105 71.6405ZM161.893 61.4942L169.698 59.6241L169.652 59.4296L161.846 61.2997L161.893 61.4942ZM169.577 59.546C170.013 61.7787 170.749 63.5568 171.792 64.874L171.949 64.7499C170.932 63.4652 170.205 61.7199 169.773 59.5077L169.577 59.546ZM171.792 64.874C172.833 66.1892 174.123 67.1221 175.658 67.6707L175.726 67.4823C174.226 66.9468 172.968 66.0366 171.949 64.7499L171.792 64.874ZM175.66 67.671C177.243 68.217 178.934 68.4896 180.733 68.4896V68.2896C178.955 68.2896 177.285 68.0202 175.725 67.482L175.66 67.671ZM180.733 68.4896C183.4 68.4896 185.457 67.9729 186.891 66.9255L186.773 66.764C185.387 67.7764 183.379 68.2896 180.733 68.2896V68.4896ZM186.889 66.9265C188.376 65.88 189.127 64.5229 189.127 62.8605H188.927C188.927 64.4505 188.214 65.7495 186.774 66.7629L186.889 66.9265ZM189.127 62.8605C189.127 61.2002 188.432 59.9732 187.043 59.1956L186.945 59.3701C188.267 60.1103 188.927 61.2684 188.927 62.8605H189.127ZM187.043 59.1956C185.674 58.4288 183.656 57.803 180.995 57.3144L180.959 57.5111C183.611 57.9982 185.604 58.6192 186.945 59.3701L187.043 59.1956ZM180.995 57.3143L178.23 56.8264L178.195 57.0234L180.96 57.5112L180.995 57.3143ZM178.23 56.8265C175.526 56.3397 173.067 55.6369 170.852 54.7185L170.775 54.9032C173.005 55.8278 175.479 56.5344 178.195 57.0233L178.23 56.8265ZM170.852 54.7185C168.642 53.8024 166.895 52.5379 165.606 50.9268L165.45 51.0517C166.763 52.693 168.54 53.9763 170.775 54.9032L170.852 54.7185ZM165.606 50.9268C164.323 49.322 163.677 47.2586 163.677 44.7284H163.477C163.477 47.2936 164.132 49.4041 165.45 51.0517L165.606 50.9268ZM163.677 44.7284C163.677 40.9626 165.074 38.0669 167.864 36.0277L167.746 35.8662C164.899 37.9467 163.477 40.9052 163.477 44.7284H163.677ZM167.865 36.0269C170.662 33.9295 174.379 32.8758 179.026 32.8758V32.6758C174.349 32.6758 170.586 33.7362 167.745 35.8669L167.865 36.0269ZM179.026 32.8758C183.51 32.8758 187.174 33.9022 190.026 35.9469L190.142 35.7843C187.248 33.7093 183.54 32.6758 179.026 32.6758V32.8758ZM190.027 35.9481C192.934 37.9398 194.817 40.6565 195.679 44.1022L195.873 44.0537C195 40.5609 193.088 37.8027 190.141 35.7831L190.027 35.9481ZM195.749 43.9817L187.943 46.177L187.997 46.3696L195.803 44.1742L195.749 43.9817ZM188.068 46.2537C187.577 43.797 186.536 42.0606 184.933 41.0658L184.827 41.2357C186.369 42.1923 187.387 43.871 187.872 46.2929L188.068 46.2537ZM184.935 41.0671C183.343 40.0242 181.371 39.5059 179.026 39.5059V39.7059C181.342 39.7059 183.273 40.2175 184.825 41.2344L184.935 41.0671ZM179.026 39.5059C176.738 39.5059 174.927 39.9414 173.604 40.8236L173.715 40.99C174.993 40.1376 176.76 39.7059 179.026 39.7059V39.5059ZM173.606 40.822C172.277 41.6532 171.608 42.8504 171.608 44.4032H171.808C171.808 42.9203 172.44 41.7867 173.712 40.9916L173.606 40.822ZM171.608 44.4032C171.608 46.0595 172.246 47.2868 173.526 48.0662L173.63 47.8954C172.417 47.157 171.808 45.9992 171.808 44.4032H171.608ZM173.528 48.0672C174.842 48.8341 176.59 49.4062 178.765 49.7868L178.799 49.5898C176.638 49.2115 174.916 48.6453 173.628 47.8944L173.528 48.0672ZM178.765 49.7869L181.611 50.2747L181.645 50.0776L178.799 49.5897L178.765 49.7869ZM181.611 50.2748C184.479 50.7618 187.102 51.4379 189.481 52.3029L189.549 52.1149C187.157 51.2453 184.523 50.5663 181.644 50.0776L181.611 50.2748ZM189.481 52.3029C191.852 53.1654 193.707 54.4031 195.048 56.0132L195.202 55.8852C193.833 54.2429 191.947 52.9871 189.549 52.1149L189.481 52.3029ZM195.05 56.0147C196.439 57.6184 197.139 59.7613 197.139 62.454H197.339C197.339 59.726 196.63 57.5324 195.201 55.8837L195.05 56.0147ZM197.139 62.454C197.139 66.4366 195.661 69.5225 192.707 71.7245L192.827 71.8848C195.836 69.6418 197.339 66.494 197.339 62.454H197.139ZM192.707 71.7245C189.749 73.9302 185.761 75.0383 180.733 75.0383V75.2383C185.789 75.2383 189.823 74.124 192.827 71.8848L192.707 71.7245ZM210.464 71.8046L210.392 71.874L210.393 71.8753L210.464 71.8046ZM208.35 40.9881H208.45V40.8881H208.35V40.9881ZM197.292 40.9881H197.192V41.0881H197.292V40.9881ZM197.292 33.9142V33.8142H197.192V33.9142H197.292ZM208.35 33.9142V34.0142H208.45V33.9142H208.35ZM208.35 20.6606V20.5606H208.25V20.6606H208.35ZM216.725 20.6606H216.825V20.5606H216.725V20.6606ZM216.725 33.9142H216.625V34.0142H216.725V33.9142ZM228.678 33.9142H228.778V33.8142H228.678V33.9142ZM228.678 40.9881V41.0881H228.778V40.9881H228.678ZM216.725 40.9881V40.8881H216.625V40.9881H216.725ZM227.377 66.926H227.477V66.826H227.377V66.926ZM227.377 74V74.1H227.477V74H227.377ZM216.319 73.9C213.901 73.9 211.976 73.1754 210.535 71.7339L210.393 71.8753C211.879 73.361 213.858 74.1 216.319 74.1V73.9ZM210.536 71.7353C209.148 70.2939 208.45 68.3693 208.45 65.9503H208.25C208.25 68.41 208.961 70.3882 210.392 71.874L210.536 71.7353ZM208.45 65.9503V40.9881H208.25V65.9503H208.45ZM208.35 40.8881H197.292V41.0881H208.35V40.8881ZM197.392 40.9881V33.9142H197.192V40.9881H197.392ZM197.292 34.0142H208.35V33.8142H197.292V34.0142ZM208.45 33.9142V20.6606H208.25V33.9142H208.45ZM208.35 20.7606H216.725V20.5606H208.35V20.7606ZM216.625 20.6606V33.9142H216.825V20.6606H216.625ZM216.725 34.0142H228.678V33.8142H216.725V34.0142ZM228.578 33.9142V40.9881H228.778V33.9142H228.578ZM228.678 40.8881H216.725V41.0881H228.678V40.8881ZM216.625 40.9881V64.4867H216.825V40.9881H216.625ZM216.625 64.4867C216.625 65.3136 216.818 65.9524 217.221 66.3844C217.626 66.8178 218.226 67.026 219.002 67.026V66.826C218.26 66.826 217.722 66.6277 217.367 66.248C217.012 65.8669 216.825 65.2861 216.825 64.4867H216.625ZM219.002 67.026H227.377V66.826H219.002V67.026ZM227.277 66.926V74H227.477V66.926H227.277ZM227.377 73.9H216.319V74.1H227.377V73.9ZM238.275 73.6748L238.235 73.7663L238.235 73.7667L238.275 73.6748ZM232.908 69.3653L232.826 69.4219L232.827 69.4235L232.908 69.3653ZM232.908 55.6239L232.828 55.5647L232.827 55.5651L232.908 55.6239ZM238.356 51.4771L238.319 51.3841L238.319 51.3844L238.356 51.4771ZM258.44 50.0949V50.1949H258.54V50.0949H258.44ZM256.326 41.8826L256.255 41.9533L256.255 41.9533L256.326 41.8826ZM240.226 47.0864L240.195 47.1815L240.3 47.2152L240.324 47.1083L240.226 47.0864ZM232.42 44.5658L232.325 44.537L232.297 44.6308L232.39 44.6609L232.42 44.5658ZM235.51 38.7115L235.433 38.6481L235.433 38.6484L235.51 38.7115ZM262.18 36.76L262.246 36.6854L262.246 36.6854L262.18 36.76ZM272.344 67.0073H272.444V66.9073H272.344V67.0073ZM272.344 74V74.1H272.444V74H272.344ZM261.448 72.5364L261.511 72.459L261.511 72.459L261.448 72.5364ZM259.659 68.3083H259.759V68.2083H259.659V68.3083ZM258.44 68.3083V68.2083H258.38L258.351 68.2612L258.44 68.3083ZM256.488 71.1542L256.566 71.2166L256.566 71.2166L256.488 71.1542ZM252.667 74L252.708 74.0912L252.71 74.09L252.667 74ZM255.35 65.3811L255.418 65.4547L255.419 65.4537L255.35 65.3811ZM258.44 56.5997H258.54V56.4997H258.44V56.5997ZM241.365 58.0632L241.421 58.146L241.423 58.1444L241.365 58.0632ZM245.999 75.0383C243.138 75.0383 240.577 74.5524 238.314 73.5828L238.235 73.7667C240.526 74.7485 243.115 75.2383 245.999 75.2383V75.0383ZM238.315 73.5832C236.108 72.6144 234.334 71.1892 232.99 69.3072L232.827 69.4235C234.193 71.336 235.996 72.7837 238.235 73.7663L238.315 73.5832ZM232.991 69.3088C231.703 67.431 231.057 65.1478 231.057 62.454H230.857C230.857 65.1808 231.512 67.5052 232.826 69.4219L232.991 69.3088ZM231.057 62.454C231.057 59.7052 231.703 57.4506 232.989 55.6828L232.827 55.5651C231.511 57.3749 230.857 59.6736 230.857 62.454H231.057ZM232.989 55.6832C234.332 53.8562 236.133 52.4849 238.394 51.5698L238.319 51.3844C236.026 52.3124 234.195 53.7056 232.828 55.5647L232.989 55.6832ZM238.393 51.5701C240.71 50.6539 243.326 50.1949 246.243 50.1949V49.9949C243.305 49.9949 240.664 50.4573 238.319 51.3841L238.393 51.5701ZM246.243 50.1949H258.44V49.9949H246.243V50.1949ZM258.54 50.0949V47.4929H258.34V50.0949H258.54ZM258.54 47.4929C258.54 45.1404 257.828 43.2431 256.396 41.8118L256.255 41.9533C257.642 43.3407 258.34 45.1837 258.34 47.4929H258.54ZM256.396 41.8118C254.961 40.3765 252.762 39.6685 249.821 39.6685V39.8685C252.734 39.8685 254.871 40.5699 256.255 41.9533L256.396 41.8118ZM249.821 39.6685C246.933 39.6685 244.711 40.3495 243.168 41.7266L243.301 41.8758C244.794 40.5427 246.962 39.8685 249.821 39.8685V39.6685ZM243.168 41.7266C241.633 43.097 240.621 44.8778 240.129 47.0644L240.324 47.1083C240.807 44.9584 241.8 43.2158 243.301 41.8758L243.168 41.7266ZM240.257 46.9912L232.451 44.4706L232.39 44.6609L240.195 47.1815L240.257 46.9912ZM232.516 44.5945C233.163 42.4386 234.187 40.4989 235.588 38.7745L235.433 38.6484C234.015 40.3933 232.979 42.3564 232.325 44.537L232.516 44.5945ZM235.588 38.7748C237.04 36.9993 238.952 35.5717 241.325 34.4931L241.242 34.311C238.845 35.4006 236.907 36.8459 235.433 38.6481L235.588 38.7748ZM241.325 34.4931C243.694 33.4163 246.552 32.8758 249.902 32.8758V32.6758C246.531 32.6758 243.643 33.2195 241.242 34.311L241.325 34.4931ZM249.902 32.8758C255.089 32.8758 259.155 34.1993 262.113 36.8347L262.246 36.6854C259.242 34.0085 255.123 32.6758 249.902 32.6758V32.8758ZM262.113 36.8347C265.069 39.4677 266.552 43.2052 266.552 48.0621H266.752C266.752 43.1618 265.254 39.3646 262.246 36.6854L262.113 36.8347ZM266.552 48.0621V64.568H266.752V48.0621H266.552ZM266.552 64.568C266.552 65.3949 266.745 66.0337 267.148 66.4657C267.553 66.8991 268.152 67.1073 268.929 67.1073V66.9073C268.187 66.9073 267.649 66.709 267.294 66.3293C266.939 65.9483 266.752 65.3674 266.752 64.568H266.552ZM268.929 67.1073H272.344V66.9073H268.929V67.1073ZM272.244 67.0073V74H272.444V67.0073H272.244ZM272.344 73.9H266.083V74.1H272.344V73.9ZM266.083 73.9C264.203 73.9 262.682 73.417 261.511 72.459L261.385 72.6138C262.599 73.6073 264.168 74.1 266.083 74.1V73.9ZM261.511 72.459C260.344 71.5042 259.759 70.2057 259.759 68.5522H259.559C259.559 70.2595 260.167 71.6172 261.385 72.6138L261.511 72.459ZM259.759 68.5522V68.3083H259.559V68.5522H259.759ZM259.659 68.2083H258.44V68.4083H259.659V68.2083ZM258.351 68.2612C257.922 69.0669 257.275 70.0102 256.41 71.0917L256.566 71.2166C257.436 70.1298 258.09 69.1759 258.528 68.3554L258.351 68.2612ZM256.41 71.0917C255.555 72.1609 254.294 73.1013 252.623 73.91L252.71 74.09C254.4 73.2725 255.687 72.3157 256.566 71.2166L256.41 71.0917ZM252.625 73.9089C250.963 74.6597 248.756 75.0383 245.999 75.0383V75.2383C248.772 75.2383 251.01 74.858 252.708 74.0911L252.625 73.9089ZM247.219 68.327C250.599 68.327 253.336 67.3722 255.418 65.4547L255.282 65.3076C253.244 67.1845 250.56 68.127 247.219 68.127V68.327ZM255.419 65.4537C257.502 63.4799 258.54 60.7955 258.54 57.4128H258.34C258.34 60.7516 257.317 63.3795 255.281 65.3085L255.419 65.4537ZM258.54 57.4128V56.5997H258.34V57.4128H258.54ZM258.44 56.4997H246.731V56.6997H258.44V56.4997ZM246.731 56.4997C244.494 56.4997 242.683 56.9906 241.306 57.9821L241.423 58.1444C242.756 57.1844 244.523 56.6997 246.731 56.6997V56.4997ZM241.308 57.9805C239.922 58.9232 239.232 60.3387 239.232 62.21H239.432C239.432 60.3953 240.097 59.0463 241.421 58.1459L241.308 57.9805ZM239.232 62.21C239.232 64.0828 239.95 65.5762 241.385 66.6801L241.507 66.5215C240.123 65.4571 239.432 64.0234 239.432 62.21H239.232ZM241.385 66.6801C242.817 67.7818 244.766 68.327 247.219 68.327V68.127C244.794 68.127 242.893 67.588 241.507 66.5215L241.385 66.6801ZM282.017 71.8046L281.945 71.874L281.946 71.8753L282.017 71.8046ZM279.903 40.9881H280.003V40.8881H279.903V40.9881ZM268.845 40.9881H268.745V41.0881H268.845V40.9881ZM268.845 33.9142V33.8142H268.745V33.9142H268.845ZM279.903 33.9142V34.0142H280.003V33.9142H279.903ZM279.903 20.6606V20.5606H279.803V20.6606H279.903ZM288.278 20.6606H288.378V20.5606H288.278V20.6606ZM288.278 33.9142H288.178V34.0142H288.278V33.9142ZM300.23 33.9142H300.33V33.8142H300.23V33.9142ZM300.23 40.9881V41.0881H300.33V40.9881H300.23ZM288.278 40.9881V40.8881H288.178V40.9881H288.278ZM298.929 66.926H299.029V66.826H298.929V66.926ZM298.929 74V74.1H299.029V74H298.929ZM287.871 73.9C285.453 73.9 283.529 73.1754 282.088 71.7339L281.946 71.8753C283.432 73.361 285.411 74.1 287.871 74.1V73.9ZM282.089 71.7353C280.701 70.2939 280.003 68.3693 280.003 65.9503H279.803C279.803 68.41 280.514 70.3882 281.945 71.874L282.089 71.7353ZM280.003 65.9503V40.9881H279.803V65.9503H280.003ZM279.903 40.8881H268.845V41.0881H279.903V40.8881ZM268.945 40.9881V33.9142H268.745V40.9881H268.945ZM268.845 34.0142H279.903V33.8142H268.845V34.0142ZM280.003 33.9142V20.6606H279.803V33.9142H280.003ZM279.903 20.7606H288.278V20.5606H279.903V20.7606ZM288.178 20.6606V33.9142H288.378V20.6606H288.178ZM288.278 34.0142H300.23V33.8142H288.278V34.0142ZM300.13 33.9142V40.9881H300.33V33.9142H300.13ZM300.23 40.8881H288.278V41.0881H300.23V40.8881ZM288.178 40.9881V64.4867H288.378V40.9881H288.178ZM288.178 64.4867C288.178 65.3136 288.371 65.9524 288.774 66.3844C289.178 66.8178 289.778 67.026 290.555 67.026V66.826C289.813 66.826 289.275 66.6277 288.92 66.248C288.565 65.8669 288.378 65.2861 288.378 64.4867H288.178ZM290.555 67.026H298.929V66.826H290.555V67.026ZM298.829 66.926V74H299.029V66.926H298.829ZM298.929 73.9H287.871V74.1H298.929V73.9ZM311.486 72.6177L311.437 72.7046L311.438 72.7052L311.486 72.6177ZM304.331 65.3811L304.243 65.4283L304.244 65.4301L304.331 65.3811ZM304.331 42.6143L304.419 42.6621L304.419 42.6615L304.331 42.6143ZM311.324 35.3777L311.373 35.4649L311.373 35.4646L311.324 35.3777ZM331.895 35.3777L331.843 35.4634L331.845 35.4645L331.895 35.3777ZM338.725 42.4517L338.813 42.4045L338.813 42.4045L338.725 42.4517ZM341.164 56.2744V56.3744H341.264V56.2744H341.164ZM310.348 56.2744V56.1744H310.245L310.248 56.2775L310.348 56.2744ZM313.844 64.7307L313.775 64.8031L313.777 64.8048L313.844 64.7307ZM329.374 65.7064L329.309 65.6308L329.308 65.6319L329.374 65.7064ZM333.115 60.8278L333.161 60.739L333.068 60.6912L333.024 60.7852L333.115 60.8278ZM340.026 64.4054L340.115 64.4501L340.16 64.3619L340.072 64.3166L340.026 64.4054ZM336.692 69.2027L336.617 69.137L336.616 69.1384L336.692 69.2027ZM331.082 73.4308L331.126 73.5207L331.126 73.5207L331.082 73.4308ZM310.429 49.8509L310.33 49.8368L310.314 49.9509H310.429V49.8509ZM332.627 49.8509V49.9509H332.734L332.727 49.8438L332.627 49.8509ZM329.374 42.777L329.308 42.8517L329.309 42.8527L329.374 42.777ZM314.007 42.777L314.072 42.8527L314.072 42.8526L314.007 42.777ZM322.138 75.0383C318.086 75.0383 314.553 74.2011 311.535 72.5302L311.438 72.7052C314.49 74.3951 318.058 75.2383 322.138 75.2383V75.0383ZM311.536 72.5309C308.516 70.8054 306.144 68.4064 304.418 65.3322L304.244 65.4301C305.987 68.5354 308.385 70.9608 311.437 72.7046L311.536 72.5309ZM304.419 65.334C302.748 62.2066 301.91 58.5914 301.91 54.4856H301.71C301.71 58.6192 302.553 62.2677 304.243 65.4283L304.419 65.334ZM301.91 54.4856V53.5099H301.71V54.4856H301.91ZM301.91 53.5099C301.91 49.3495 302.748 45.7347 304.419 42.6621L304.243 42.5666C302.553 45.6735 301.71 49.3224 301.71 53.5099H301.91ZM304.419 42.6615C306.091 39.5335 308.409 37.1355 311.373 35.4649L311.274 35.2906C308.276 36.9808 305.932 39.4072 304.243 42.5672L304.419 42.6615ZM311.373 35.4646C314.392 33.7397 317.871 32.8758 321.813 32.8758V32.6758C317.84 32.6758 314.327 33.5466 311.274 35.2909L311.373 35.4646ZM321.813 32.8758C325.646 32.8758 328.988 33.7395 331.843 35.4634L331.947 35.2921C329.056 33.5468 325.677 32.6758 321.813 32.6758V32.8758ZM331.845 35.4645C334.756 37.1354 337.019 39.4795 338.637 42.4989L338.813 42.4045C337.178 39.3528 334.888 36.9809 331.945 35.291L331.845 35.4645ZM338.637 42.4989C340.254 45.5176 341.064 49.0513 341.064 53.1033H341.264C341.264 49.0243 340.448 45.457 338.813 42.4045L338.637 42.4989ZM341.064 53.1033V56.2744H341.264V53.1033H341.064ZM341.164 56.1744H310.348V56.3744H341.164V56.1744ZM310.248 56.2775C310.357 59.823 311.531 62.6682 313.775 64.8031L313.913 64.6582C311.713 62.565 310.556 59.7727 310.448 56.2713L310.248 56.2775ZM313.777 64.8048C316.074 66.8829 318.917 67.9204 322.3 67.9204V67.7204C318.962 67.7204 316.168 66.6981 313.911 64.6565L313.777 64.8048ZM322.3 67.9204C325.457 67.9204 327.844 67.2131 329.441 65.7808L329.308 65.6319C327.761 67.0184 325.431 67.7204 322.3 67.7204V67.9204ZM329.44 65.7819C331.076 64.364 332.332 62.7267 333.205 60.8704L333.024 60.7852C332.163 62.6149 330.925 64.23 329.309 65.6308L329.44 65.7819ZM333.069 60.9166L339.98 64.4942L340.072 64.3166L333.161 60.739L333.069 60.9166ZM339.937 64.3607C339.182 65.869 338.077 67.4611 336.617 69.137L336.768 69.2684C338.235 67.5835 339.352 65.9774 340.115 64.4501L339.937 64.3607ZM336.616 69.1384C335.217 70.8063 333.359 72.2077 331.038 73.341L331.126 73.5207C333.467 72.3773 335.349 70.9599 336.769 69.267L336.616 69.1384ZM331.038 73.341C328.725 74.4705 325.76 75.0383 322.138 75.0383V75.2383C325.779 75.2383 328.777 74.6678 331.126 73.5207L331.038 73.341ZM310.429 49.9509H332.627V49.7509H310.429V49.9509ZM332.727 49.8438C332.508 46.7869 331.415 44.4021 329.44 42.7012L329.309 42.8527C331.237 44.5126 332.312 46.8438 332.527 49.8581L332.727 49.8438ZM329.441 42.7022C327.467 40.9482 324.894 40.075 321.731 40.075V40.275C324.856 40.275 327.378 41.1365 329.308 42.8517L329.441 42.7022ZM321.731 40.075C318.568 40.075 315.968 40.9482 313.941 42.7013L314.072 42.8526C316.056 41.1365 318.607 40.275 321.731 40.275V40.075ZM313.942 42.7012C311.968 44.4003 310.767 46.7821 310.33 49.8368L310.528 49.8651C310.959 46.8486 312.142 44.5145 314.072 42.8527L313.942 42.7012Z" fill="#222452" mask="url(#path-2-outside-1_28_4)"/>
</svg>
