<?xml version="1.0" encoding="UTF-8" standalone="no"?>
<!-- Created with Inkscape (http://www.inkscape.org/) -->
<svg
   xmlns:svg="http://www.w3.org/2000/svg"
   xmlns="http://www.w3.org/2000/svg"
   version="1.0"
   width="533"
   height="192"
   viewBox="-0.563 -0.659 533 192"
   id="svg2"
   xml:space="preserve">
	<defs
   id="defs4">
	</defs>
	<g
   id="g6">
		<rect
   width="532.237"
   height="190.625"
   x="0"
   y="0"
   style="fill:#f6e025;fill-rule:evenodd"
   id="rect8" /> 
		<polyline
   clip-rule="evenodd"
   points="429.757,108.7 434.479,86.421 103.834,86.421     99.102,108.7 429.757,108.7 "
   id="polyline10"
   fill-rule="evenodd"
   fill="#FFFFFF"
   style="fill:#ffffff;fill-rule:evenodd" />
		<polyline
   clip-rule="evenodd"
   points="452.048,22.279 488.538,22.279 482.904,49.291     509.937,49.291 502.724,83.268 475.702,83.268 470.519,108.7 440.563,108.7 442.363,99.924 463.085,99.924 468.493,74.723     495.521,74.723 499.13,57.836 471.872,57.836 477.501,31.056 459.261,31.056 453.626,57.836 444.619,57.836 452.048,22.279 "
   id="polyline12"
   fill-rule="evenodd"
   fill="#FF2A0C"
   style="fill:#ff2a0c;fill-rule:evenodd" />
		<polyline
   clip-rule="evenodd"
   points="205.638,50.413 195.733,50.413 195.508,50.639 181.092,81.92     180.866,50.864 180.866,50.413 168.701,50.413 168.701,50.639 154.961,81.92 153.839,50.864 153.839,50.413 144.375,50.413     144.375,50.864 147.077,93.624 147.077,94.075 158.34,94.075 158.56,93.624 172.976,61.214 173.202,93.624 173.202,94.075     184.69,94.075 184.916,93.624 205.192,51.09 205.638,50.413 "
   id="polyline14"
   fill-rule="evenodd"
   style="fill-rule:evenodd" />
		<polyline
   clip-rule="evenodd"
   points="217.578,50.413 207.668,50.413 207.668,50.639 198.655,93.398     198.43,94.075 208.345,94.075 208.345,93.624 217.352,50.864 217.578,50.413 "
   id="polyline16"
   fill-rule="evenodd"
   style="fill-rule:evenodd" />
		<path
   d="M 265.552,49.516 C 258.118,49.516 249.337,53.115 249.337,63.019 C 249.337,69.54 253.838,72.016 257.893,74.271 C 261.051,76.07 263.747,77.644 263.747,80.792 C 263.747,85.073 259.923,87.098 256.093,87.098 C 252.484,87.098 248.885,85.524 245.732,84.171 L 245.281,83.945 L 245.281,84.396 L 243.025,91.819 L 242.805,92.045 L 243.256,92.271 C 247.762,93.845 251.812,94.747 255.642,94.747 C 261.948,94.747 266.9,93.173 269.832,90.026 C 272.533,87.55 273.662,84.172 273.662,79.896 C 273.662,72.919 268.704,69.992 264.649,67.741 C 261.727,65.947 259.02,64.368 259.02,61.666 C 259.02,60.764 259.471,59.867 260.148,59.19 C 261.502,57.616 263.972,57.165 265.777,57.165 C 268.704,57.165 271.862,58.062 274.565,59.415 L 275.016,59.641 L 275.241,59.19 L 277.266,51.993 L 277.266,51.767 L 276.815,51.541 C 273.663,50.188 269.833,49.516 265.552,49.516"
   style="fill-rule:evenodd"
   id="path18" />
		<path
   d="M 246.41,51.767 L 246.184,51.541 C 243.026,50.187 239.196,49.516 234.921,49.516 C 227.262,49.516 218.48,53.115 218.48,63.019 C 218.48,69.54 222.986,72.016 227.036,74.271 C 230.189,76.07 233.121,77.644 233.121,80.792 C 233.121,85.073 229.286,87.098 225.456,87.098 C 221.632,87.098 218.028,85.524 215.101,84.171 L 214.65,83.945 L 214.424,84.396 L 212.168,91.819 L 212.168,92.045 L 212.619,92.271 C 216.9,93.845 221.181,94.747 224.779,94.747 C 231.09,94.747 236.048,93.173 239.195,90.026 C 241.676,87.55 243.025,84.172 243.025,79.896 C 243.025,72.919 237.847,69.992 234.018,67.741 C 230.865,65.947 228.389,64.368 228.389,61.666 C 228.389,60.764 228.615,59.867 229.286,59.19 C 230.865,57.616 233.121,57.165 235.146,57.165 C 237.848,57.165 241,58.062 243.702,59.415 L 244.153,59.641 L 244.379,59.19 L 246.409,51.993 L 246.409,51.767"
   style="fill-rule:evenodd"
   id="path20" />
		<path
   d="M 131.087,49.516 C 123.653,49.516 114.872,53.115 114.872,63.019 C 114.872,69.54 119.373,72.016 123.428,74.271 C 126.581,76.07 129.508,77.644 129.508,80.792 C 129.508,85.073 125.453,87.098 121.623,87.098 C 118.024,87.098 114.42,85.524 111.488,84.171 L 111.042,83.945 L 110.811,84.396 L 108.561,91.819 L 108.561,92.045 L 108.787,92.271 C 113.293,93.845 117.349,94.747 121.173,94.747 C 127.484,94.747 132.436,93.173 135.589,90.026 C 138.07,87.55 139.198,84.172 139.198,79.896 C 139.198,72.919 134.24,69.992 130.191,67.741 C 127.258,65.947 124.557,64.368 124.557,61.666 C 124.557,60.764 125.008,59.867 125.685,59.19 C 127.033,57.616 129.509,57.165 131.314,57.165 C 134.241,57.165 137.394,58.062 140.096,59.415 L 140.547,59.641 L 140.773,59.19 L 142.803,51.993 L 142.803,51.767 L 142.352,51.541 C 139.197,50.188 135.588,49.516 131.087,49.516"
   style="fill-rule:evenodd"
   id="path22" />
		<path
   d="M 305.196,57.836 L 307.441,57.836 C 309.471,57.836 311.276,58.738 312.399,59.866 C 313.532,60.989 314.204,62.568 314.204,64.367 C 314.204,69.314 309.246,72.015 304.739,72.015 L 302.274,72.015 L 305.196,57.836 M 304.971,50.413 L 297.318,50.413 L 297.318,50.639 L 288.08,93.398 L 288.08,94.075 L 297.538,94.075 L 297.538,93.624 C 297.538,93.624 300.471,80.572 300.691,79.67 L 305.197,79.67 C 311.051,79.67 316.229,77.645 319.607,74.272 C 322.535,71.345 323.888,67.741 323.888,63.24 C 323.888,59.867 322.992,57.165 320.736,55.135 C 316.905,51.09 309.929,50.413 304.971,50.413 z "
   style="fill-rule:evenodd"
   id="path24" />
		<path
   d="M 342.805,87.323 C 340.554,87.323 338.534,86.421 337.176,85.073 C 335.382,83.268 334.249,80.341 334.249,77.199 C 334.249,71.119 336.729,64.819 340.339,60.989 C 342.805,58.513 345.732,57.39 349.116,57.39 C 351.596,57.39 353.401,58.061 354.975,59.64 C 356.774,61.439 357.671,64.141 357.671,67.514 C 357.672,75.62 352.494,87.323 342.805,87.323 M 362.63,54.463 C 359.477,51.316 354.976,49.736 349.341,49.736 C 341.688,49.736 336.278,52.212 331.321,57.836 C 327.046,63.019 324.564,69.765 324.564,76.748 C 324.564,82.146 326.369,86.873 329.516,90.251 C 332.668,93.173 336.955,94.972 341.912,94.972 C 349.566,94.972 355.871,92.27 360.373,87.549 C 364.885,82.371 367.586,75.394 367.586,68.417 C 367.587,62.342 366.008,57.836 362.63,54.463 z "
   style="fill-rule:evenodd"
   id="path26" />
		<path
   d="M 400.018,51.767 C 396.865,50.413 393.04,49.737 388.755,49.737 C 381.326,49.737 372.314,53.341 372.314,63.02 C 372.314,69.541 377.046,72.242 380.876,74.493 C 384.254,76.298 386.956,77.871 386.956,81.019 C 386.956,85.3 383.127,87.325 379.303,87.325 C 375.467,87.325 372.089,85.746 368.936,84.398 L 368.716,84.172 L 368.49,84.172 L 368.264,84.623 L 366.24,91.82 L 366.009,92.271 L 366.24,92.271 L 366.465,92.497 C 370.736,94.076 375.022,94.973 378.846,94.973 C 384.932,94.973 389.889,93.174 393.041,90.026 C 395.512,87.55 396.865,84.397 396.865,80.122 C 396.865,73.145 391.914,70.218 387.858,67.742 C 384.705,66.168 382.224,64.595 382.224,61.893 C 382.224,60.765 382.675,59.868 383.351,59.191 C 384.931,57.392 388.083,57.392 388.98,57.392 C 391.914,57.392 395.06,58.063 397.543,59.417 L 397.994,59.643 L 398.219,59.869 L 398.219,59.192 L 400.244,52.215 L 400.47,51.995 L 400.47,51.769 L 400.018,51.769"
   style="fill-rule:evenodd"
   id="path28" />
		<path
   d="M 436.729,50.413 L 402.95,50.413 L 402.95,50.639 L 401.371,57.39 L 401.371,57.836 L 413.306,57.836 L 405.652,93.398 L 405.652,94.075 L 415.337,94.075 L 415.563,93.844 L 415.563,93.624 C 415.563,93.624 422.771,59.641 423.217,57.836 L 435.382,57.836 L 435.382,57.616 L 436.731,50.865 L 436.956,50.414 L 436.729,50.414"
   style="fill-rule:evenodd"
   id="path30" />
	</g>
</svg>