<?xml version="1.0" encoding="UTF-8" standalone="no"?>
<svg
   xmlns:dc="http://purl.org/dc/elements/1.1/"
   xmlns:cc="http://creativecommons.org/ns#"
   xmlns:rdf="http://www.w3.org/1999/02/22-rdf-syntax-ns#"
   xmlns:svg="http://www.w3.org/2000/svg"
   xmlns="http://www.w3.org/2000/svg"
   xmlns:sodipodi="http://sodipodi.sourceforge.net/DTD/sodipodi-0.dtd"
   xmlns:inkscape="http://www.inkscape.org/namespaces/inkscape"
   width="300"
   height="83"
   viewBox="0 0 586 161"
   version="1.0"
   id="svg2"
   sodipodi:version="0.32"
   inkscape:version="0.46"
   sodipodi:docname="Logo_Swiss_Post_Solutions_-_GHP_Kopie.svg"
   inkscape:output_extension="org.inkscape.output.svg.inkscape">
  <metadata
     id="metadata45">
    <rdf:RDF>
      <cc:Work
         rdf:about="">
        <dc:format>image/svg+xml</dc:format>
        <dc:type
           rdf:resource="http://purl.org/dc/dcmitype/StillImage" />
      </cc:Work>
    </rdf:RDF>
  </metadata>
  <defs
     id="defs43">
    <inkscape:perspective
       sodipodi:type="inkscape:persp3d"
       inkscape:vp_x="0 : 100.625 : 1"
       inkscape:vp_y="0 : 1000 : 0"
       inkscape:vp_z="732.5 : 100.625 : 1"
       inkscape:persp3d-origin="366.25 : 67.083333 : 1"
       id="perspective47" />
  </defs>
  <sodipodi:namedview
     inkscape:window-height="669"
     inkscape:window-width="640"
     inkscape:pageshadow="2"
     inkscape:pageopacity="0.0"
     guidetolerance="10.0"
     gridtolerance="10.0"
     objecttolerance="10.0"
     borderopacity="1.0"
     bordercolor="#666666"
     pagecolor="#ffffff"
     id="base"
     showgrid="false"
     inkscape:zoom="0.74266212"
     inkscape:cx="366.25"
     inkscape:cy="100.625"
     inkscape:window-x="69"
     inkscape:window-y="69"
     inkscape:current-layer="svg2" />
  <g
     id="#ffd401ff">
    <path
       d="M 0,0 L 586,0 L 586,161 L 0,161 L 0,0 M 487.09,18.25 C 483.78,34.16 480.46,50.07 477.13,65.98 C 481.25,65.99 485.37,66.09 489.49,65.89 C 491.92,54 494.41,42.12 496.96,30.26 C 504.96,30.24 512.95,30.23 520.94,30.27 C 518.43,42.18 515.89,54.08 513.43,66 C 525.53,65.99 537.62,66.01 549.72,66 C 548.11,73.41 546.56,80.83 544.95,88.25 C 532.96,88.25 520.98,88.24 509,88.25 C 506.51,99.4 504.24,110.59 501.76,121.74 C 492.55,121.79 483.34,121.69 474.14,121.8 C 473.41,125.8 472.5,129.76 471.73,133.76 C 485.13,133.74 498.52,133.74 511.91,133.76 C 514.23,122.43 516.53,111.09 518.84,99.76 C 530.84,99.75 542.85,99.76 554.86,99.75 C 558.08,84.64 561.14,69.5 564.54,54.44 C 552.54,53.99 540.51,54.37 528.51,54.25 C 530.95,42.24 533.53,30.26 535.98,18.26 C 519.68,18.24 503.39,18.27 487.09,18.25 M 46.63,57.7 C 39.41,61.35 36.23,70.63 38.93,78.1 C 40.81,82.95 45.54,85.72 49.9,88.08 C 52.86,89.79 56.42,91.53 57.43,95.09 C 58.32,99.29 54.89,103.2 50.93,104.08 C 44.67,105.75 38.48,102.87 32.88,100.37 C 32.52,101.5 32.16,102.64 31.82,103.78 C 28.99,103.73 26.16,103.74 23.33,103.78 C 21.23,113.79 19.09,123.78 16.99,133.78 C 163.87,133.71 310.76,133.76 457.64,133.76 C 459.72,123.75 461.92,113.76 463.96,103.75 C 456.25,103.77 448.54,103.72 440.83,103.77 C 443.51,91.18 446.16,78.58 448.92,66 C 454.32,65.99 459.73,66.02 465.13,65.99 C 465.73,62.56 466.4,59.15 467.18,55.76 C 452.05,55.77 436.93,55.75 421.81,55.77 C 420.96,59.17 420.18,62.58 419.41,66 C 424.74,66 430.07,66 435.41,66 C 432.74,78.6 429.98,91.17 427.3,103.76 C 422.29,103.75 417.29,103.75 412.29,103.76 C 414.57,97.92 414.68,90.55 410.47,85.54 C 406.73,80.67 400.49,78.98 396.01,75.04 C 393.19,72.57 394.21,67.78 397.61,66.43 C 403.42,64.03 410.21,65.66 415.53,68.59 C 416.4,64.89 417.46,61.25 418.72,57.66 C 408.92,54.19 397.07,53.21 387.96,59.01 C 379.88,64.04 378.23,77.08 385.55,83.45 C 389.54,87.41 395.4,88.79 399.17,92.98 C 401.98,96.71 399.66,102.14 395.63,103.84 C 391.74,103.71 387.85,103.64 383.98,103.91 C 381.16,103.08 378.5,101.83 375.83,100.62 C 375.47,101.67 375.1,102.71 374.8,103.78 C 372.1,103.75 369.4,103.74 366.71,103.74 C 373.58,94.86 376.32,82.98 374.07,71.98 C 372.79,65.98 368.95,60.39 363.38,57.66 C 357.43,54.54 350.42,54.59 343.93,55.38 C 333.35,56.96 324.8,65.17 320.71,74.77 C 316.83,83.82 315.67,94.74 320.21,103.77 C 308.06,103.73 295.91,103.75 283.77,103.77 C 284.41,100.84 285.09,97.93 285.75,95 C 291,95.03 296.41,95.3 301.44,93.5 C 308.19,91.35 314.38,86.11 315.97,78.98 C 317.6,72.68 316.81,64.85 311.1,60.82 C 302.53,54.4 291.17,56.01 281.13,55.74 C 277.59,71.73 274.21,87.75 270.72,103.76 C 263.24,103.76 255.77,103.74 248.29,103.76 C 250.62,97.46 250.69,89.4 245.58,84.41 C 241.38,79.71 234.42,78.43 230.81,73.12 C 229.22,70.38 231.45,67.06 234.11,66.06 C 239.9,63.55 246.27,66.02 251.69,68.36 C 252.72,64.78 253.73,61.19 254.69,57.6 C 245.39,53.8 234,52.97 225.04,58.09 C 217.58,62.22 214.97,72.65 218.93,80.02 C 222.38,85.87 229.58,87.35 234.31,91.78 C 238.08,95.24 236.07,101.92 231.46,103.55 C 224.88,106.29 217.96,102.99 211.86,100.5 C 211.54,101.59 211.22,102.68 210.9,103.77 C 209.71,103.77 208.53,103.77 207.35,103.79 C 209.32,98.72 209.88,92.64 207.21,87.72 C 204.72,83.23 200.1,80.64 195.79,78.2 C 193.02,76.57 189.79,74.59 189.42,71.05 C 189.3,68.14 191.91,66.21 194.46,65.56 C 199.86,64.07 205.49,65.98 210.32,68.4 C 211.83,64.91 212.53,61.15 213.64,57.52 C 204.54,53.79 193.56,53.16 184.64,57.71 C 176.79,61.66 173.59,72.4 177.84,80.04 C 181.47,86.06 188.96,87.54 193.81,92.19 C 197.27,95.72 195.06,102.04 190.63,103.56 C 183.97,106.26 176.96,103.11 170.88,100.39 C 170.51,101.51 170.14,102.64 169.78,103.77 C 168.14,103.76 166.49,103.75 164.85,103.75 C 168.25,87.75 171.53,71.73 175.01,55.76 C 170.57,55.75 166.14,55.76 161.71,55.75 C 158.32,71.75 154.96,87.76 151.59,103.77 C 146.48,103.73 141.38,103.76 136.28,103.76 C 143.89,87.75 151.49,71.73 159.18,55.76 C 154.73,55.73 150.27,55.83 145.82,55.68 C 139.04,69.33 133.04,83.37 126.49,97.13 C 126.5,83.34 126.08,69.55 126.24,55.76 C 120.79,55.75 115.33,55.76 109.88,55.75 C 104.97,66.91 100.08,78.09 95.17,89.25 C 94.06,91.73 93.17,94.34 91.59,96.58 C 91.27,82.97 90.54,69.37 90.22,55.76 C 85.89,55.75 81.57,55.75 77.24,55.77 C 78.36,71.76 79.29,87.77 80.31,103.77 C 76.63,103.74 72.94,103.74 69.26,103.78 C 71,98.72 71.51,92.87 69.09,87.94 C 66.9,83.52 62.46,81 58.36,78.64 C 55.79,77 52.69,75.51 51.5,72.52 C 50.28,69.52 53.03,66.56 55.76,65.73 C 61.45,63.81 67.4,66.1 72.63,68.34 C 73.62,64.78 74.61,61.22 75.64,57.67 C 66.62,53.73 55.53,53.13 46.63,57.7 z"
       id="path5"
       style="opacity:1;fill:#ffd401" />
    <path
       d="M 339.33,69.37 C 344.45,64.64 354.06,63.26 358.7,69.34 C 362.59,74.76 361.68,82.05 359.86,88.07 C 357.79,94.56 353.78,101.26 347.16,103.82 C 343.74,103.77 340.33,103.76 336.91,103.77 C 332.27,101.53 330.34,95.88 330.46,91.02 C 330.72,83.1 333.61,74.99 339.33,69.37 z"
       id="path7"
       style="opacity:1;fill:#ffd401" />
    <path
       d="M 287.93,84.5 C 289.19,78.32 290.49,72.15 291.75,65.96 C 294.88,65.82 298.34,65.98 300.73,68.31 C 304.72,71.55 304.25,78.22 300.3,81.29 C 296.93,84.27 292.23,84.77 287.93,84.5 z"
       id="path9"
       style="opacity:1;fill:#ffd401" />
    <path
       d="M 115.49,70.84 C 115.54,81.81 115.38,92.78 115.77,103.75 C 110.79,103.75 105.82,103.76 100.85,103.74 C 105.74,92.78 110.6,81.8 115.49,70.84 z"
       id="path11"
       style="opacity:1;fill:#ffd401" />
  </g>
  <g
     id="#e62329ff">
    <path
       d="M 487.09,18.25 C 503.39,18.27 519.68,18.24 535.98,18.26 C 533.53,30.26 530.95,42.24 528.51,54.25 C 540.51,54.37 552.54,53.99 564.54,54.44 C 561.14,69.5 558.08,84.64 554.86,99.75 C 542.85,99.76 530.84,99.75 518.84,99.76 C 516.53,111.09 514.23,122.43 511.91,133.76 C 498.52,133.74 485.13,133.74 471.73,133.76 C 472.5,129.76 473.41,125.8 474.14,121.8 C 483.34,121.69 492.55,121.79 501.76,121.74 C 504.24,110.59 506.51,99.4 509,88.25 C 520.98,88.24 532.96,88.25 544.95,88.25 C 546.56,80.83 548.11,73.41 549.72,66 C 537.62,66.01 525.53,65.99 513.43,66 C 515.89,54.08 518.43,42.18 520.94,30.27 C 512.95,30.23 504.96,30.24 496.96,30.26 C 494.41,42.12 491.92,54 489.49,65.89 C 485.37,66.09 481.25,65.99 477.13,65.98 C 480.46,50.07 483.78,34.16 487.09,18.25 z"
       id="path14"
       style="opacity:1;fill:#e62329" />
  </g>
  <g
     id="#323236ff">
    <path
       d="M 46.63,57.7 C 55.53,53.13 66.62,53.73 75.64,57.67 C 74.61,61.22 73.62,64.78 72.63,68.34 C 67.4,66.1 61.45,63.81 55.76,65.73 C 53.03,66.56 50.28,69.52 51.5,72.52 C 52.69,75.51 55.79,77 58.36,78.64 C 62.46,81 66.9,83.52 69.09,87.94 C 71.51,92.87 71,98.72 69.26,103.78 C 67.07,109.01 62.03,112.53 56.64,113.89 C 47.65,116.15 37.97,115.06 29.48,111.45 C 30.26,108.9 31.04,106.34 31.82,103.78 C 32.16,102.64 32.52,101.5 32.88,100.37 C 38.48,102.87 44.67,105.75 50.93,104.08 C 54.89,103.2 58.32,99.29 57.43,95.09 C 56.42,91.53 52.86,89.79 49.9,88.08 C 45.54,85.72 40.81,82.95 38.93,78.1 C 36.23,70.63 39.41,61.35 46.63,57.7 z"
       id="path17"
       style="opacity:1;fill:#323236" />
    <path
       d="M 184.64,57.71 C 193.56,53.16 204.54,53.79 213.64,57.52 C 212.53,61.15 211.83,64.91 210.32,68.4 C 205.49,65.98 199.86,64.07 194.46,65.56 C 191.91,66.21 189.3,68.14 189.42,71.05 C 189.79,74.59 193.02,76.57 195.79,78.2 C 200.1,80.64 204.72,83.23 207.21,87.72 C 209.88,92.64 209.32,98.72 207.35,103.79 C 204.52,110.16 197.8,113.79 191.11,114.62 C 183.17,115.91 175.13,114.35 167.66,111.64 C 168.2,108.98 168.94,106.36 169.78,103.77 C 170.14,102.64 170.51,101.51 170.88,100.39 C 176.96,103.11 183.97,106.26 190.63,103.56 C 195.06,102.04 197.27,95.72 193.81,92.19 C 188.96,87.54 181.47,86.06 177.84,80.04 C 173.59,72.4 176.79,61.66 184.64,57.71 z"
       id="path19"
       style="opacity:1;fill:#323236" />
    <path
       d="M 225.04,58.09 C 234,52.97 245.39,53.8 254.69,57.6 C 253.73,61.19 252.72,64.78 251.69,68.36 C 246.27,66.02 239.9,63.55 234.11,66.06 C 231.45,67.06 229.22,70.38 230.81,73.12 C 234.42,78.43 241.38,79.71 245.58,84.41 C 250.69,89.4 250.62,97.46 248.29,103.76 C 245.95,108.51 241.57,112.22 236.46,113.65 C 227.25,116.4 217.37,114.86 208.49,111.65 C 209.3,109.02 210.12,106.4 210.9,103.77 C 211.22,102.68 211.54,101.59 211.86,100.5 C 217.96,102.99 224.88,106.29 231.46,103.55 C 236.07,101.92 238.08,95.24 234.31,91.78 C 229.58,87.35 222.38,85.87 218.93,80.02 C 214.97,72.65 217.58,62.22 225.04,58.09 z"
       id="path21"
       style="opacity:1;fill:#323236" />
    <path
       d="M 320.71,74.77 C 324.8,65.17 333.35,56.96 343.93,55.38 C 350.42,54.59 357.43,54.54 363.38,57.66 C 368.95,60.39 372.79,65.98 374.07,71.98 C 376.32,82.98 373.58,94.86 366.71,103.74 C 359.8,112.58 347.9,116.42 336.97,115.14 C 330.03,114.28 323.21,110.28 320.21,103.77 C 315.67,94.74 316.83,83.82 320.71,74.77 M 339.33,69.37 C 333.61,74.99 330.72,83.1 330.46,91.02 C 330.34,95.88 332.27,101.53 336.91,103.77 C 340.11,105.43 343.91,105.24 347.16,103.82 C 353.78,101.26 357.79,94.56 359.86,88.07 C 361.68,82.05 362.59,74.76 358.7,69.34 C 354.06,63.26 344.45,64.64 339.33,69.37 z"
       id="path23"
       style="opacity:1;fill:#323236" />
    <path
       d="M 387.96,59.01 C 397.07,53.21 408.92,54.19 418.72,57.66 C 417.46,61.25 416.4,64.89 415.53,68.59 C 410.21,65.66 403.42,64.03 397.61,66.43 C 394.21,67.78 393.19,72.57 396.01,75.04 C 400.49,78.98 406.73,80.67 410.47,85.54 C 414.68,90.55 414.57,97.92 412.29,103.76 C 410,108.77 405.29,112.29 400.09,113.87 C 391.05,116.75 381.24,115.22 372.54,111.89 C 373.32,109.2 374.04,106.49 374.8,103.78 C 375.1,102.71 375.47,101.67 375.83,100.62 C 378.5,101.83 381.16,103.08 383.98,103.91 C 387.75,105.07 391.92,105.5 395.63,103.84 C 399.66,102.14 401.98,96.71 399.17,92.98 C 395.4,88.79 389.54,87.41 385.55,83.45 C 378.23,77.08 379.88,64.04 387.96,59.01 z"
       id="path25"
       style="opacity:1;fill:#323236" />
    <path
       d="M 77.24,55.77 C 81.57,55.75 85.89,55.75 90.22,55.76 C 90.54,69.37 91.27,82.97 91.59,96.58 C 93.17,94.34 94.06,91.73 95.17,89.25 C 100.08,78.09 104.97,66.91 109.88,55.75 C 115.33,55.76 120.79,55.75 126.24,55.76 C 126.08,69.55 126.5,83.34 126.49,97.13 C 133.04,83.37 139.04,69.33 145.82,55.68 C 150.27,55.83 154.73,55.73 159.18,55.76 C 151.49,71.73 143.89,87.75 136.28,103.76 C 134.59,107.26 132.94,110.78 131.22,114.27 C 126.07,114.24 120.91,114.25 115.76,114.25 C 115.74,110.75 115.75,107.25 115.77,103.75 C 115.38,92.78 115.54,81.81 115.49,70.84 C 110.6,81.8 105.74,92.78 100.85,103.74 C 99.31,107.25 97.76,110.76 96.16,114.24 C 91.12,114.25 86.08,114.25 81.04,114.26 C 80.76,110.76 80.54,107.26 80.31,103.77 C 79.29,87.77 78.36,71.76 77.24,55.77 z"
       id="path27"
       style="opacity:1;fill:#323236" />
    <path
       d="M 151.59,103.77 C 154.96,87.76 158.32,71.75 161.71,55.75 C 166.14,55.76 170.57,55.75 175.01,55.76 C 171.53,71.73 168.25,87.75 164.85,103.75 C 164.12,107.26 163.4,110.78 162.58,114.28 C 158.15,114.23 153.73,114.24 149.3,114.26 C 150.14,110.78 150.86,107.27 151.59,103.77 z"
       id="path29"
       style="opacity:1;fill:#323236" />
    <path
       d="M 281.13,55.74 C 291.17,56.01 302.53,54.4 311.1,60.82 C 316.81,64.85 317.6,72.68 315.97,78.98 C 314.38,86.11 308.19,91.35 301.44,93.5 C 296.41,95.3 291,95.03 285.75,95 C 285.09,97.93 284.41,100.84 283.77,103.77 C 283,107.27 282.2,110.76 281.38,114.25 C 277.12,114.24 272.85,114.25 268.59,114.23 C 269.18,110.72 269.94,107.23 270.72,103.76 C 274.21,87.75 277.59,71.73 281.13,55.74 M 287.93,84.5 C 292.23,84.77 296.93,84.27 300.3,81.29 C 304.25,78.22 304.72,71.55 300.73,68.31 C 298.34,65.98 294.88,65.82 291.75,65.96 C 290.49,72.15 289.19,78.32 287.93,84.5 z"
       id="path31"
       style="opacity:1;fill:#323236" />
    <path
       d="M 419.41,66 C 420.18,62.58 420.96,59.17 421.81,55.77 C 436.93,55.75 452.05,55.77 467.18,55.76 C 466.4,59.15 465.73,62.56 465.13,65.99 C 459.73,66.02 454.32,65.99 448.92,66 C 446.16,78.58 443.51,91.18 440.83,103.77 C 440.09,107.25 439.33,110.73 438.61,114.22 C 434.1,114.27 429.6,114.27 425.1,114.22 C 425.76,110.72 426.52,107.24 427.3,103.76 C 429.98,91.17 432.74,78.6 435.41,66 C 430.07,66 424.74,66 419.41,66 z"
       id="path33"
       style="opacity:1;fill:#323236" />
  </g>
  <g
     id="#ffffffff">
    <path
       d="M 23.33,103.78 C 26.16,103.74 28.99,103.73 31.82,103.78 C 31.04,106.34 30.26,108.9 29.48,111.45 C 37.97,115.06 47.65,116.15 56.64,113.89 C 62.03,112.53 67.07,109.01 69.26,103.78 C 72.94,103.74 76.63,103.74 80.31,103.77 C 80.54,107.26 80.76,110.76 81.04,114.26 C 86.08,114.25 91.12,114.25 96.16,114.24 C 97.76,110.76 99.31,107.25 100.85,103.74 C 105.82,103.76 110.79,103.75 115.77,103.75 C 115.75,107.25 115.74,110.75 115.76,114.25 C 120.91,114.25 126.07,114.24 131.22,114.27 C 132.94,110.78 134.59,107.26 136.28,103.76 C 141.38,103.76 146.48,103.73 151.59,103.77 C 150.86,107.27 150.14,110.78 149.3,114.26 C 153.73,114.24 158.15,114.23 162.58,114.28 C 163.4,110.78 164.12,107.26 164.85,103.75 C 166.49,103.75 168.14,103.76 169.78,103.77 C 168.94,106.36 168.2,108.98 167.66,111.64 C 175.13,114.35 183.17,115.91 191.11,114.62 C 197.8,113.79 204.52,110.16 207.35,103.79 C 208.53,103.77 209.71,103.77 210.9,103.77 C 210.12,106.4 209.3,109.02 208.49,111.65 C 217.37,114.86 227.25,116.4 236.46,113.65 C 241.57,112.22 245.95,108.51 248.29,103.76 C 255.77,103.74 263.24,103.76 270.72,103.76 C 269.94,107.23 269.18,110.72 268.59,114.23 C 272.85,114.25 277.12,114.24 281.38,114.25 C 282.2,110.76 283,107.27 283.77,103.77 C 295.91,103.75 308.06,103.73 320.21,103.77 C 323.21,110.28 330.03,114.28 336.97,115.14 C 347.9,116.42 359.8,112.58 366.71,103.74 C 369.4,103.74 372.1,103.75 374.8,103.78 C 374.04,106.49 373.32,109.2 372.54,111.89 C 381.24,115.22 391.05,116.75 400.09,113.87 C 405.29,112.29 410,108.77 412.29,103.76 C 417.29,103.75 422.29,103.75 427.3,103.76 C 426.52,107.24 425.76,110.72 425.1,114.22 C 429.6,114.27 434.1,114.27 438.61,114.22 C 439.33,110.73 440.09,107.25 440.83,103.77 C 448.54,103.72 456.25,103.77 463.96,103.75 C 461.92,113.76 459.72,123.75 457.64,133.76 C 310.76,133.76 163.87,133.71 16.99,133.78 C 19.09,123.78 21.23,113.79 23.33,103.78 z"
       id="path36"
       style="opacity:1;fill:#ffffff" />
    <path
       d="M 336.91,103.77 C 340.33,103.76 343.74,103.77 347.16,103.82 C 343.91,105.24 340.11,105.43 336.91,103.77 z"
       id="path38"
       style="opacity:1;fill:#ffffff" />
    <path
       d="M 383.98,103.91 C 387.85,103.64 391.74,103.71 395.63,103.84 C 391.92,105.5 387.75,105.07 383.98,103.91 z"
       id="path40"
       style="opacity:1;fill:#ffffff" />
  </g>
</svg>
