<?xml version="1.0" encoding="UTF-8" standalone="no"?>
<!-- Generator: Adobe Illustrator 15.1.0, SVG Export Plug-In . SVG Version: 6.00 Build 0)  -->

<svg
   xmlns:dc="http://purl.org/dc/elements/1.1/"
   xmlns:cc="http://creativecommons.org/ns#"
   xmlns:rdf="http://www.w3.org/1999/02/22-rdf-syntax-ns#"
   xmlns:svg="http://www.w3.org/2000/svg"
   xmlns="http://www.w3.org/2000/svg"
   xmlns:sodipodi="http://sodipodi.sourceforge.net/DTD/sodipodi-0.dtd"
   xmlns:inkscape="http://www.inkscape.org/namespaces/inkscape"
   version="1.1"
   id="Layer_1"
   x="0px"
   y="0px"
   width="300"
   height="60"
   viewBox="0 0 300 60"
   enable-background="new 0 0 100 16.945"
   xml:space="preserve"
   inkscape:version="0.48.4 r9939"
   sodipodi:docname="Taringa_vectorlogo.svg"><metadata
   id="metadata3037"><rdf:RDF><cc:Work
       rdf:about=""><dc:format>image/svg+xml</dc:format><dc:type
         rdf:resource="http://purl.org/dc/dcmitype/StillImage" /></cc:Work></rdf:RDF></metadata><defs
   id="defs3035" /><sodipodi:namedview
   pagecolor="#ffffff"
   bordercolor="#666666"
   borderopacity="1"
   objecttolerance="10"
   gridtolerance="10"
   guidetolerance="10"
   inkscape:pageopacity="0"
   inkscape:pageshadow="2"
   inkscape:window-width="1366"
   inkscape:window-height="706"
   id="namedview3033"
   showgrid="false"
   inkscape:zoom="4.02"
   inkscape:cx="102.32069"
   inkscape:cy="35"
   inkscape:window-x="-8"
   inkscape:window-y="-8"
   inkscape:window-maximized="1"
   inkscape:current-layer="Layer_1" />
<g
   id="g3013"
   transform="matrix(2.9166637,0,0,2.9166637,3.4588607,5.0782528)">
	<path
   d="m 0,0.002 c 4.232,0 8.465,0 12.698,0 10e-4,1.414 10e-4,2.828 0,4.242 -1.41,0 -2.82,0 -4.23,0.001 -10e-4,4.233 0,8.466 0,12.699 -1.416,0 -2.831,0 -4.246,0 0,-4.232 0,-8.466 0,-12.698 C 2.814,4.242 1.407,4.245 0,4.244 0,2.83 0,1.416 0,0.002 l 0,0 z"
   id="path3015"
   inkscape:connector-curvature="0"
   style="fill:#0360b9" />
	<path
   d="m 43.247,0.01 c 1.412,-0.001 2.823,-0.001 4.235,-0.001 0,5.645 0,11.29 0,16.934 -1.411,0 -2.823,0 -4.234,0 C 43.247,11.299 43.247,5.654 43.247,0.01 l 0,0 z"
   id="path3017"
   inkscape:connector-curvature="0"
   style="fill:#0360b9" />
	<path
   d="m 49.687,0.006 c 1.431,-0.005 2.861,-0.011 4.292,0.003 2.084,3.376 4.205,6.731 6.286,10.11 0.023,-3.373 0.003,-6.745 0.011,-10.117 1.419,0.002 2.839,-0.008 4.258,0.004 -0.002,5.644 -0.002,11.288 -0.001,16.932 -1.357,0.013 -2.715,0 -4.072,0.007 -0.081,-0.011 -0.198,0.027 -0.232,-0.07 -2.09,-3.364 -4.191,-6.721 -6.28,-10.085 -0.021,1.641 -0.002,3.281 -0.009,4.921 0.001,1.742 -0.002,3.484 0.002,5.227 -1.418,0.011 -2.836,0.008 -4.254,0.002 0,-5.645 0,-11.289 -0.001,-16.934 l 0,0 z"
   id="path3019"
   inkscape:connector-curvature="0"
   style="fill:#0360b9" />
	<path
   d="m 69.913,0.06 c 0.393,-0.075 0.795,-0.054 1.192,-0.058 2.275,0.004 4.551,-0.009 6.825,0.006 -0.003,1.41 -0.002,2.819 0,4.229 -2.428,0.016 -4.855,0.002 -7.282,0.008 -10e-4,2.818 -10e-4,5.638 0,8.458 1.343,0.002 2.685,-10e-4 4.027,0.001 0.062,-0.001 0.122,-0.013 0.183,-0.034 -0.016,-0.836 -0.007,-1.672 -0.005,-2.508 -0.719,-0.04 -1.44,-0.006 -2.16,-0.019 0.001,-1.056 0,-2.113 0,-3.169 2.13,-0.001 4.26,-0.003 6.389,10e-4 0,1.634 0,3.268 0,4.903 -0.013,0.578 0.049,1.165 -0.091,1.734 -0.272,1.297 -1.199,2.431 -2.411,2.966 -0.563,0.253 -1.181,0.379 -1.797,0.365 -1.404,0 -2.809,0.007 -4.213,-0.004 -1.175,0.004 -2.328,-0.542 -3.103,-1.419 -0.635,-0.718 -1.025,-1.654 -1.057,-2.613 -10e-4,-2.883 0.001,-5.766 -10e-4,-8.649 -0.021,-0.929 0.298,-1.856 0.86,-2.593 0.637,-0.843 1.603,-1.43 2.644,-1.605 l 0,0 z"
   id="path3021"
   inkscape:connector-curvature="0"
   style="fill:#0360b9" />
	<path
   d="m 95.768,0.009 c 1.41,0 2.821,0 4.231,0.001 C 100,3.889 100,7.768 100,11.647 c -1.411,0 -2.822,0 -4.232,0 -0.001,-3.879 -0.001,-7.758 0,-11.638 l 0,0 z"
   id="path3023"
   inkscape:connector-curvature="0"
   style="fill:#0360b9" />
	<path
   d="m 14.377,1.952 c 0.714,-1.131 1.995,-1.891 3.335,-1.944 1.44,0.002 2.881,0.004 4.321,0 0.949,-0.046 1.902,0.271 2.658,0.841 1.073,0.798 1.72,2.124 1.692,3.461 -0.002,4.211 0,8.421 -10e-4,12.632 -1.417,0.003 -2.835,0 -4.252,0.001 -0.003,-1.41 0.001,-2.82 -10e-4,-4.23 -1.39,0.001 -2.78,-0.002 -4.169,0.001 0,1.41 0,2.819 0,4.229 -1.419,-0.004 -2.837,0.01 -4.255,-0.007 0.005,-4.244 0,-8.489 0.002,-12.733 0.015,-0.792 0.236,-1.585 0.67,-2.251 l 0,0 z m 3.579,6.513 c 1.39,0.022 2.781,0.006 4.171,0.009 C 22.132,7.064 22.124,5.656 22.13,4.248 20.74,4.238 19.349,4.245 17.958,4.244 17.956,5.652 17.96,7.059 17.956,8.465 l 0,0 z"
   id="path3025"
   inkscape:connector-curvature="0"
   style="fill:#0360b9" />
	<path
   d="m 28.5,0.006 c 2.816,-0.009 5.633,-0.002 8.449,-0.004 0.927,-0.021 1.854,0.294 2.59,0.854 1.114,0.827 1.761,2.23 1.672,3.615 0,1.388 0,2.776 0,4.166 -0.031,1.646 -1.146,3.191 -2.679,3.777 0.635,1.508 1.264,3.021 1.917,4.521 -1.42,0.018 -2.842,0.009 -4.263,0.004 -0.583,-1.409 -1.196,-2.807 -1.772,-4.219 -0.553,-0.016 -1.107,-0.003 -1.661,-0.008 -0.002,1.408 -0.002,2.817 0,4.226 -1.417,0.011 -2.836,0.008 -4.254,0.002 C 28.503,11.295 28.502,5.65 28.5,0.006 l 0,0 z m 4.254,8.469 c 1.407,0.002 2.813,0.001 4.22,0.001 0.002,-1.411 0,-2.821 0,-4.231 -1.406,-0.004 -2.812,0.003 -4.217,-0.004 -0.008,1.411 -0.003,2.822 -0.003,4.234 l 0,0 z"
   id="path3027"
   inkscape:connector-curvature="0"
   style="fill:#0360b9" />
	<path
   d="m 82.205,1.245 c 0.72,-0.727 1.715,-1.187 2.739,-1.236 1.478,-10e-4 2.955,0.005 4.433,-0.002 0.524,-0.019 1.049,0.083 1.538,0.269 1.298,0.485 2.315,1.649 2.615,3.003 0.143,0.551 0.097,1.121 0.104,1.684 0,3.994 0.001,7.988 0,11.981 -1.412,0 -2.823,0 -4.235,0 -0.001,-1.409 0.001,-2.819 0,-4.229 -1.392,-0.004 -2.782,-10e-4 -4.173,-0.002 -0.002,1.407 -0.003,2.815 0,4.224 -1.418,0.015 -2.836,0.008 -4.254,0.003 0.005,-4.299 0.003,-8.599 0.002,-12.898 0.039,-1.043 0.489,-2.063 1.231,-2.797 l 0,0 z m 3.018,2.999 c 0.002,1.41 -0.002,2.821 0.002,4.232 C 86.617,8.47 88.008,8.489 89.4,8.466 89.396,7.06 89.4,5.653 89.398,4.245 88.006,4.243 86.615,4.244 85.223,4.244 l 0,0 z"
   id="path3029"
   inkscape:connector-curvature="0"
   style="fill:#0360b9" />
	<path
   d="m 95.768,12.703 c 1.41,-10e-4 2.821,-10e-4 4.231,0 0.001,1.413 0.001,2.827 0,4.24 -1.41,0 -2.821,0 -4.231,0 -0.001,-1.413 -0.001,-2.827 0,-4.24 l 0,0 z"
   id="path3031"
   inkscape:connector-curvature="0"
   style="fill:#0360b9" />
</g>
</svg>