<svg xmlns="http://www.w3.org/2000/svg" viewBox="0 0 252.24 108.59"><defs><style>.a{fill:none;}.b{fill:#eb5d65;}.c{fill:#28b7e0;}.d{fill:#fff;}.e{fill:#172b48;}</style></defs><title>USE Together</title><path class="a" d="M60.65,61.88A19.6,19.6,0,0,1,56.28,51l-12.44-.38A32.06,32.06,0,0,0,92.75,76.74L85.49,66.6A19.69,19.69,0,0,1,60.65,61.88Z" transform="translate(-3.71 -2.91)"/><path class="b" d="M121.15,38.68,107.93,51.9a32,32,0,0,1-9.3,20.22c-.76.76-1.56,1.47-2.37,2.14A32.08,32.08,0,0,1,43.84,50.61l-14.42-.45a46.49,46.49,0,0,0,71.72,38.31q1.79-1.16,3.48-2.5a46.38,46.38,0,0,0,16.53-47.29Z" transform="translate(-3.71 -2.91)"/><path class="b" d="M53.19,26.69a32,32,0,0,1,20.22-9.3L86.64,4.16A46.48,46.48,0,0,0,29.55,45.88l14.38.44A32,32,0,0,1,53.19,26.69Z" transform="translate(-3.71 -2.91)"/><path class="c" d="M91.47,37.36l13.43-12.92a9.91,9.91,0,1,0-3-3.09L88.5,34.27A19.67,19.67,0,0,0,56.41,46.71l-12.48-.39-14.38-.44-6.23-.19A9.91,9.91,0,1,0,23.19,50l6.24.19,14.42.45L56.28,51A19.67,19.67,0,0,0,85.49,66.6l7.25,10.13a31.91,31.91,0,0,0,3.51-2.47L89,64.11A19.67,19.67,0,0,0,91.47,37.36Z" transform="translate(-3.71 -2.91)"/><path class="c" d="M121.58,96.37a9.89,9.89,0,0,0-12.27-3.85L104.63,86q-1.7,1.34-3.48,2.5L105.82,95a9.89,9.89,0,1,0,15.76,1.36Z" transform="translate(-3.71 -2.91)"/><path class="a" d="M60.65,61.88A19.6,19.6,0,0,1,56.28,51l-12.44-.38A32.06,32.06,0,0,0,92.75,76.74L85.49,66.6A19.69,19.69,0,0,1,60.65,61.88Z" transform="translate(-3.71 -2.91)"/><ellipse class="d" cx="69.12" cy="37.27" rx="7.75" ry="3" transform="translate(-13.12 35.24) rotate(-28.98)"/><ellipse class="d" cx="107.33" cy="10" rx="3.87" ry="1.5" transform="translate(4.88 50.34) rotate(-28.98)"/><ellipse class="d" cx="10.28" cy="41.71" rx="3.87" ry="1.5" transform="translate(-22.63 7.29) rotate(-28.98)"/><ellipse class="d" cx="109.74" cy="95.69" rx="3.87" ry="1.5" transform="translate(-36.33 62.24) rotate(-28.98)"/><path class="e" d="M164.71,14.32h5.12q1.46,0,1.46,1.3V54q0,5.94-3.38,9.27t-9.31,3.34h-9q-5.94,0-9.27-3.34T137,54V15.7a1.22,1.22,0,0,1,1.38-1.38h5.12a1.22,1.22,0,0,1,1.38,1.38v38q0,6,5.86,6h6.67q5.94,0,5.94-6v-38A1.22,1.22,0,0,1,164.71,14.32Z" transform="translate(-3.71 -2.91)"/><path class="e" d="M181.7,53.93V51.81a1.22,1.22,0,0,1,1.38-1.38h5.21a1.22,1.22,0,0,1,1.38,1.38v1.47q0,3.42,1.5,4.92t5,1.51h5.61q3.5,0,5-1.59t1.55-5.17V51.08a4.87,4.87,0,0,0-2-4.11,10.71,10.71,0,0,0-4.92-2q-2.93-.45-6.42-1.26a56.28,56.28,0,0,1-6.43-1.87,10.08,10.08,0,0,1-4.92-4,13,13,0,0,1-2-7.48V27q0-5.93,3.38-9.31t9.31-3.38H203q6,0,9.39,3.38T215.78,27V28.8a1.22,1.22,0,0,1-1.38,1.38h-5.21a1.22,1.22,0,0,1-1.38-1.38V27.74q0-3.5-1.51-5t-5-1.5h-5.12q-3.5,0-5,1.59t-1.5,5.41v2.52q0,3.66,5.28,5,2.36.57,5.17,1a43.09,43.09,0,0,1,5.65,1.22,23.65,23.65,0,0,1,5.2,2.15,9.91,9.91,0,0,1,3.83,4.07,13.87,13.87,0,0,1,1.46,6.63v3.17q0,5.94-3.38,9.31t-9.31,3.38h-9.11q-5.94,0-9.35-3.38T181.7,53.93Z" transform="translate(-3.71 -2.91)"/><path class="e" d="M254.65,66.61h-26a1.22,1.22,0,0,1-1.38-1.38V15.7a1.22,1.22,0,0,1,1.38-1.38h26q1.3,0,1.3,1.38v4.15q0,1.38-1.3,1.38H236.11c-.65,0-1,.27-1,.81V35.79c0,.54.32.81,1,.81h15.7c1,0,1.46.46,1.46,1.38v4.15q0,1.38-1.46,1.38h-15.7c-.65,0-1,.27-1,.81V58.81c0,.6.32.89,1,.89h18.54q1.3,0,1.3,1.38v4.15Q256,66.61,254.65,66.61Z" transform="translate(-3.71 -2.91)"/><path class="e" d="M139.17,80.51h-1.62a.64.64,0,0,1-.45-.12A.59.59,0,0,1,137,80V78.22a.51.51,0,0,1,.57-.57h1.62a.3.3,0,0,0,.34-.34v-3q0-.57.61-.57h2.12a.51.51,0,0,1,.57.57v3q0,.34.37.34h3.14c.4,0,.61.19.61.57V80q0,.54-.61.54h-3.14q-.37,0-.37.34v8.66A2.21,2.21,0,0,0,145.33,92h1.32q.61,0,.61.57v1.75q0,.54-.61.54h-1.82a5.44,5.44,0,0,1-3.91-1.35,5,5,0,0,1-1.42-3.81V80.85A.3.3,0,0,0,139.17,80.51Z" transform="translate(-3.71 -2.91)"/><path class="e" d="M158.34,94.83h-3a4.77,4.77,0,0,1-5.22-5.22V82.87a4.75,4.75,0,0,1,5.22-5.23h3A5.29,5.29,0,0,1,162.2,79a5.14,5.14,0,0,1,1.4,3.86v6.74a5.15,5.15,0,0,1-1.4,3.84A5.25,5.25,0,0,1,158.34,94.83ZM155.85,92h2.06a2.16,2.16,0,0,0,2.43-2.46V83a2.16,2.16,0,0,0-2.43-2.46h-2.06a2.5,2.5,0,0,0-1.85.59,2.61,2.61,0,0,0-.57,1.87v6.54a2.6,2.6,0,0,0,.57,1.87A2.5,2.5,0,0,0,155.85,92Z" transform="translate(-3.71 -2.91)"/><path class="e" d="M173.75,94h-1.52a4.89,4.89,0,0,1-3.72-1.37,5.38,5.38,0,0,1-1.3-3.86v-5.9A5.18,5.18,0,0,1,168.59,79a5.23,5.23,0,0,1,3.84-1.37H180c.4,0,.61.19.61.57V94.9a5.1,5.1,0,0,1-1.4,3.83,5.29,5.29,0,0,1-3.86,1.36H169q-.57,0-.57-.54V97.8a.51.51,0,0,1,.57-.57h5.83a2.19,2.19,0,0,0,2.46-2.49V92.17h-.13A3.37,3.37,0,0,1,173.75,94Zm3.54-5.73V80.85q0-.34-.37-.34h-4q-2.39,0-2.39,2.49V88.6q0,2.5,2.39,2.49h1.62Q177.29,91.09,177.29,88.26Z" transform="translate(-3.71 -2.91)"/><path class="e" d="M197,94.83h-7.28a4.77,4.77,0,0,1-5.22-5.22V82.87a4.75,4.75,0,0,1,5.22-5.23h2.76A5.28,5.28,0,0,1,196.33,79a5.18,5.18,0,0,1,1.38,3.86v4.28a.54.54,0,0,1-.61.61h-9q-.37,0-.37.34v1.45A2.17,2.17,0,0,0,190.16,92H197a.54.54,0,0,1,.61.61v1.69Q197.58,94.83,197,94.83Zm-8.9-9.37h6a.3.3,0,0,0,.34-.34V83a2.61,2.61,0,0,0-.57-1.87,2.5,2.5,0,0,0-1.85-.59h-1.85a2.5,2.5,0,0,0-1.85.59,2.61,2.61,0,0,0-.57,1.87v2.16A.3.3,0,0,0,188.07,85.46Z" transform="translate(-3.71 -2.91)"/><path class="e" d="M201.92,80.51h-1.62a.64.64,0,0,1-.45-.12.59.59,0,0,1-.12-.42V78.22a.51.51,0,0,1,.57-.57h1.62a.3.3,0,0,0,.34-.34v-3q0-.57.61-.57H205a.51.51,0,0,1,.57.57v3q0,.34.37.34h3.14c.4,0,.61.19.61.57V80q0,.54-.61.54h-3.14q-.37,0-.37.34v8.66A2.21,2.21,0,0,0,208.09,92h1.32q.61,0,.61.57v1.75q0,.54-.61.54h-1.82a5.44,5.44,0,0,1-3.91-1.35,5,5,0,0,1-1.42-3.81V80.85A.3.3,0,0,0,201.92,80.51Z" transform="translate(-3.71 -2.91)"/><path class="e" d="M215.94,94.83h-2.12a.51.51,0,0,1-.57-.57V71.71a.51.51,0,0,1,.57-.57h2.12a.51.51,0,0,1,.57.57v7.72h.13q.81-1.79,3.41-1.79h1.48A5,5,0,0,1,225.31,79a5.33,5.33,0,0,1,1.32,3.88V94.26q0,.57-.61.57H223.9a.51.51,0,0,1-.57-.57V83a2.19,2.19,0,0,0-2.46-2.49h-1.58q-2.76,0-2.76,2.86V94.26A.51.51,0,0,1,215.94,94.83Z" transform="translate(-3.71 -2.91)"/><path class="e" d="M242.84,94.83h-7.28a4.77,4.77,0,0,1-5.22-5.22V82.87a4.75,4.75,0,0,1,5.22-5.23h2.76A5.28,5.28,0,0,1,242.2,79a5.18,5.18,0,0,1,1.38,3.86v4.28a.54.54,0,0,1-.61.61h-9q-.37,0-.37.34v1.45A2.17,2.17,0,0,0,236,92h6.81a.54.54,0,0,1,.61.61v1.69Q243.45,94.83,242.84,94.83Zm-8.9-9.37h6a.3.3,0,0,0,.34-.34V83a2.61,2.61,0,0,0-.57-1.87,2.5,2.5,0,0,0-1.85-.59H236a2.5,2.5,0,0,0-1.85.59,2.61,2.61,0,0,0-.57,1.87v2.16A.3.3,0,0,0,233.94,85.46Z" transform="translate(-3.71 -2.91)"/><path class="e" d="M250,94.83h-2.12a.51.51,0,0,1-.57-.57v-16a.51.51,0,0,1,.57-.57H250a.51.51,0,0,1,.57.57V79.5h.13a2.65,2.65,0,0,1,1.3-1.35,4.52,4.52,0,0,1,2.14-.51h1.25a.51.51,0,0,1,.57.57V80q0,.64-.57.54h-2q-2.8,0-2.8,3.07V94.26A.51.51,0,0,1,250,94.83Z" transform="translate(-3.71 -2.91)"/></svg>